<?xml version="1.0" encoding="UTF-8"?><svg xmlns="http://www.w3.org/2000/svg" viewBox="0 0 4627.06 469.22"><defs><style>.d{fill:#231f20;}</style></defs><g id="a"/><g id="b"><g id="c"><g><path class="d" d="M2270.6,153c-5.8-10.8-13.55-23.64-24.06-37.34-1.32-1.71-2.66-3.45-4.02-5.21-1.42-1.72-2.86-3.46-4.33-5.23-1.44-1.79-2.98-3.55-4.56-5.31-1.58-1.76-3.14-3.59-4.8-5.36-6.61-7.14-13.96-14.32-22-21.44-16.14-14.18-35.31-27.9-57.36-39.67-22.05-11.73-47.07-21.39-74.27-27.28-13.59-2.94-27.72-4.92-42.17-5.74-14.44-.82-29.18-.46-43.97,1.05-29.58,3.02-59.36,10.72-87.64,22.74-28.27,12.05-55,28.47-78.72,48.45-23.75,19.95-44.32,43.65-60.43,69.67-8.13,13.13-15.13,26.82-20.88,40.9-6.35,6.06-13.08,12.35-20.18,18.83-29.09,26.45-64.66,56.01-106.97,80.7-21.07,12.43-43.8,23.26-67.9,31.72-24.06,8.41-49.35,14.53-74.88,17.24-25.51,2.73-51.24,2.15-75.64-2.48-24.36-4.49-47.52-13.12-67.27-24.97-19.84-11.89-36.57-27.18-48.32-43.86-11.79-16.63-18.62-34.83-20.21-51.18-.94-8.37-.54-16.67,.64-24.41,.13-.97,.26-1.93,.4-2.9,.21-.94,.42-1.88,.64-2.82,.2-.93,.4-1.86,.6-2.78l.29-1.38,.41-1.34c.53-1.77,1.05-3.53,1.56-5.26,.64-1.67,1.28-3.32,1.91-4.95,.54-1.67,1.39-3.15,2.09-4.67,.74-1.5,1.34-3.06,2.23-4.39,.82-1.38,1.61-2.75,2.36-4.1,.88-1.25,1.74-2.48,2.59-3.7,.42-.61,.83-1.21,1.24-1.81,.47-.54,.93-1.08,1.39-1.61,.89-1.08,1.77-2.14,2.64-3.18,.97-.92,1.9-1.83,2.81-2.73,.45-.46,.89-.91,1.33-1.36,.46-.42,.96-.77,1.43-1.16,.95-.76,1.86-1.51,2.74-2.26,.42-.4,.9-.71,1.38-1,.47-.31,.94-.61,1.4-.91,.92-.61,1.8-1.21,2.66-1.82,.82-.45,1.63-.9,2.42-1.33,3.21-1.65,6.42-2.82,9.39-3.64,5.95-1.67,10.88-2.07,13.88-2.3,6.03-.48,13.32-.3,20.93,1.24,7.59,1.51,15.4,4.42,21.96,8.75,3.27,2.18,6.21,4.7,8.78,7.56,.31,.36,.66,.71,.97,1.08l.89,1.14c.65,.73,1.14,1.57,1.72,2.36l.43,.6,.32,.55c.22,.36,.45,.72,.69,1.09,.46,.73,.79,1.54,1.25,2.32,3.07,6.4,4.17,15.32,2.73,24.47-1.38,9.16-5.08,18.22-9.79,25.59-4.73,7.4-10.39,13.26-15.98,17.45-11.11,8.56-22.33,10.42-23.27,15.46-.22,1.21,.23,2.5,1.43,3.88,.6,.69,1.38,1.4,2.35,2.12,.97,.7,2.15,1.31,3.51,1.97,1.36,.69,2.93,1.23,4.68,1.72,.88,.24,1.81,.53,2.78,.72,.97,.17,1.99,.34,3.06,.49,2.15,.37,4.42,.39,6.91,.45,1.24,.03,2.48-.1,3.79-.18,1.3-.09,2.66-.19,4-.43,10.91-1.5,23.49-6.6,35.05-15.5,11.54-8.9,22.12-21.49,29.28-37.44,3.56-7.97,6.25-16.8,7.55-26.31,1.3-9.49,1.18-19.7-.91-29.93-.61-2.53-1.17-5.1-1.95-7.62-.42-1.26-.83-2.51-1.25-3.76l-.65-1.88-.71-1.75c-.96-2.32-1.9-4.67-3.07-6.9-.57-1.13-1.14-2.25-1.71-3.37-.6-1.11-1.25-2.18-1.88-3.27-5.12-8.66-11.51-16.43-18.58-22.98-14.21-13.11-30.71-21.41-46.44-26.07-15.79-4.68-30.99-5.83-44.07-4.84-6.52,.51-17.17,1.74-30.84,6.48-6.81,2.37-14.37,5.68-22.2,10.45-1.94,1.22-3.92,2.52-5.9,3.85-1.82,1.39-3.67,2.81-5.57,4.26-.94,.74-1.88,1.48-2.84,2.23-.96,.74-1.92,1.51-2.79,2.38-1.79,1.69-3.61,3.41-5.47,5.17-.91,.89-1.87,1.76-2.75,2.7-.85,.96-1.71,1.94-2.58,2.92-1.71,1.98-3.44,3.99-5.21,6.04-1.6,2.14-3.18,4.35-4.79,6.59-.79,1.12-1.59,2.25-2.4,3.39-.71,1.18-1.43,2.37-2.16,3.57-1.42,2.41-2.9,4.85-4.28,7.36-1.24,2.56-2.5,5.16-3.78,7.79-1.34,2.61-2.3,5.37-3.39,8.13-1.05,2.77-2.21,5.55-3,8.45-.87,2.88-1.75,5.79-2.57,8.75-.65,2.98-1.31,6-1.97,9.04l-.48,2.29-.34,2.32c-.22,1.55-.44,3.11-.66,4.68-.21,1.57-.42,3.14-.63,4.72-.11,1.59-.22,3.19-.33,4.79-.71,9.85-.57,20.03,.69,30.37-1.26-1.19-2.54-2.39-3.84-3.62-3.28-3.09-6.69-6.29-10.2-9.6-3.62-3.2-7.5-6.33-11.43-9.65-1.98-1.65-3.98-3.33-6.01-5.03l-1.53-1.28-1.61-1.2c-1.08-.8-2.16-1.61-3.25-2.42-4.38-3.25-8.87-6.58-13.47-10-4.74-3.22-9.68-6.39-14.69-9.71-20.27-12.86-43.38-25.34-69.22-35.8-25.88-10.29-54.4-18.69-84.84-23.78-30.41-5.13-62.81-6.71-95.5-4.46-32.75,2.1-65.74,8.18-98.11,16.53-32.39,8.38-64.18,19.12-95,30.96-30.8,11.88-60.7,24.74-89.59,37.45-28.87,12.71-56.71,25.13-83.52,36.34-26.79,11.23-52.51,21.24-76.83,29.51-48.63,16.6-91.59,26-124.79,29.44-4.15,.43-8.15,.84-11.98,1.24-3.84,.38-7.52,.46-11.03,.7-3.51,.21-6.86,.41-10.04,.6-3.1,.06-6.04,.12-8.8,.17-5.54-.04-10.38-.02-14.49-.22-2.06-.07-3.93-.13-5.6-.18-1.68-.09-3.16-.17-4.45-.24-20.58-.92-47.82-3.47-76.28-10.31-14.21-3.4-28.76-7.72-42.77-13.18-14.03-5.44-27.6-11.86-40.1-18.99-25.07-14.18-45.32-31.59-59.46-45.66-14.29-13.95-23.12-24.17-27.84-22.1-2.26,.99-3.07,4.91-2.56,11.43,.26,3.26,1.1,7.03,2.17,11.45,.54,2.21,1.34,4.45,2.14,6.89,.83,2.41,1.69,5.01,2.85,7.58,4.25,10.55,10.83,22.51,19.69,34.79,8.86,12.27,20.04,24.82,33.18,36.36,13.12,11.58,28.08,22.27,43.99,31.47,15.9,9.24,32.78,16.83,49.55,22.89,16.78,6.06,33.47,10.5,49.12,13.5,15.65,3.01,30.25,4.58,42.9,5.19,1.58,.07,3.4,.15,5.47,.23,2.06,.02,4.36,.04,6.89,.06,5.05,.08,11.01-.14,17.81-.4,3.4-.22,7.01-.45,10.82-.7,3.72-.39,7.63-.81,11.74-1.25,4.1-.48,8.41-.83,12.85-1.5,4.42-.69,9.03-1.42,13.81-2.17,38.21-6.09,85.77-19.74,136.51-40.75,25.4-10.47,51.62-22.69,78.37-36.01,26.75-13.3,54.05-27.7,81.8-42.2,27.74-14.47,56.05-28.97,84.98-42.44,28.93-13.42,58.51-25.7,88.57-35.72,30.04-9.99,60.56-17.82,90.99-21.89,30.43-4.21,60.57-4.85,89.56-2.03,28.99,2.78,56.68,8.84,82.18,16.95,25.46,8.28,48.62,18.74,69.18,29.83,5.09,2.87,10.12,5.61,14.96,8.43,4.72,3.01,9.33,5.95,13.82,8.82,1.12,.72,2.24,1.43,3.35,2.14l1.66,1.06,1.58,1.14c2.1,1.52,4.18,3.02,6.22,4.5,4.07,2.98,8.11,5.78,11.89,8.67,3.68,3.01,7.25,5.91,10.69,8.72,3.06,2.51,6.06,4.88,8.77,7.4,.08,.47,.15,.94,.24,1.41,5.03,27.54,18.06,53.75,36.52,75.86,18.48,22.14,42.1,40.08,68.38,53.1,26.43,13.05,55.24,20.97,84.51,23.96,29.27,3.1,58.74,1.23,86.94-4.16,56.5-10.89,107.82-35.57,149.65-65.26,20.99-14.72,39.9-30.43,56.91-46.04,17.01-15.62,32.16-31.14,45.7-45.74,1.53-1.66,3.04-3.3,4.54-4.93-2.08,6.79-3.87,13.64-5.35,20.54-.46,2.18-.89,4.37-1.29,6.56,.43-5.68,.67-8.9,.67-8.9,0,0-1.38,3.67-3.8,10.12-1.36,3.17-2.91,7.03-4.87,11.38-1.02,2.16-2.1,4.45-3.25,6.87-1.11,2.42-2.51,4.89-3.83,7.49-5.47,10.35-12.54,22.03-21.14,33.75-8.58,11.73-18.67,23.49-29.67,34.34-10.97,10.88-22.89,20.79-34.79,29.23-11.88,8.47-23.7,15.49-34.39,21.06-2.7,1.34-5.24,2.74-7.79,3.92-2.54,1.19-4.96,2.33-7.26,3.41-4.71,1.99-8.87,3.92-12.63,5.33-1.88,.76-3.59,1.45-5.14,2.08-1.61,.61-3.05,1.15-4.29,1.61-2.54,.96-4.4,1.79-5.54,2.3-2.29,1.03-4.83,2.46-7.52,4.21-2.75,1.62-5.65,3.6-8.64,5.76-6.04,4.17-12.45,9.17-18.5,14.18-3.02,2.51-5.9,5.19-8.57,7.7-2.66,2.55-5.05,5.28-7.06,7.78-4,5.11-6.37,10.34-5.56,15.2,.82,4.86,4.82,8.88,11.08,12.03,3.14,1.63,6.77,2.78,10.82,3.81,4.06,1.06,8.45,1.66,13.07,2.05,9.23,.81,19.16,.16,28.28-1.32,4.53-.81,8.85-1.85,12.8-2.96,3.89-1.23,7.4-2.55,10.34-3.89,1.47-.66,3.72-1.99,6.71-3.76,1.49-.9,3.16-1.89,4.97-3.04,1.75-1.18,3.69-2.49,5.82-3.92,4.21-2.77,8.78-6.31,13.84-10.12,2.44-1.98,5.01-4.08,7.69-6.27,2.66-2.17,5.29-4.6,8.05-7.01,10.92-9.83,22.39-21.64,33.18-34.86,2.74-3.26,5.3-6.75,7.96-10.16,2.6-3.46,5.09-7.05,7.64-10.59,2.41-3.66,4.87-7.27,7.19-10.97,2.25-3.76,4.62-7.4,6.71-11.22,8.61-15.08,15.74-30.58,21.17-45.31,5.45-14.72,9.2-28.66,11.68-40.58,.58-3,1.25-5.81,1.66-8.55,0-.05,.02-.1,.02-.15-.41,5.08-.64,10.16-.67,15.22-.09,14.56,1.42,28.99,4.49,42.76,3.12,14.03,7.97,27.23,13.92,39.21,5.99,11.99,12.94,22.97,20.88,32.56,1.86,2.49,4.03,4.71,6.04,7,1.02,1.13,2.04,2.26,3.05,3.38,1.03,1.1,2.14,2.13,3.21,3.18,2.17,2.07,4.23,4.19,6.44,6.12,2.26,1.89,4.48,3.76,6.67,5.6,9.07,7.06,18.25,13.15,27.67,17.62,4.57,2.45,9.34,4.21,13.85,6.02,2.23,.96,4.57,1.59,6.81,2.3,2.26,.68,4.46,1.34,6.62,1.98,4.39,1.07,8.65,1.88,12.68,2.69,2.09,.33,4.18,.58,6.19,.84,2.01,.23,3.96,.35,5.86,.5,15.18,.86,26.33-.9,33.05-2.28,13.47-2.82,28.46-8.31,42.94-17.41,14.44-9.07,28.51-21.77,39.34-38.24,5.37-8.25,9.89-17.42,13.08-27.21,.83-2.43,1.45-4.96,2.14-7.43,.55-2.54,1.15-5.05,1.56-7.61,.38-2.57,.82-5.12,.99-7.71,.1-1.29,.21-2.57,.31-3.87,.07-1.32,.08-2.7,.11-4.04,.16-10.81-1.58-21.35-4.81-30.86-3.19-9.54-7.68-18.14-12.92-25.69-10.52-15.1-23.98-25.98-37.56-32.93-6.8-3.47-13.67-5.94-20.27-7.49-6.6-1.56-12.96-2.09-18.68-1.95-11.51,.23-20.36,3.6-25.58,7-1.31,.89-2.43,1.73-3.35,2.55-.9,.89-1.6,1.73-2.12,2.51-1.04,1.57-1.33,2.94-.92,4.1,1.72,4.87,13.74,4.56,27.51,11.27,6.89,3.22,14.29,8.18,20.99,15.05,6.67,6.81,12.66,15.55,16.16,24.99,3.52,9.43,4.48,19.21,2.48,27.1l-.35,1.5-.48,1.64c-.25,1.1-.73,2.15-1.06,3.22-.37,1.06-.87,2.09-1.27,3.13-.54,1.01-.94,2.04-1.51,3.03-2.14,3.98-4.77,7.73-7.8,11.19-6.12,6.9-13.81,12.52-21.53,16.5-7.73,4.02-15.41,6.37-21.91,7.76-3.25,.69-8.55,1.66-15.34,1.67-.84-.04-1.72-.02-2.61-.07-.89-.07-1.8-.13-2.74-.2-2.02-.36-4.16-.61-6.42-.97-1.12-.27-2.26-.55-3.43-.84-1.17-.29-2.4-.46-3.59-.94-2.41-.86-5-1.49-7.56-2.73-5.26-1.99-10.66-5.17-16.27-8.88-1.37-1-2.77-2.01-4.18-3.03-1.4-1.05-2.72-2.29-4.13-3.44-.69-.59-1.42-1.15-2.1-1.78-.67-.65-1.34-1.31-2.01-1.97-1.32-1.35-2.82-2.56-4.06-4.08-5.42-5.61-10.34-12.36-14.76-19.78-4.39-7.46-8.12-15.64-10.81-24.52-5.55-18.23-7.18-39.61-4.07-62.17,3.06-22.55,10.7-46.17,22.37-68.63,11.66-22.47,27.43-43.86,46.54-62.57,19.07-18.74,41.31-34.95,65.45-47.52,24.15-12.55,50.14-21.51,76.46-26.29,26.33-4.84,52.88-5.3,78.2-1.83,25.33,3.43,49.37,10.54,71.01,19.94,21.64,9.44,40.96,21.03,57.53,33.41,8.26,6.23,15.9,12.57,22.85,18.98,1.75,1.59,3.39,3.24,5.06,4.82,1.67,1.58,3.3,3.17,4.83,4.79,1.56,1.61,3.1,3.19,4.61,4.75,1.46,1.61,2.9,3.2,4.31,4.76,11.3,12.52,19.93,24.51,26.5,34.69,6.63,10.17,10.93,18.7,13.96,24.45,2.8,5.87,4.29,8.99,4.29,8.99,0,0-1.24-3.24-3.56-9.32-2.56-5.98-6.19-14.89-12.05-25.67Z"/><path class="d" d="M2163.66,125.23c-1.62-1.67-3.34-3.44-5.16-5.32-1.81-1.92-3.92-3.67-6.04-5.66-8.61-7.75-19.61-16.11-32.77-23.51-13.13-7.42-28.38-13.89-44.78-18.26-1.02-.28-2.05-.59-3.08-.84l-3.12-.69-6.28-1.37c-4.21-.83-8.48-1.39-12.75-2.07-4.28-.39-8.59-.9-12.88-1.13-2.16-.07-4.31-.14-6.44-.2-2.15-.07-4.29-.14-6.41-.03-17.05,.26-33.38,2.91-47.54,6.75-3.51,1.03-7,1.9-10.23,3.05-3.27,1.16-6.39,2.26-9.35,3.31-5.82,2.44-11.21,4.58-15.66,6.93-2.29,1.16-4.38,2.22-6.26,3.18-1.87,1.05-3.54,2.05-5.03,2.94-2.96,1.81-5.2,3.16-6.46,4.17-2.53,2-5.31,4.53-8.16,7.44-2.73,3.06-5.56,6.47-8.23,10.19-1.29,1.92-2.55,3.89-3.77,5.9-1.22,2.01-2.44,4.02-3.45,6.2-2.07,4.31-4.07,8.53-5.38,12.96-1.39,4.36-2.5,8.56-2.95,12.68-.49,4.09-.74,7.77-.25,11.23,.83,6.83,3.31,11.81,7.59,14.23,4.29,2.43,9.94,2.19,15.88,.65,2.9-.82,6.21-1.78,9.36-3.04,3.11-1.3,6.48-2.61,9.71-4.1,3.14-1.55,6.56-2.93,9.62-4.53,1.51-.82,3.13-1.52,4.65-2.27,1.53-.75,2.99-1.51,4.39-2.29,2.91-1.45,5.61-2.87,7.94-4.35,2.46-1.33,4.57-2.7,6.25-4.06,.83-.7,2.22-1.75,3.96-3.34,.85-.77,1.83-1.66,2.93-2.67,1.1-.92,2.33-1.95,3.68-3.07,2.59-2.35,5.83-4.61,9.32-7.38,1.82-1.25,3.73-2.57,5.73-3.95,1.99-1.42,4.19-2.61,6.41-4.03,8.99-5.37,19.82-10.57,31.98-14.39,1.51-.55,3.06-.94,4.63-1.34,1.57-.42,3.15-.84,4.74-1.26,3.2-.77,6.48-1.32,9.81-2.02,3.33-.42,6.72-.99,10.15-1.32l5.16-.4,2.6-.2c.87-.05,1.73-.04,2.6-.06,13.9-.45,28.04,.98,41.07,3.88,13.05,2.87,24.97,7.19,34.85,11.77,2.43,1.2,4.89,2.2,7.04,3.43,2.19,1.2,4.27,2.34,6.22,3.4,3.86,2.23,7.1,4.4,9.86,6.1,5.25,3.77,8.25,5.92,8.25,5.92,0,0-2.24-2.97-6.17-8.17-2.14-2.46-4.67-5.58-7.81-8.99Z"/><path class="d" d="M1192.29,229.5c-1.51-1.53-3.12-3.17-4.82-4.89-1.69-1.76-3.63-3.4-5.6-5.24-7.95-7.2-18-15.06-29.84-22.37-11.82-7.32-25.41-14.07-39.89-19.48-14.47-5.45-29.84-9.48-44.92-11.91-15.07-2.47-29.84-3.38-43.07-3.15-3.3,.11-6.53,.13-9.62,.35-3.12,.24-6.11,.47-8.93,.68-5.68,.69-10.88,1.24-15.36,2.13-2.29,.42-4.38,.81-6.25,1.16-1.9,.41-3.62,.85-5.15,1.22-3.05,.78-5.35,1.38-6.71,1.92-2.73,1.07-5.81,2.54-9.05,4.34-3.2,1.94-6.56,4.18-9.89,6.73-6.6,5.25-13.04,11.67-17.92,18.6-2.45,3.46-4.6,6.89-6.19,10.42-1.61,3.49-2.87,6.76-3.46,10.02-1.26,6.42-.52,11.82,2.64,15.6,3.15,3.79,8.34,5.69,14.23,6.49,2.91,.35,6.19,.64,9.44,.63,3.24-.05,6.69-.09,10.07-.32,6.76-.48,13.62-1.14,19.67-2.13,3.06-.42,5.94-.91,8.49-1.54,2.62-.51,4.93-1.15,6.85-1.91,.96-.39,2.51-1.01,4.53-1.99,.98-.48,2.12-1.04,3.41-1.67,1.25-.57,2.65-1.2,4.19-1.9,2.99-1.48,6.56-2.83,10.49-4.52,1.99-.75,4.09-1.53,6.29-2.36,2.19-.84,4.53-1.52,6.93-2.34,9.64-3.09,20.92-5.89,33.18-7.68,12.25-1.82,25.45-2.59,38.64-1.98,13.2,.56,26.38,2.44,38.54,5.36,12.17,2.9,23.3,6.85,32.59,10.92,2.3,1.06,4.59,1.96,6.63,3.04,2.08,1.05,4.04,2.05,5.89,2.99,3.66,1.96,6.77,3.82,9.38,5.31,5.05,3.25,7.93,5.1,7.93,5.1,0,0-2.15-2.7-5.93-7.43-2.02-2.26-4.44-5.09-7.38-8.22Z"/><path class="d" d="M4624.35,164.45c-4.72-2.07-13.55,8.15-27.84,22.1-14.14,14.07-34.38,31.48-59.46,45.66-12.5,7.12-26.07,13.55-40.1,18.99-14.02,5.46-28.56,9.78-42.77,13.18-28.46,6.84-55.7,9.39-76.28,10.31-1.29,.07-2.77,.15-4.45,.24-1.67,.05-3.54,.11-5.6,.18-4.11,.2-8.95,.18-14.49,.22-2.76-.05-5.7-.11-8.8-.17-3.18-.19-6.52-.39-10.04-.6-3.51-.24-7.19-.32-11.03-.7-3.84-.4-7.83-.81-11.98-1.24-33.2-3.44-76.16-12.84-124.79-29.44-24.32-8.27-50.04-18.28-76.83-29.51-26.81-11.21-54.65-23.63-83.52-36.34-28.89-12.7-58.79-25.57-89.59-37.45-30.82-11.84-62.61-22.58-95-30.96-32.37-8.36-65.36-14.43-98.11-16.53-32.68-2.25-65.09-.67-95.5,4.46-30.44,5.09-58.96,13.49-84.84,23.78-25.85,10.46-48.96,22.94-69.22,35.8-5.01,3.32-9.95,6.48-14.69,9.71-4.6,3.42-9.09,6.75-13.47,10-1.09,.81-2.18,1.62-3.25,2.42l-1.61,1.2-1.53,1.28c-2.03,1.7-4.04,3.38-6.01,5.03-3.93,3.32-7.82,6.45-11.43,9.65-3.52,3.31-6.92,6.51-10.2,9.6-1.3,1.23-2.58,2.43-3.84,3.62,1.26-10.34,1.39-20.52,.69-30.37-.11-1.6-.22-3.2-.33-4.79-.21-1.58-.42-3.16-.63-4.72-.22-1.57-.44-3.13-.66-4.68l-.34-2.32-.48-2.29c-.66-3.05-1.32-6.06-1.97-9.04-.82-2.95-1.71-5.86-2.57-8.75-.79-2.9-1.95-5.67-3-8.45-1.09-2.76-2.06-5.52-3.39-8.13-1.28-2.63-2.54-5.23-3.78-7.79-1.38-2.51-2.86-4.94-4.28-7.36-.73-1.2-1.44-2.39-2.16-3.57-.81-1.14-1.61-2.27-2.4-3.39-1.6-2.24-3.18-4.44-4.79-6.59-1.76-2.05-3.5-4.06-5.21-6.04-.87-.98-1.72-1.95-2.58-2.92-.88-.94-1.84-1.81-2.75-2.7-1.86-1.76-3.68-3.48-5.47-5.17-.88-.86-1.83-1.63-2.79-2.38-.96-.75-1.9-1.49-2.84-2.23-1.9-1.45-3.75-2.87-5.57-4.26-1.98-1.33-3.96-2.62-5.9-3.85-7.83-4.77-15.39-8.08-22.2-10.45-13.67-4.74-24.32-5.96-30.84-6.48-13.08-.99-28.28,.15-44.07,4.84-15.73,4.66-32.23,12.96-46.44,26.07-7.07,6.55-13.46,14.32-18.58,22.98-.63,1.09-1.28,2.16-1.88,3.27-.57,1.12-1.14,2.25-1.71,3.37-1.17,2.23-2.11,4.58-3.07,6.9l-.71,1.75-.65,1.88c-.41,1.25-.83,2.51-1.25,3.76-.78,2.52-1.34,5.08-1.95,7.62-2.09,10.22-2.21,20.43-.91,29.93,1.3,9.51,3.99,18.34,7.55,26.31,7.16,15.95,17.74,28.55,29.28,37.44,11.56,8.91,24.15,14,35.05,15.5,1.34,.24,2.69,.34,4,.43,1.31,.07,2.55,.2,3.79,.18,2.48-.07,4.76-.08,6.91-.45,1.07-.15,2.09-.32,3.06-.49,.97-.19,1.9-.48,2.78-.72,1.76-.49,3.32-1.03,4.68-1.72,1.36-.66,2.54-1.27,3.51-1.97,.97-.73,1.75-1.43,2.35-2.12,1.19-1.38,1.65-2.67,1.43-3.88-.94-5.04-12.17-6.9-23.27-15.46-5.59-4.19-11.25-10.05-15.98-17.45-4.72-7.37-8.41-16.44-9.79-25.59-1.44-9.15-.34-18.07,2.73-24.47,.47-.77,.79-1.58,1.25-2.32,.24-.36,.47-.72,.69-1.09l.32-.55,.43-.6c.58-.8,1.07-1.63,1.72-2.36l.89-1.14c.31-.37,.66-.72,.97-1.08,2.57-2.86,5.51-5.38,8.78-7.56,6.56-4.33,14.37-7.25,21.96-8.75,7.6-1.53,14.9-1.71,20.93-1.24,3.01,.22,7.93,.62,13.88,2.3,2.98,.82,6.18,1.99,9.39,3.64,.79,.43,1.59,.88,2.42,1.33,.86,.61,1.74,1.21,2.66,1.82,.46,.3,.93,.6,1.4,.91,.48,.29,.96,.6,1.38,1,.88,.75,1.8,1.51,2.74,2.26,.47,.39,.97,.73,1.43,1.16,.44,.45,.88,.9,1.33,1.36,.9,.91,1.84,1.82,2.81,2.73,.87,1.04,1.75,2.1,2.64,3.18,.46,.53,.92,1.07,1.39,1.61,.41,.6,.82,1.2,1.24,1.81,.85,1.22,1.71,2.45,2.59,3.7,.76,1.35,1.55,2.72,2.36,4.1,.89,1.33,1.49,2.89,2.23,4.39,.7,1.52,1.55,3,2.09,4.67,.63,1.63,1.26,3.28,1.91,4.95,.51,1.74,1.03,3.49,1.56,5.26l.41,1.34,.29,1.38c.2,.92,.4,1.85,.6,2.78,.21,.93,.42,1.87,.64,2.82,.13,.96,.26,1.93,.4,2.9,1.18,7.74,1.58,16.04,.64,24.41-1.6,16.36-8.43,34.56-20.21,51.18-11.75,16.69-28.48,31.98-48.32,43.86-19.74,11.85-42.9,20.48-67.27,24.97-24.39,4.63-50.13,5.21-75.64,2.48-25.53-2.71-50.82-8.84-74.88-17.24-24.1-8.46-46.82-19.29-67.9-31.72-42.32-24.69-77.88-54.26-106.97-80.7-7.1-6.47-13.83-12.77-20.18-18.83-5.75-14.08-12.76-27.77-20.88-40.9-16.11-26.02-36.68-49.73-60.43-69.67-23.72-19.98-50.45-36.4-78.72-48.45-28.28-12.02-58.06-19.73-87.64-22.74-14.79-1.51-29.53-1.87-43.97-1.05-14.45,.82-28.58,2.8-42.17,5.74-27.2,5.89-52.22,15.55-74.27,27.28-22.06,11.77-41.23,25.49-57.36,39.67-8.04,7.13-15.39,14.3-22,21.44-1.66,1.77-3.22,3.6-4.8,5.36-1.58,1.76-3.12,3.51-4.56,5.31-1.46,1.77-2.91,3.51-4.33,5.23-1.36,1.76-2.7,3.5-4.02,5.21-10.51,13.69-18.26,26.54-24.06,37.34-5.85,10.79-9.48,19.69-12.05,25.67-2.33,6.09-3.56,9.32-3.56,9.32,0,0,1.49-3.12,4.29-8.99,3.03-5.75,7.33-14.28,13.96-24.45,6.57-10.19,15.19-22.17,26.5-34.69,1.41-1.56,2.85-3.15,4.31-4.76,1.51-1.56,3.05-3.14,4.61-4.75,1.54-1.62,3.16-3.21,4.83-4.79,1.67-1.58,3.31-3.23,5.06-4.82,6.95-6.4,14.59-12.75,22.85-18.98,16.57-12.38,35.89-23.98,57.53-33.41,21.64-9.41,45.67-16.52,71-19.94,25.32-3.47,51.88-3.01,78.2,1.83,26.32,4.78,52.31,13.74,76.46,26.29,24.14,12.57,46.38,28.78,65.45,47.52,19.11,18.71,34.88,40.1,46.54,62.57,11.67,22.46,19.31,46.07,22.37,68.63,3.11,22.57,1.48,43.95-4.07,62.17-2.69,8.88-6.42,17.07-10.81,24.52-4.41,7.42-9.34,14.16-14.76,19.78-1.24,1.52-2.74,2.73-4.06,4.08-.67,.66-1.34,1.32-2.01,1.97-.68,.63-1.41,1.19-2.1,1.78-1.41,1.15-2.73,2.38-4.13,3.44-1.41,1.03-2.81,2.04-4.18,3.03-5.61,3.71-11.01,6.89-16.27,8.88-2.56,1.24-5.15,1.87-7.56,2.73-1.19,.48-2.42,.65-3.59,.94-1.17,.28-2.31,.56-3.43,.84-2.26,.36-4.4,.61-6.42,.97-.94,.07-1.85,.14-2.74,.2-.89,.05-1.77,.03-2.61,.07-6.79,0-12.09-.97-15.34-1.67-6.51-1.38-14.18-3.74-21.91-7.76-7.71-3.98-15.4-9.6-21.53-16.5-3.03-3.46-5.66-7.21-7.8-11.19-.57-.99-.97-2.02-1.51-3.03-.4-1.04-.9-2.07-1.27-3.13-.34-1.07-.81-2.12-1.06-3.22l-.48-1.64-.35-1.5c-2-7.88-1.04-17.67,2.48-27.1,3.5-9.44,9.49-18.18,16.16-24.99,6.69-6.86,14.1-11.82,20.99-15.05,13.77-6.7,25.79-6.4,27.51-11.27,.41-1.16,.12-2.53-.92-4.1-.52-.79-1.23-1.63-2.12-2.51-.92-.82-2.03-1.66-3.35-2.55-5.22-3.4-14.06-6.77-25.58-7-5.72-.14-12.08,.39-18.68,1.95-6.6,1.55-13.46,4.02-20.27,7.49-13.58,6.95-27.05,17.83-37.56,32.93-5.24,7.55-9.73,16.15-12.92,25.69-3.22,9.51-4.97,20.05-4.81,30.86,.03,1.34,.04,2.72,.11,4.04,.1,1.29,.21,2.58,.31,3.87,.17,2.59,.62,5.14,.99,7.71,.41,2.56,1.01,5.08,1.56,7.61,.69,2.48,1.31,5.01,2.14,7.43,3.19,9.79,7.7,18.96,13.08,27.21,10.84,16.48,24.9,29.18,39.34,38.24,14.48,9.1,29.46,14.59,42.94,17.41,6.72,1.38,17.87,3.14,33.05,2.28,1.9-.15,3.85-.27,5.86-.5,2.01-.26,4.1-.51,6.19-.84,4.03-.81,8.29-1.63,12.68-2.69,2.16-.65,4.36-1.31,6.62-1.98,2.24-.71,4.57-1.34,6.81-2.3,4.51-1.81,9.28-3.58,13.85-6.02,9.42-4.47,18.61-10.57,27.67-17.62,2.19-1.84,4.42-3.71,6.67-5.6,2.21-1.93,4.27-4.05,6.44-6.12,1.06-1.05,2.17-2.08,3.21-3.18,1.01-1.12,2.03-2.24,3.05-3.38,2-2.3,4.18-4.51,6.04-7,7.94-9.6,14.89-20.57,20.88-32.56,5.94-11.99,10.8-25.19,13.92-39.21,3.07-13.77,4.58-28.19,4.49-42.76-.03-5.06-.26-10.14-.67-15.22,0,.05,.02,.1,.02,.15,.41,2.74,1.08,5.56,1.66,8.55,2.48,11.93,6.23,25.86,11.68,40.58,5.43,14.72,12.56,30.22,21.17,45.31,2.09,3.82,4.46,7.46,6.71,11.22,2.32,3.7,4.78,7.31,7.19,10.97,2.54,3.54,5.03,7.13,7.64,10.59,2.67,3.4,5.22,6.9,7.96,10.16,10.79,13.23,22.27,25.03,33.18,34.86,2.76,2.41,5.39,4.84,8.05,7.01,2.69,2.19,5.26,4.28,7.69,6.27,5.06,3.81,9.63,7.35,13.84,10.12,2.13,1.43,4.07,2.74,5.82,3.92,1.81,1.15,3.48,2.15,4.97,3.04,2.98,1.77,5.23,3.1,6.71,3.76,2.94,1.34,6.45,2.66,10.34,3.89,3.95,1.11,8.27,2.15,12.8,2.96,9.13,1.49,19.05,2.13,28.28,1.32,4.61-.39,9-.99,13.07-2.05,4.05-1.03,7.68-2.17,10.82-3.81,6.26-3.15,10.26-7.17,11.08-12.03,.82-4.86-1.55-10.1-5.56-15.2-2.02-2.5-4.4-5.24-7.06-7.78-2.67-2.51-5.56-5.18-8.57-7.7-6.05-5.01-12.46-10.01-18.5-14.18-3-2.16-5.89-4.13-8.64-5.76-2.7-1.75-5.24-3.18-7.52-4.21-1.15-.5-3-1.34-5.54-2.3-1.24-.47-2.68-1.01-4.29-1.61-1.54-.62-3.26-1.32-5.14-2.08-3.76-1.41-7.92-3.34-12.63-5.33-2.3-1.08-4.73-2.22-7.26-3.41-2.54-1.18-5.08-2.57-7.79-3.92-10.69-5.56-22.51-12.59-34.39-21.06-11.9-8.44-23.82-18.35-34.79-29.23-11-10.85-21.09-22.61-29.67-34.34-8.6-11.72-15.66-23.39-21.14-33.75-1.32-2.6-2.72-5.07-3.83-7.49-1.14-2.42-2.23-4.72-3.25-6.87-1.96-4.35-3.52-8.21-4.87-11.38-2.42-6.44-3.8-10.12-3.8-10.12,0,0,.24,3.22,.67,8.9-.4-2.19-.82-4.38-1.29-6.56-1.47-6.9-3.26-13.75-5.35-20.54,1.49,1.63,3,3.27,4.54,4.93,13.54,14.59,28.68,30.11,45.7,45.74,17.01,15.61,35.92,31.32,56.91,46.04,41.83,29.69,93.15,54.37,149.65,65.26,28.2,5.39,57.67,7.26,86.94,4.16,29.27-2.99,58.09-10.91,84.51-23.96,26.28-13.02,49.91-30.96,68.38-53.1,18.46-22.11,31.49-48.32,36.52-75.86,.09-.47,.16-.94,.24-1.41,2.71-2.51,5.71-4.89,8.77-7.4,3.44-2.81,7-5.71,10.69-8.72,3.77-2.89,7.81-5.69,11.89-8.67,2.04-1.48,4.12-2.98,6.22-4.5l1.58-1.14,1.66-1.06c1.11-.71,2.23-1.42,3.35-2.14,4.49-2.86,9.1-5.8,13.82-8.82,4.84-2.81,9.87-5.55,14.96-8.43,20.57-11.1,43.72-21.55,69.18-29.83,25.5-8.11,53.19-14.17,82.18-16.95,28.99-2.82,59.13-2.17,89.56,2.03,30.43,4.07,60.95,11.9,90.99,21.89,30.05,10.02,59.64,22.3,88.57,35.72,28.93,13.47,57.24,27.97,84.98,42.44,27.75,14.49,55.05,28.9,81.8,42.2,26.74,13.31,52.97,25.54,78.37,36.01,50.74,21.01,98.3,34.65,136.51,40.75,4.78,.75,9.39,1.47,13.81,2.17,4.43,.67,8.75,1.02,12.85,1.5,4.11,.44,8.03,.85,11.74,1.25,3.82,.25,7.43,.48,10.82,.7,6.8,.26,12.77,.49,17.82,.4,2.53-.02,4.83-.04,6.89-.06,2.06-.09,3.88-.17,5.47-.23,12.65-.6,27.25-2.17,42.9-5.19,15.65-3,32.34-7.45,49.12-13.5,16.77-6.07,33.65-13.66,49.55-22.89,15.91-9.2,30.87-19.89,43.99-31.47,13.15-11.54,24.33-24.09,33.19-36.36,8.85-12.28,15.43-24.25,19.69-34.79,1.16-2.58,2.01-5.17,2.85-7.58,.8-2.43,1.61-4.68,2.14-6.89,1.07-4.42,1.91-8.19,2.17-11.45,.51-6.52-.31-10.44-2.56-11.43Z"/><path class="d" d="M2634.78,132.9c2,1.38,3.92,2.7,5.73,3.95,3.5,2.77,6.74,5.04,9.32,7.38,1.35,1.12,2.57,2.15,3.68,3.07,1.11,1.01,2.08,1.9,2.93,2.67,1.74,1.58,3.13,2.64,3.96,3.34,1.68,1.36,3.79,2.72,6.25,4.06,2.33,1.48,5.04,2.9,7.94,4.35,1.4,.78,2.87,1.54,4.39,2.29,1.52,.75,3.14,1.45,4.65,2.27,3.06,1.59,6.48,2.98,9.62,4.53,3.22,1.48,6.6,2.8,9.71,4.1,3.15,1.26,6.46,2.22,9.36,3.04,5.94,1.55,11.59,1.78,15.88-.65,4.29-2.43,6.77-7.4,7.59-14.23,.48-3.46,.24-7.15-.25-11.23-.45-4.12-1.56-8.32-2.95-12.68-1.31-4.43-3.31-8.65-5.38-12.96-1.02-2.17-2.23-4.18-3.45-6.2-1.22-2.01-2.49-3.98-3.77-5.9-2.67-3.72-5.5-7.13-8.23-10.19-2.85-2.91-5.63-5.44-8.16-7.44-1.25-1.02-3.5-2.37-6.46-4.17-1.49-.89-3.16-1.89-5.03-2.94-1.88-.95-3.97-2.02-6.26-3.18-4.45-2.35-9.84-4.49-15.66-6.93-2.96-1.05-6.08-2.15-9.35-3.31-3.23-1.14-6.72-2.01-10.23-3.05-14.17-3.84-30.49-6.5-47.54-6.75-2.12-.11-4.26-.04-6.41,.03-2.13,.07-4.28,.14-6.44,.2-4.3,.23-8.6,.74-12.88,1.13-4.27,.68-8.54,1.24-12.75,2.07l-6.28,1.37-3.12,.69c-1.03,.25-2.05,.56-3.08,.84-16.4,4.38-31.65,10.84-44.78,18.26-13.15,7.41-24.16,15.76-32.77,23.51-2.12,1.99-4.23,3.74-6.04,5.66-1.82,1.87-3.54,3.65-5.16,5.32-3.14,3.4-5.68,6.53-7.81,8.99-3.93,5.21-6.17,8.17-6.17,8.17,0,0,2.99-2.15,8.25-5.92,2.75-1.71,6-3.87,9.86-6.1,1.95-1.07,4.03-2.21,6.22-3.4,2.15-1.23,4.61-2.24,7.04-3.43,9.88-4.58,21.8-8.91,34.85-11.77,13.04-2.89,27.17-4.33,41.07-3.88,.87,.02,1.73,.01,2.6,.06l2.6,.2,5.16,.4c3.42,.33,6.81,.91,10.15,1.32,3.32,.71,6.61,1.25,9.81,2.02,1.59,.42,3.17,.84,4.74,1.26,1.56,.4,3.11,.79,4.63,1.34,12.16,3.81,23,9.02,31.98,14.39,2.22,1.42,4.42,2.61,6.41,4.03Z"/><path class="d" d="M3698,210.03c-1.59-3.53-3.74-6.96-6.19-10.42-4.88-6.93-11.33-13.35-17.92-18.6-3.33-2.55-6.7-4.8-9.89-6.73-3.24-1.8-6.32-3.28-9.05-4.34-1.36-.54-3.66-1.14-6.71-1.92-1.53-.38-3.24-.81-5.15-1.22-1.87-.35-3.96-.73-6.25-1.16-4.48-.89-9.69-1.44-15.36-2.13-2.83-.22-5.81-.45-8.93-.68-3.09-.23-6.32-.24-9.62-.35-13.23-.23-28,.68-43.07,3.15-15.08,2.43-30.45,6.46-44.92,11.91-14.49,5.41-28.08,12.16-39.89,19.48-11.84,7.3-21.89,15.17-29.84,22.37-1.96,1.84-3.91,3.48-5.6,5.24-1.7,1.72-3.31,3.35-4.82,4.89-2.95,3.12-5.36,5.96-7.38,8.22-3.78,4.73-5.93,7.43-5.93,7.43,0,0,2.88-1.85,7.93-5.1,2.62-1.48,5.73-3.35,9.38-5.31,1.85-.94,3.81-1.93,5.89-2.99,2.04-1.08,4.34-1.98,6.63-3.04,9.29-4.08,20.42-8.03,32.59-10.92,12.16-2.92,25.35-4.8,38.54-5.36,13.19-.61,26.4,.16,38.64,1.98,12.25,1.79,23.54,4.59,33.18,7.68,2.4,.83,4.73,1.51,6.93,2.34,2.2,.82,4.3,1.61,6.29,2.36,3.93,1.69,7.5,3.05,10.49,4.52,1.53,.69,2.93,1.33,4.19,1.9,1.29,.63,2.43,1.19,3.41,1.67,2.02,.98,3.58,1.6,4.53,1.99,1.92,.76,4.23,1.41,6.85,1.91,2.55,.64,5.43,1.12,8.49,1.54,6.04,.99,12.91,1.64,19.67,2.13,3.38,.23,6.83,.27,10.07,.32,3.26,.01,6.53-.29,9.44-.63,5.89-.8,11.08-2.7,14.23-6.49,3.15-3.79,3.9-9.18,2.64-15.6-.59-3.26-1.85-6.52-3.46-10.02Z"/></g></g></g></svg>