<svg xmlns="http://www.w3.org/2000/svg" xmlns:xlink="http://www.w3.org/1999/xlink" viewBox="0,0,256,256" width="24px" height="24px" fill-rule="nonzero"><g fill="#06080f" fill-rule="nonzero" stroke="none" stroke-width="1" stroke-linecap="butt" stroke-linejoin="miter" stroke-miterlimit="10" stroke-dasharray="" stroke-dashoffset="0" font-family="none" font-weight="none" font-size="none" text-anchor="none" style="mix-blend-mode: normal"><g transform="scale(10.66667,10.66667)"><path d="M11.64258,2.00781c-3.96093,0.18962 -7.14258,3.48175 -7.14258,7.49219c0,2.48721 1.38049,4.45097 2.66992,6.26953c1.28943,1.81857 2.51096,3.52435 2.77539,5.42969c0.13968,1.01176 1.01636,1.80078 2.05273,1.80078h0.00391c1.0208,0 1.91331,-0.7609 2.05078,-1.78516c0.29388,-2.16366 1.83787,-4.0672 3.28516,-6.17187c1.44729,-2.10468 2.77988,-4.59536 1.83789,-7.60352c-0.93085,-2.97347 -3.56537,-5.24361 -6.73047,-5.42773c-0.27027,-0.01564 -0.53867,-0.01655 -0.80273,-0.00391zM11.73633,4.00586c0.03471,-0.0016 0.07059,0.00096 0.10547,0l-1.99805,2.35352l-1.25781,-1.17773c0.8719,-0.6889 1.95854,-1.12082 3.15039,-1.17578zM14.0918,4.44922c1.2315,0.54315 2.26132,1.54343 2.86328,2.79688l-1.18359,1.40234c-0.16428,-0.49567 -0.41091,-0.96716 -0.77344,-1.375c-0.55143,-0.62036 -1.39283,-0.98878 -2.33789,-1.13867zM7.26953,6.68945l1.2793,1.19531l-1.98437,2.33594c-0.03857,-0.23855 -0.06445,-0.47777 -0.06445,-0.7207c0,-1.02939 0.28288,-1.98868 0.76953,-2.81055zM12,8c0.75,0 1.18523,0.24524 1.50195,0.60156c0.31673,0.35632 0.49805,0.87066 0.49805,1.39844c0,0.48583 -0.18759,0.93687 -0.45898,1.28711l-0.12109,0.14453c-0.31227,0.32499 -0.71094,0.56836 -1.41992,0.56836c-0.75,0 -1.18523,-0.24524 -1.50195,-0.60156c-0.31673,-0.35632 -0.49805,-0.87066 -0.49805,-1.39844c0,-0.47705 0.1889,-0.9154 0.45117,-1.26367l0.14648,-0.17578c0.31125,-0.31827 0.70228,-0.56055 1.40234,-0.56055zM17.5,9.70117c-0.05285,1.46036 -0.803,2.74379 -1.81055,4.20898c-1.37071,1.99332 -3.22602,4.14277 -3.61914,7.03711c-0.00453,0.03374 -0.02316,0.05273 -0.06836,0.05273h-0.00391c-0.04562,0 -0.06395,-0.01398 -0.07227,-0.07422v-0.00195c-0.1681,-1.21124 -0.59838,-2.28807 -1.13672,-3.28125l4.07031,-4.81641c0.03897,-0.03982 0.10188,-0.05822 0.13867,-0.09961c0.05685,-0.06396 0.07316,-0.14801 0.125,-0.21484zM8.22852,11.34961c0.16425,0.49635 0.41046,0.96861 0.77344,1.37695c0.55533,0.62474 1.40362,0.99588 2.35742,1.14258l-1.67969,1.99023c-0.29367,-0.42623 -0.59235,-0.8439 -0.87891,-1.24805c-0.55248,-0.7792 -1.03953,-1.51659 -1.43555,-2.24609z"></path></g></g></svg>