<svg fill="#1A1A1A" xmlns="http://www.w3.org/2000/svg"  viewBox="0 0 50 50" width="50px" height="50px"><path d="M 14 4.9902344 C 9.029 4.9902344 5 9.0192344 5 13.990234 L 5 35.990234 C 5 40.961234 9.029 44.990234 14 44.990234 L 36 44.990234 C 40.971 44.990234 45 40.961234 45 35.990234 L 45 13.990234 C 45 9.0192344 40.971 4.9902344 36 4.9902344 L 14 4.9902344 z M 25.96875 13 C 32.05175 13 37 18.058391 37 24.275391 C 37 28.073391 35.077562 31.642891 31.976562 33.712891 C 31.985563 33.808891 32 33.902 32 34 C 32 35.656 30.656 37 29 37 C 27.907 37 26.960547 36.409156 26.435547 35.535156 C 26.280547 35.542156 26.12875 35.552734 25.96875 35.552734 C 24.94075 35.552734 24.042656 35.52475 23.222656 35.46875 L 23.105469 35.46875 C 22.591469 36.37975 21.621 37 20.5 37 C 18.925 37 17.647437 35.782234 17.523438 34.240234 C 15.211438 33.224234 13.620359 31.568359 12.568359 29.068359 C 12.438359 28.759359 12.47125 28.407906 12.65625 28.128906 C 12.84125 27.849906 13.153281 27.681641 13.488281 27.681641 C 14.543281 27.681641 14.935547 26.758344 14.935547 24.277344 C 14.935547 18.059344 19.88575 13 25.96875 13 z M 25.96875 15 C 20.98875 15 16.935547 19.160391 16.935547 24.275391 C 16.935547 25.506391 16.936312 28.436859 14.945312 29.380859 C 15.702312 30.701859 16.716641 31.618578 18.056641 32.267578 C 18.600641 31.503578 19.49 31 20.5 31 C 21.978 31 23.199266 32.071516 23.447266 33.478516 C 24.199266 33.528516 25.02275 33.552734 25.96875 33.552734 C 26.19075 33.552734 26.407094 33.544344 26.621094 33.527344 C 28.027094 33.424344 29.39775 32.981094 30.59375 32.246094 C 33.35375 30.553094 35 27.573391 35 24.275391 C 35 19.160391 30.94875 15 25.96875 15 z M 23.925781 20 C 24.601781 20 25.148438 20.547656 25.148438 21.222656 C 25.148438 21.897656 24.600781 22.445312 23.925781 22.445312 C 23.250781 22.445312 22.703125 21.897656 22.703125 21.222656 C 22.703125 20.547656 23.249781 20 23.925781 20 z M 30.777344 20 C 31.452344 20 32 20.547656 32 21.222656 C 32 21.897656 31.452344 22.445312 30.777344 22.445312 C 30.102344 22.445312 29.554688 21.897656 29.554688 21.222656 C 29.554688 20.547656 30.101344 20 30.777344 20 z M 23.746094 25.234375 C 24.134266 25.226453 24.506281 25.445312 24.675781 25.820312 C 24.712781 25.898312 25.464547 27.435547 27.435547 27.435547 C 29.453547 27.435547 30.186359 25.844125 30.193359 25.828125 C 30.417359 25.323125 31.009672 25.095313 31.513672 25.320312 C 32.018672 25.543313 32.244531 26.135625 32.019531 26.640625 C 31.968531 26.754625 30.738547 29.435547 27.435547 29.435547 C 24.132547 29.435547 22.902562 26.754625 22.851562 26.640625 C 22.627562 26.135625 22.854375 25.544312 23.359375 25.320312 C 23.485625 25.264563 23.616703 25.237016 23.746094 25.234375 z"/></svg>