<?xml version="1.0" encoding="UTF-8"?><svg id="a" xmlns="http://www.w3.org/2000/svg" viewBox="0 0 7.64 558.13"><defs><style>.b{fill:#333;}</style></defs><path class="b" d="M4.16,1.39c-.08,.84-.12,1.78-.13,2.81,0,.96,.06,1.68,.11,2.48,.02,1.54-.1,.85-.19,.85-.23-.57-.4,.28-.51,1.9-.13,1.83-.29,3.55-.37,5.59-.03,2.22-.2,3.74-.37,5.25-.03,.31-.05,.65-.07,1-.08,1.3-.11,2.66-.12,4.12,.07,2.36-.13,5.08,.04,7.07,.39,4.6,.52,10.22,.9,14.79,.07,.99,.17,1.88,.21,3,.02,.36,.04,.71,.06,1.07,.07,1.74,.14,3.5,.22,5.23,.24,5.19,.2,10.62,.18,16.03,0,1.2-.06,2.34-.21,2.65-.11,.24-.11-.82-.15-1.42-.13-3.52,.04-7.43-.19-10.85-.57-8.58-1.22-16.66-2-24-.45-2.17-.62,1.34-.87,3.08-.15,1.56-.17,3.34-.12,5.23,.03,1.17,.11,2.25,.13,3.35,0-.29-.01-.58-.07-.81-.23,.8-.19,2.58-.21,4.13v1.39c.02,1.67-.03,3.26-.08,4.83-.04,2.74-.01,5.48-.03,8.22-.06,2.36-.09,4.73-.1,7.17-.02,11.07,.09,22.16-.1,33.19,0,1,0,2.01,.03,3,.11,4.33,.12,8.67,0,13-.03,.41-.05,.85-.05,1.31,.09,4.37-.17,8.63-.05,13,.07,1.48,.07,3.04,.08,4.6,0,1.74,.03,3.44,.27,4.12,.19,.16,.24,1.21,.23,2.62,.04,.68,.1,1.16,.16,1.71,.07,.73,.08,1.68,.12,2.51,.02,.34,.05,.65,.08,.91,.08,.46,.17,.76,.25,.01,.15-1.67,.03-3.78,.13-5.52,0-.64,0-1.23-.04-1.8v-.23c.09,1.38,.08,2.92,.1,4.42,0,.38,.02,.74,.05,1.07,.14,1.11,.21,2.51,.24,4.06h-.19c-.3,1.67-.31,4.24-.31,6.85,.01,.4,.03,.79,.05,1.15,.14,1.3,.11,2.81,.08,4.31,.21,2.64-.13,3.51-.23,5.16-.04,.98-.04,2.01-.04,3.03-.05,2.51,.13,4.46,.23,6.63l.02,.28s.01,.21-.01-.12c-.14-3.2-.28-1.51-.38,.12-.14,2.2,.03,6.72,.27,8.5,.25,1.8,.48,3.72,.25,6.79-.07,.46-.15,.87-.14,1.78,.02,.24,.05,.39,.07,.57-.04-.25-.08-.51-.11-.8-.04-.19-.09-.31-.13-.34-.39,.64-.52,2.26-.28,5.25,.08,1.04,.13,2.24,.21,3.33,.05,.81,.13,1.49,.16,2.42,0,.47,.07,.84,.03,1.43,0-.59-.06-1.05-.11-1.48-.04-.17-.08-.22-.13-.12-.04,.23-.06,.52-.08,.87-.04,1,0,2.18-.12,2.99-.03,.29-.05,.61-.07,.96,.2,1.8,.16,4.33,.27,6.39,.08,1.31,.4,1.42,.32,3.27-.12,2.75-.02,4.92,.14,7.11,0,2.59-.13,5.28,.07,7.76,.12,1.1,.28,1.96,.38,3.23,.16,1.55,0,3.43,.08,5.06,.03,2.87,.03,5.8,.21,8.38,.11,1.38,.06,2.85,.04,4.31,0,1.27,.09,2.08,.2,2.78,.08,.48,.17,.93,.12,1.96-.02,1.42-.2,1.17-.29,2-.05,1.95-.32,2.85-.33,5.01,0,.8,.02,1.54,.07,2.25,.13,2.41-.05,4.47-.11,6.65-.03,1-.04,2.02-.04,3.06,0,.62,0,1.22,.02,1.84,.02,1.5,.15,2.49,.26,3.64-.17,.29-.34,.24-.47,1.32-.09,2.36,.08,4.33,.16,6.32,.11,2.62-.01,3.29-.27,3.58-.06,1.48-.16,2.77-.22,4.24,0,1.05,.04,1.95,.12,2.74,.21,1.4,.11,4,.25,5.34,.19,1.78-.07,1.82-.09,2.7-.02,.77,0,1.46,.06,2.09,.12,1.13,0,2.35,.02,3.5,.04,1.79,.15,3.38,.24,5.05,.01,.39,.04,.96-.03,.99-.09,.05-.12-.86-.18-1.25-.04-.24-.08-.38-.13-.41-.11,.06-.18,.65-.22,1.49-.03,.82-.04,1.66-.03,2.51,0,1.04,.04,2.02,.12,2.83,.07,.67,.19,1.1,.15,2.28-.09,1.32-.18,2.66-.17,4.27,0,1.36,.06,2.54,.22,3.09,.23,.76,.21,2.36,.19,3.95,0,.61,.01,1.2,.04,1.77,.06,1.71,.4,1.86,.34,4.13,0-1.78-.14-2.49-.35-2.46-.13,.22-.21,.86-.25,1.93,.02,1.57-.07,2.99-.09,4.5,0,.39,.03,.74,.05,1.08,.07,.77,.11,1.73,.2,2.36,.1,.77,.24,.71,.41,1.26-.15,.51-.28,.76-.35,1.71-.03,.61-.02,1.19,.02,1.74,.15,1.8,.49-.13,.61,2.2-.01,.35-.02,.71-.02,1.09,.09,3.32-.27,3.51-.47,4.88-.03,.33-.04,.69-.05,1.08-.01,2.17-.44,2.34-.34,5.02,0,.76,.09,1.69-.06,2.12-.19,.47-.38-.02-.58,.08-.04,.11-.08,.28-.12,.54-.05,2.4,.05,4.87-.05,7.24-.01,1.02,.02,1.97,.05,2.94,.05,1.44,.13,2.59,.33,2.57,.04-.06,.08-.16,.12-.34,.06-.35,.13-.69,.15,.29,0,.87,.01,1.78-.05,2.6-.11,.91-.19,0-.28-.22-.05-.11-.09-.13-.14-.08-.24,.98-.11,2.24-.03,3.34,.08,1.15,.23,1.94,.29,3.24,.07,1.62,.2,2.77,.4,3.31,.05,.11,.09,.19,.14,.22,.07,.04,.13,.02,.2-.08,.03-.07,.06-.15,.09-.25-.02,.65-.11,.93-.13,1.63-.02,.54-.03,1.11-.03,1.68,.01,.96-.03,1.79-.1,2.51-.09,1.1-.21,1.97-.29,3.15-.05,1.15-.03,2.36-.03,3.55-.04,1.83-.05,3.69-.06,5.56,.01,5.76-.04,11.44-.32,16.8,.02,.38,.05,.65,.09,.85,.08,.36,.18-.39,.26,.25-.08,.54-.17,.91-.25,1.5-.09,.67-.17,1.4-.22,2.31-.07,1.51-.15,3.01,0,4.54,.08,.63,.19,.88,.23,1.83,.03,1.07-.02,2.09-.02,3.16,.01,.94,.05,1.82,.1,2.64,.06,.84,.12,1.57,.22,2.13,.09,.45,.18,1.07,.28,1.33,.25,.41,.14,2.82,.3,3.72,.11,1.36-.07,1.53-.13,2.24-.03,.25-.05,.52-.07,.84-.02,.34-.03,.73-.09,.85-.09-.94,.07-2.3-.07-3.2-.17-.77-.33-.46-.49,.24-.04,.23-.08,.5-.11,.82-.09,1.14,.05,3.74-.29,3.28-.09,.41-.14,1.05-.16,1.88,0,.79,.03,1.49,.06,2.19,.06,.94,0,1.68-.05,2.48,0,1.05-.03,2.06-.07,3.01,.09,1.77,.46,.18,.47,2.82,.22,2.16,0,3.91-.07,5.82-.08,1.38-.21,.77-.33,.77-.1,.17-.18,.65-.22,1.49-.02,.67-.02,1.32,.02,1.95,.18,1.93,.42,1.53,.66,1.22,.05-.15,.09-.33,.14-.58,.13-.39,.16-3.26,.4-1.21,.08,1.04,.15,2.28,.33,2.45,.3,.29,.26,1.66,.14,3.24-.07,.46-.13,.92-.2,1.43-.03,.25-.06,.52-.08,.8-.08,.85-.22,1.14-.29,2.11-.11,1.3,.02,2.97-.09,4.31-.14,.8-.06-.29-.08-.57,0-.35,0-.71-.02-1.05-.05-.92-.14-1.56-.24-2.02-.16-.58-.34-1.09-.47,.23-.14,1.37,.05,2.32,.1,3.4,.1,1.94,.07,3.33-.19,4.08-.18,.71-.34-1.21-.52-.25-.11,.99-.16,2.08-.09,3.39,.05,.48,.11,.77,.18,.97,.09,.3,.22,.34,.15,1.68-.07,.94-.19,1.6-.22,2.74,.02,1.09,.11,1.69,.21,2.26,.24,.7,.55,.73,.61,3.58,.04,.21,.08,.28,.13,.28-.07,.05-.13-.02-.19,.27-.1,1.23,.02,2.14,.07,3.16,.06,.93,.13,1.86,.16,2.92,.02,.7,0,1.44,.05,2.09,.03,.28,.06,.52,.1,.71,.23,3.14-.25,1.08-.26,2.49-.11,1.09-.15,2.23-.03,3.46,.06,.31,.11,.68,.17,.93,.64,2.78,1.17,6.3,1.26,12.85,.34,1.59,.68,3.04,1.05,.5,.08-.82,.12-1.78,.13-2.81,0-.96-.06-1.68-.11-2.48-.02-1.54,.1-.85,.19-.85,.23,.57,.4-.28,.51-1.9,.13-1.83,.29-3.55,.37-5.59,.03-2.22,.2-3.74,.37-5.25,.03-.31,.05-.65,.07-1,.08-1.3,.11-2.66,.12-4.1-.07-2.36,.13-5.09-.04-7.07-.39-4.6-.52-10.22-.9-14.79-.07-.99-.17-1.88-.21-3-.02-.36-.04-.71-.06-1.07-.07-1.74-.14-3.5-.22-5.23-.24-5.19-.2-10.62-.18-16.03,0-1.2,.06-2.34,.21-2.65,.11-.24,.11,.82,.15,1.42,.13,3.54-.04,7.43,.19,10.85,.57,8.58,1.22,16.66,2,24,.45,2.16,.62-1.34,.87-3.08,.15-1.56,.17-3.34,.12-5.23-.03-1.17-.11-2.25-.13-3.35,0,.29,.01,.58,.07,.81,.23-.8,.19-2.58,.21-4.13v-1.39c-.02-1.67,.03-3.26,.08-4.83,.04-2.74,0-5.48,.03-8.22,.06-2.36,.09-4.73,.1-7.17,.02-11.07-.09-22.16,.1-33.19,0-1,0-2.01-.03-3-.11-4.33-.12-8.67,0-13,.03-.41,.05-.85,.05-1.31-.09-4.37,.17-8.63,.05-13-.07-1.48-.07-3.04-.08-4.6,0-1.74-.03-3.44-.27-4.12-.19-.16-.24-1.21-.23-2.62-.04-.68-.1-1.16-.16-1.72-.07-.73-.08-1.68-.12-2.51-.02-.34-.05-.65-.08-.91-.08-.46-.17-.76-.25-.01-.15,1.67-.03,3.78-.13,5.52,0,.64,0,1.23,.04,1.8v.23c-.09-1.38-.08-2.92-.1-4.42,0-.38-.02-.74-.05-1.07-.14-1.11-.21-2.51-.24-4.06h.19c.3-1.67,.31-4.24,.31-6.85-.01-.4-.03-.79-.05-1.15-.14-1.3-.11-2.81-.08-4.31-.21-2.64,.13-3.51,.23-5.16,.04-.98,.04-2.01,.04-3.03,.05-2.51-.13-4.46-.23-6.63,0-.11-.01-.19-.02-.28,0,0-.01-.21,.01,.12,.14,3.2,.28,1.51,.39-.12,.14-2.2-.03-6.72-.27-8.5-.25-1.8-.48-3.72-.25-6.79,.07-.46,.15-.87,.14-1.78-.02-.24-.05-.39-.07-.57,.04,.25,.08,.51,.11,.8,.04,.19,.09,.31,.13,.34,.39-.64,.52-2.26,.28-5.25-.08-1.04-.13-2.24-.2-3.33-.05-.81-.13-1.49-.16-2.42,0-.47-.07-.84-.03-1.43,0,.59,.06,1.05,.11,1.48,.04,.17,.08,.22,.13,.12,.04-.23,.06-.52,.08-.87,.04-1,0-2.18,.12-2.99,.03-.29,.05-.61,.07-.96-.2-1.8-.16-4.35-.27-6.39-.08-1.31-.4-1.42-.32-3.27,.12-2.75,.02-4.92-.14-7.11,0-2.59,.13-5.28-.07-7.76-.12-1.1-.28-1.96-.38-3.23-.16-1.55,0-3.43-.08-5.06-.03-2.87-.03-5.8-.21-8.38-.11-1.37-.06-2.85-.04-4.31,0-1.27-.09-2.08-.2-2.78-.08-.48-.17-.93-.12-1.96,.02-1.42,.2-1.17,.29-2,.05-1.95,.33-2.85,.33-5.01,0-.8-.02-1.54-.07-2.25-.13-2.41,.05-4.47,.11-6.65,.03-1,.04-2.02,.04-3.06,0-.62,0-1.22-.02-1.84-.02-1.5-.15-2.49-.26-3.64,.17-.29,.34-.24,.46-1.33,.09-2.36-.08-4.33-.16-6.32-.11-2.62,.01-3.29,.27-3.58,.06-1.48,.16-2.77,.22-4.24,0-1.05-.04-1.95-.12-2.74-.21-1.4-.11-4-.25-5.34-.19-1.78,.07-1.82,.09-2.7,.02-.77,0-1.46-.06-2.09-.12-1.13,0-2.35-.02-3.5-.04-1.79-.15-3.38-.24-5.05-.01-.39-.04-.96,.03-.99,.09-.05,.12,.86,.18,1.25,.04,.24,.08,.38,.13,.41,.11-.06,.18-.65,.22-1.49,.03-.81,.04-1.66,.03-2.51,0-1.04-.04-2.02-.12-2.83-.07-.67-.19-1.1-.15-2.28,.09-1.32,.18-2.66,.17-4.27,0-1.36-.06-2.54-.22-3.09-.23-.76-.21-2.36-.19-3.95,0-.61-.01-1.2-.04-1.77-.06-1.71-.4-1.86-.34-4.13,0,1.78,.14,2.49,.35,2.46,.13-.22,.21-.86,.25-1.93-.02-1.57,.07-2.99,.09-4.5,0-.39-.02-.74-.05-1.08-.07-.77-.11-1.73-.2-2.36-.1-.77-.24-.71-.41-1.26,.15-.51,.28-.76,.35-1.71,.03-.61,.02-1.19-.02-1.74-.15-1.8-.49,.13-.61-2.2,.01-.35,.02-.71,.02-1.08-.09-3.32,.27-3.51,.47-4.88,.03-.33,.04-.69,.05-1.08,.01-2.17,.44-2.34,.34-5.02,0-.76-.09-1.69,.06-2.12,.19-.47,.38,.02,.58-.08,.04-.11,.08-.28,.12-.54,.04-2.4-.05-4.87,.05-7.24,.01-1.02-.02-1.97-.05-2.94-.05-1.44-.13-2.59-.33-2.57-.04,.06-.08,.16-.12,.34-.06,.35-.13,.69-.15-.29,0-.87-.01-1.78,.05-2.6,.11-.91,.19,0,.28,.22,.05,.11,.09,.13,.14,.08,.24-.97,.11-2.24,.03-3.34-.08-1.15-.23-1.94-.29-3.24-.07-1.62-.2-2.77-.4-3.31-.05-.11-.09-.19-.14-.22-.07-.04-.13-.02-.2,.08-.03,.07-.06,.15-.09,.25,.02-.65,.11-.93,.13-1.63,.02-.54,.03-1.11,.03-1.68-.01-.96,.03-1.79,.1-2.52,.09-1.1,.21-1.97,.29-3.15,.05-1.15,.03-2.36,.03-3.55,.04-1.83,.05-3.69,.06-5.56-.01-5.76,.04-11.44,.32-16.8-.02-.38-.05-.65-.09-.85-.08-.36-.18,.39-.26-.25,.08-.54,.17-.91,.25-1.5,.09-.67,.17-1.4,.22-2.31,.07-1.51,.15-3.01,0-4.54-.08-.63-.19-.88-.23-1.83-.03-1.07,.02-2.09,.02-3.16-.01-.94-.05-1.82-.1-2.64-.06-.84-.12-1.57-.22-2.13-.09-.45-.18-1.07-.28-1.33-.25-.41-.14-2.81-.3-3.72-.11-1.36,.07-1.53,.13-2.24,.03-.25,.05-.52,.07-.84,.02-.34,.04-.73,.09-.85,.09,.94-.07,2.3,.07,3.2,.17,.77,.33,.46,.49-.24,.04-.23,.08-.5,.11-.82,.09-1.14-.05-3.74,.29-3.28,.09-.41,.14-1.05,.16-1.88,0-.79-.03-1.49-.06-2.19-.06-.94,0-1.68,.05-2.48,0-1.05,.03-2.06,.07-3.01-.09-1.77-.46-.18-.47-2.82-.22-2.16,0-3.91,.07-5.82,.07-1.38,.21-.77,.33-.77,.1-.17,.18-.65,.22-1.49,.02-.67,.02-1.32-.02-1.95-.18-1.93-.42-1.53-.66-1.22-.05,.15-.09,.33-.14,.58-.13,.39-.16,3.26-.4,1.21-.08-1.04-.15-2.28-.33-2.45-.3-.29-.26-1.66-.14-3.24,.07-.46,.14-.92,.2-1.43,.03-.25,.06-.52,.08-.8,.08-.85,.22-1.14,.29-2.11,.11-1.3-.02-2.97,.09-4.31,.14-.8,.06,.29,.08,.57,0,.35,0,.71,.02,1.05,.05,.91,.14,1.56,.24,2.02,.16,.58,.34,1.09,.47-.23,.14-1.37-.05-2.32-.1-3.4-.1-1.94-.07-3.33,.19-4.08,.18-.71,.34,1.21,.52,.25,.11-.99,.16-2.08,.09-3.39-.05-.48-.11-.77-.18-.97-.09-.3-.22-.34-.15-1.68,.07-.94,.19-1.6,.22-2.74-.02-1.09-.11-1.69-.21-2.26-.24-.7-.55-.73-.61-3.58-.04-.21-.08-.28-.13-.28,.06-.05,.13,.02,.19-.27,.1-1.23-.02-2.14-.07-3.16-.06-.93-.13-1.86-.16-2.92-.02-.7,0-1.44-.05-2.09-.03-.28-.06-.52-.1-.71-.23-3.14,.25-1.08,.26-2.49,.11-1.09,.15-2.23,.03-3.46-.06-.31-.11-.68-.17-.93-.64-2.78-1.17-6.3-1.27-12.85-.34-1.59-.68-3.04-1.05-.5h0ZM1.22,527.25s0,.01-.01,.02c0-.04,.02-.06,.02-.1-.01-.56,.06,.02,0,.07h-.01Zm5.15-102.37c-.01,.71-.02,1.43,0,2.16-.02,.45,.09,.86,0,1.31,.01-.27,0-.52-.01-.71-.1-1.97-.02-3.97,0-5.97,.02,1.08,.05,2.14,0,3.22h.01Zm-.02-5.15v0Zm-.03-1.63c-.05-1.53-.04-3.04,.02-4.54v-1.36c0,1.96-.05,3.95-.03,5.91h.01ZM1.33,144.6v1.36c0-1.96,.05-3.95,.03-5.91,.05,1.53,.04,3.04-.02,4.54h-.01Zm-.01-6.09v0Zm0-7.97c.1,1.97,.02,3.97,0,5.97-.02-1.08-.06-2.14,0-3.22,.02-.71,.02-1.43,0-2.16,.02-.45-.09-.86,0-1.31-.01,.27,0,.52,.01,.71h-.01ZM6.45,30.98c.01,.56-.06-.02,0-.07t.01-.02s-.02,.06-.02,.1h.01Z"/></svg>