<?xml version="1.0" encoding="UTF-8"?><svg id="a" xmlns="http://www.w3.org/2000/svg" viewBox="0 0 623.85 462.8"><defs><style>.b{fill:#333;}</style></defs><path class="b" d="M618.35,10c-.91-.1-1.94-.15-3.08-.17-1.05,0-1.84,.08-2.72,.14-1.68,.02-.93-.14-.93-.25,.62-.31-.31-.52-2.08-.68-1.99-.18-3.88-.38-6.12-.49-2.42-.04-4.09-.26-5.75-.49-.35-.04-.71-.07-1.1-.1-1.42-.1-2.92-.15-4.49-.15-2.58,.1-5.56-.17-7.73,.06-5.03,.51-11.17,.69-16.18,1.2-1.08,.1-2.05,.22-3.28,.28-.39,.02-.78,.05-1.16,.08-1.91,.1-3.83,.19-5.71,.29-5.68,.32-11.61,.27-17.52,.24-1.31,0-2.56-.08-2.9-.28-.26-.15,.9-.15,1.54-.2,3.86-.17,8.13,.05,11.85-.25,9.38-.75,18.2-1.61,26.23-2.64,2.36-.6-1.46-.82-3.36-1.16-1.7-.2-3.65-.22-5.71-.16-1.29,.04-2.46,.14-3.67,.18,.31,0,.63-.01,.88-.09-.87-.31-2.81-.25-4.51-.27-.51,0-1.01,0-1.52,0-1.82,.02-3.55-.04-5.28-.11-2.99-.05-5.99-.01-8.98-.04-2.58-.08-5.17-.12-7.83-.13-12.09-.03-24.21,.11-36.27-.13-1.1,0-2.2,0-3.28,.03-4.74,.15-9.47,.16-14.22,0-.45-.03-.93-.06-1.44-.07-4.77,.12-9.43-.22-14.21-.07-1.62,.09-3.32,.09-5.02,.1-1.91,0-3.76,.04-4.5,.36-.17,.25-1.33,.32-2.86,.3-.74,.05-1.27,.13-1.87,.21-.8,.09-1.84,.1-2.74,.16-.38,.03-.71,.06-.99,.11-.5,.11-.83,.22-.01,.33,1.83,.19,4.13,.04,6.04,.17,.7,.01,1.35,0,1.97-.05,.14,0,.29,0,.43-.01-.06,0-.13,0-.19,0-1.51,.12-3.19,.11-4.83,.13-.41,.01-.8,.03-1.17,.06-1.22,.19-2.73,.28-4.43,.31v-.25c-1.82-.39-4.63-.41-7.49-.4-.44,.02-.86,.04-1.26,.07-1.42,.18-3.06,.14-4.71,.11-2.89,.28-3.83-.18-5.63-.31-1.08-.05-2.2-.05-3.31-.05-2.74-.07-4.87,.17-7.26,.3-.11,0-.21,.02-.31,.03,.01,0-.23,.01,.13-.02,3.5-.18,1.66-.37-.13-.51-2.4-.18-7.34,.04-9.29,.36-1.97,.33-4.06,.63-7.43,.33-.51-.09-.95-.2-1.95-.19-.26,.03-.42,.07-.63,.1,.28-.05,.56-.1,.88-.15,.21-.05,.34-.11,.37-.18-.7-.52-2.48-.69-5.74-.37-1.14,.11-2.45,.17-3.64,.27-.88,.07-1.62,.18-2.65,.21-.52,0-.91,.1-1.56,.04,.65-.01,1.15-.08,1.61-.15,.18-.05,.23-.11,.13-.17-.25-.05-.57-.08-.96-.11-1.1-.05-2.39-.01-3.26-.15-.31-.04-.66-.07-1.04-.09-1.97,.27-4.74,.21-6.99,.36-1.42,.11-1.55,.52-3.58,.42-3-.16-5.37-.03-7.77,.19-2.83,0-5.77-.17-8.48,.09-1.21,.16-2.14,.37-3.53,.5-1.69,.21-3.75,0-5.54,.1-3.14,.04-6.34,.03-9.16,.28-1.5,.14-3.11,.08-4.7,.05-1.4,0-2.28,.12-3.04,.27-.53,.11-1.02,.22-2.14,.16-1.55-.03-1.29-.27-2.18-.38-2.13-.06-3.11-.43-5.48-.43-.88,0-1.68,.03-2.46,.09-2.64,.17-4.88-.07-7.27-.15-1.1-.04-2.21-.05-3.34-.05-.67,0-1.34,0-2.01,.02-1.64,.03-2.73,.2-3.98,.34-.32-.22-.27-.45-1.45-.62-2.58-.12-4.74,.11-6.91,.22-2.85,.14-3.59-.02-3.92-.36-1.62-.08-3.03-.22-4.63-.29-1.15,0-2.13,.06-3,.16-1.53,.28-4.36,.15-5.84,.34-1.95,.25-1.98-.09-2.95-.12-.85-.03-1.6,0-2.28,.08-1.22,.15-2.56-.01-3.82,.03-1.96,.06-3.69,.2-5.52,.31-.43,.01-1.05,.05-1.09-.04-.05-.12,.94-.16,1.36-.24,.26-.05,.41-.11,.45-.17-.07-.15-.71-.24-1.62-.29-.89-.04-1.81-.05-2.74-.04-1.14,.01-2.21,.05-3.1,.16-.73,.09-1.21,.25-2.48,.2-1.45-.12-2.91-.23-4.67-.22-1.49,.01-2.78,.08-3.37,.29-.83,.31-2.58,.27-4.31,.25-.66,0-1.3,.01-1.93,.05-1.87,.08-2.04,.53-4.51,.44,1.95-.01,2.72-.19,2.69-.47-.24-.17-.94-.28-2.1-.34-1.73,.02-3.27-.1-4.92-.13-.42,.01-.81,.03-1.17,.07-.84,.09-1.89,.14-2.58,.26-.85,.14-.78,.32-1.38,.54-.56-.2-.83-.37-1.87-.47-.66-.04-1.3-.03-1.91,.02-1.97,.2,.14,.65-2.41,.81-.38-.02-.78-.03-1.18-.03-3.62,.12-3.84-.36-5.34-.62-.36-.03-.75-.06-1.18-.07-2.37-.02-2.55-.58-5.49-.45-.83,0-1.85,.12-2.32-.08-.52-.25,.02-.51-.09-.76-.11-.06-.31-.11-.6-.15-2.62-.06-5.32,.06-7.91-.07-1.11-.02-2.16,.03-3.22,.06-1.58,.06-2.83,.17-2.8,.44,.06,.06,.18,.11,.38,.16,.39,.08,.75,.17-.32,.2-.95,0-1.94,.01-2.84-.06-.99-.14,0-.25,.24-.38,.11-.06,.15-.12,.09-.18-1.07-.32-2.44-.14-3.65-.04-1.26,.11-2.12,.3-3.55,.39-1.77,.09-3.03,.26-3.61,.53-.12,.06-.21,.12-.24,.19-.05,.09-.03,.18,.09,.27,.08,.04,.17,.08,.28,.12-.72-.03-1.02-.15-1.79-.17-.6-.03-1.21-.04-1.84-.04-1.05,.01-1.95-.03-2.75-.13-1.2-.12-2.15-.28-3.44-.38-1.26-.07-2.58-.04-3.88-.04-2-.05-4.04-.06-6.07-.08-6.3,.02-12.5-.06-18.37-.42-.41,.02-.72,.06-.93,.12-.4,.11,.43,.24-.28,.35-.59-.1-.99-.23-1.65-.33-.73-.12-1.54-.22-2.52-.29-1.65-.09-3.29-.2-4.96,0-.69,.1-.96,.26-2,.31-1.16,.03-2.3-.03-3.45-.02-1.03,.01-1.98,.07-2.89,.14-.91,.07-1.72,.17-2.33,.29-.49,.12-1.16,.23-1.45,.37-.45,.33-3.08,.18-4.06,.4-1.48,.14-1.67-.1-2.45-.17-.28-.03-.57-.06-.91-.09-.37-.03-.8-.05-.92-.12,1.03-.12,2.51,.1,3.5-.09,.85-.22,.51-.44-.26-.65-.25-.06-.55-.11-.9-.15-1.24-.12-4.09,.07-3.58-.39-.45-.12-1.15-.19-2.05-.21-.86-.01-1.63,.03-2.4,.08-1.03,.08-1.84-.01-2.71-.07-1.15,0-2.25-.03-3.3-.1-1.93,.12-.19,.61-3.08,.63-2.35,.3-4.27,0-6.36-.09-1.51-.1-.84-.28-.84-.44-.19-.14-.71-.24-1.63-.29-.73-.03-1.44-.02-2.13,.02-2.1,.24-1.67,.56-1.34,.88,.16,.06,.36,.12,.63,.18,.43,.18,3.55,.21,1.33,.53-1.13,.11-2.48,.2-2.67,.43-.32,.4-1.81,.34-3.55,.19-.51-.09-1-.18-1.57-.26-.28-.04-.57-.08-.88-.11-.92-.11-1.24-.3-2.3-.39-1.42-.15-3.24,.03-4.71-.11-.88-.18,.32-.08,.62-.1,.38,0,.78,0,1.15-.02,1-.07,1.71-.18,2.21-.32,.63-.22,1.19-.45-.26-.62-1.49-.18-2.54,.06-3.72,.14-2.12,.13-3.63,.09-4.46-.25-.78-.24,1.32-.45,.28-.69-1.08-.14-2.28-.21-3.71-.12-.53,.06-.84,.14-1.06,.24-.33,.12-.38,.3-1.84,.2-1.03-.09-1.74-.24-2.99-.29-1.2,.02-1.85,.14-2.47,.27-.77,.32-.79,.72-3.92,.81-.22,.05-.3,.11-.3,.17-.05-.09,.03-.18-.29-.26-1.35-.13-2.34,.03-3.45,.09-1.02,.08-2.04,.17-3.19,.21-.77,.02-1.57,.01-2.29,.07-.3,.04-.57,.08-.79,.13-3.43,.31-1.18-.33-2.73-.34-1.2-.15-2.44-.2-3.78-.03-.34,.07-.74,.14-1.02,.22-3.04,.84-6.89,1.55-14.04,1.67-1.74,.45-3.31,.9-.55,1.38,.91,.1,1.94,.15,3.08,.17,1.05,0,1.84-.08,2.72-.14,1.68-.02,.93,.14,.93,.25-.62,.31,.31,.52,2.08,.68,1.99,.17,3.88,.38,6.12,.49,2.42,.04,4.09,.26,5.75,.49,.35,.04,.71,.07,1.1,.1,1.42,.1,2.92,.15,4.49,.15,2.58-.1,5.56,.17,7.73-.06,5.03-.52,11.17-.69,16.18-1.2,1.08-.1,2.05-.22,3.28-.28,.39-.02,.78-.05,1.16-.08,1.91-.1,3.83-.19,5.71-.29,5.68-.32,11.61-.27,17.52-.24,1.31,0,2.56,.08,2.9,.28,.26,.15-.9,.15-1.54,.2-3.86,.17-8.13-.05-11.85,.25-9.38,.75-18.2,1.61-26.23,2.64-2.36,.6,1.46,.82,3.36,1.16,1.7,.2,3.65,.22,5.71,.16,1.29-.04,2.46-.14,3.67-.18-.31,0-.63,.01-.88,.09,.87,.31,2.81,.25,4.51,.27,.51,0,1.01,0,1.52,0,1.82-.02,3.55,.04,5.28,.11,2.99,.05,5.99,.01,8.98,.04,2.58,.08,5.17,.12,7.83,.13,12.09,.03,24.21-.11,36.27,.13,1.1,0,2.2,0,3.28-.03,4.74-.15,9.47-.16,14.22,0,.45,.04,.93,.06,1.44,.07,4.77-.12,9.43,.22,14.21,.07,1.62-.09,3.32-.09,5.02-.1,1.91,0,3.76-.04,4.5-.36,.17-.26,1.33-.32,2.86-.3,.74-.05,1.27-.13,1.87-.21,.8-.09,1.84-.1,2.74-.16,.38-.03,.71-.06,.99-.11,.5-.11,.83-.22,.01-.33-1.83-.19-4.13-.04-6.04-.17-.7-.01-1.35,0-1.97,.05-.14,0-.29,0-.43,.01,.06,0,.13,0,.19,0,1.51-.12,3.19-.11,4.84-.13,.41-.01,.8-.03,1.17-.06,1.22-.19,2.73-.28,4.43-.31v.25c1.82,.39,4.63,.41,7.49,.4,.44-.02,.86-.04,1.26-.07,1.42-.18,3.06-.14,4.71-.11,2.89-.27,3.83,.18,5.63,.31,1.08,.05,2.2,.05,3.31,.05,2.74,.07,4.87-.17,7.26-.3,.11,0,.21-.02,.31-.03-.01,0,.23-.01-.13,.02-3.5,.18-1.66,.37,.13,.51,2.4,.18,7.34-.04,9.29-.36,1.97-.33,4.06-.63,7.43-.33,.51,.09,.95,.2,1.95,.19,.26-.03,.42-.07,.63-.1-.28,.05-.56,.1-.88,.15-.21,.06-.34,.11-.37,.18,.7,.52,2.48,.69,5.74,.37,1.14-.11,2.45-.17,3.64-.27,.88-.07,1.62-.18,2.65-.21,.52,0,.91-.1,1.56-.04-.65,.01-1.15,.08-1.61,.15-.18,.05-.23,.11-.13,.17,.25,.05,.57,.08,.96,.1,1.1,.05,2.39,.01,3.26,.15,.31,.04,.66,.07,1.04,.09,1.97-.27,4.74-.21,6.99-.36,1.42-.11,1.55-.52,3.58-.42,3,.16,5.37,.03,7.77-.19,2.83,0,5.77,.17,8.48-.09,1.21-.16,2.14-.37,3.53-.5,1.69-.21,3.75,0,5.54-.1,3.14-.04,6.34-.03,9.16-.28,1.5-.14,3.11-.08,4.7-.05,1.4,0,2.28-.12,3.04-.27,.53-.1,1.02-.22,2.14-.16,1.55,.03,1.29,.27,2.18,.38,2.13,.06,3.11,.43,5.48,.43,.88,0,1.68-.03,2.46-.09,2.64-.17,4.88,.07,7.27,.15,1.1,.04,2.21,.05,3.34,.05,.67,0,1.34,0,2.01-.02,1.64-.03,2.73-.2,3.98-.34,.32,.22,.27,.45,1.45,.61,2.57,.12,4.74-.11,6.91-.22,2.85-.14,3.59,.02,3.92,.36,1.62,.08,3.03,.22,4.63,.29,1.15,0,2.13-.06,3-.16,1.53-.28,4.36-.15,5.84-.34,1.95-.25,1.98,.09,2.95,.12,.85,.03,1.6,0,2.28-.08,1.22-.15,2.56,.01,3.82-.03,1.96-.06,3.69-.2,5.52-.32,.43-.01,1.05-.05,1.09,.04,.05,.12-.94,.16-1.36,.24-.26,.05-.41,.11-.45,.17,.07,.15,.71,.24,1.62,.29,.89,.04,1.81,.05,2.74,.04,1.14-.01,2.21-.05,3.1-.16,.73-.09,1.21-.25,2.49-.2,1.45,.12,2.91,.23,4.67,.22,1.49-.01,2.78-.08,3.37-.29,.83-.31,2.58-.27,4.31-.25,.66,0,1.3-.01,1.93-.05,1.87-.08,2.04-.53,4.51-.44-1.95,.01-2.72,.19-2.68,.47,.24,.17,.94,.28,2.1,.34,1.73-.02,3.27,.1,4.92,.13,.42-.01,.81-.03,1.17-.07,.84-.09,1.89-.14,2.58-.26,.85-.13,.78-.32,1.38-.54,.56,.2,.83,.37,1.87,.47,.66,.04,1.3,.03,1.91-.02,1.97-.2-.14-.65,2.41-.81,.38,.02,.78,.03,1.18,.03,3.62-.12,3.84,.36,5.34,.62,.36,.04,.75,.06,1.18,.07,2.37,.02,2.55,.58,5.49,.45,.83,0,1.85-.12,2.32,.08,.52,.25-.02,.51,.09,.76,.11,.06,.31,.11,.6,.15,2.62,.06,5.32-.07,7.91,.07,1.11,.02,2.16-.03,3.22-.06,1.58-.06,2.83-.17,2.8-.44-.06-.06-.18-.11-.38-.16-.39-.08-.75-.17,.32-.2,.95,0,1.94-.01,2.84,.06,.99,.14,0,.25-.24,.38-.11,.06-.15,.12-.09,.18,1.07,.32,2.44,.14,3.65,.04,1.26-.11,2.12-.3,3.55-.39,1.77-.09,3.03-.26,3.61-.53,.12-.06,.21-.12,.24-.19,.05-.09,.03-.18-.09-.27-.08-.04-.17-.08-.28-.12,.72,.03,1.02,.15,1.79,.17,.6,.03,1.21,.04,1.84,.04,1.05-.01,1.95,.03,2.75,.13,1.2,.12,2.15,.28,3.44,.38,1.26,.07,2.58,.04,3.88,.04,2,.05,4.04,.06,6.07,.08,6.3-.02,12.5,.06,18.37,.42,.41-.02,.72-.06,.93-.12,.4-.11-.43-.24,.28-.35,.59,.1,.99,.23,1.65,.33,.73,.12,1.54,.22,2.52,.29,1.65,.09,3.29,.2,4.96,0,.69-.1,.96-.26,2-.31,1.16-.03,2.3,.03,3.45,.02,1.03-.01,1.98-.07,2.89-.14,.91-.07,1.72-.16,2.33-.29,.49-.12,1.16-.23,1.45-.37,.45-.33,3.08-.18,4.06-.4,1.48-.14,1.67,.1,2.45,.17,.28,.03,.57,.06,.91,.09,.37,.03,.8,.05,.92,.12-1.03,.12-2.51-.1-3.5,.09-.85,.23-.51,.44,.26,.65,.25,.06,.55,.1,.9,.15,1.24,.12,4.09-.07,3.58,.38,.45,.12,1.15,.19,2.05,.21,.86,.01,1.63-.03,2.4-.08,1.03-.08,1.84,.01,2.71,.07,1.15,0,2.25,.03,3.3,.1,1.93-.12,.19-.61,3.08-.63,2.35-.3,4.27,0,6.36,.09,1.51,.1,.84,.28,.84,.44,.19,.14,.71,.24,1.63,.29,.73,.03,1.44,.02,2.13-.02,2.1-.24,1.67-.56,1.34-.88-.16-.06-.36-.12-.63-.18-.43-.18-3.55-.21-1.33-.53,1.13-.11,2.48-.2,2.67-.43,.32-.4,1.81-.34,3.55-.19,.51,.09,1,.18,1.57,.26,.28,.04,.57,.08,.88,.11,.92,.11,1.24,.29,2.3,.39,1.42,.15,3.24-.03,4.71,.11,.88,.18-.32,.08-.62,.1-.38,0-.78,0-1.16,.02-1,.07-1.71,.18-2.21,.32-.63,.22-1.19,.45,.26,.62,1.49,.18,2.54-.06,3.72-.14,2.12-.13,3.63-.09,4.46,.25,.78,.24-1.32,.45-.28,.69,1.08,.14,2.28,.21,3.71,.11,.53-.06,.84-.14,1.06-.23,.33-.12,.38-.3,1.84-.2,1.03,.09,1.74,.24,2.99,.29,1.19-.02,1.85-.14,2.47-.27,.77-.32,.79-.72,3.92-.81,.23-.05,.3-.11,.3-.17,.05,.09-.03,.18,.29,.26,1.35,.13,2.34-.03,3.45-.09,1.02-.09,2.04-.17,3.19-.21,.77-.02,1.57-.01,2.29-.07,.3-.04,.57-.08,.79-.13,3.43-.31,1.18,.33,2.73,.34,1.2,.15,2.44,.2,3.78,.04,.34-.07,.74-.14,1.02-.22,3.04-.84,6.89-1.55,14.04-1.67,1.74-.45,3.31-.9,.55-1.38ZM43.62,6.11s-.02,0-.03-.01c.03,.01,.07,.03,.11,.03,.61-.02-.02,.08-.08-.01Zm111.87,6.82c-.78-.02-1.56-.02-2.36,0-.49-.02-.93,.12-1.43,0,.29,.02,.56,.01,.78-.02,2.15-.14,4.34-.02,6.53,0-1.17,.03-2.34,.07-3.52,.01Zm5.63-.02h-.05s.08,0,.12,0c-.02,0-.05,0-.07,0Zm1.78-.04c1.67-.07,3.32-.05,4.97,.02,.49,.01,.99,.01,1.49,.01-2.15,0-4.31-.06-6.45-.04ZM461.83,6.26c-.49-.01-.99-.01-1.49-.01,2.15,0,4.31,.06,6.45,.04-1.67,.07-3.32,.05-4.97-.02Zm6.67-.02s.05,0,.07,0h.05s-.08,0-.12,0Zm8.71,0c-2.15,.14-4.34,.03-6.53,0,1.17-.03,2.34-.07,3.52-.01,.78,.02,1.56,.02,2.36,0,.49,.02,.93-.12,1.43,0-.29-.02-.56-.01-.78,.02Zm108.79,6.79c-.61,.02,.02-.08,.08,.01,.02,0,.02,0,.03,.01-.03-.01-.07-.03-.11-.03Z"/><path class="b" d="M14.12,2.81c-.08,.69-.12,1.47-.13,2.32,0,.79,.06,1.39,.11,2.05,.02,1.27-.1,.7-.19,.7-.23-.47-.4,.23-.51,1.57-.13,1.51-.29,2.93-.37,4.62-.03,1.83-.2,3.09-.37,4.34-.03,.26-.05,.54-.07,.83-.08,1.07-.11,2.2-.12,3.4,.07,1.95-.13,4.2,.04,5.84,.39,3.8,.52,8.44,.9,12.22,.07,.82,.17,1.55,.21,2.48,.02,.3,.04,.59,.06,.88,.07,1.44,.14,2.89,.22,4.32,.24,4.29,.2,8.77,.18,13.24,0,.99-.06,1.93-.21,2.19-.11,.2-.11-.68-.15-1.17-.13-2.91,.04-6.14-.19-8.96-.57-7.09-1.22-13.76-2-19.82-.45-1.79-.62,1.11-.87,2.54-.15,1.29-.17,2.76-.12,4.32,.03,.97,.11,1.86,.13,2.77,0-.24-.01-.48-.07-.67-.23,.66-.19,2.13-.21,3.41,0,.38,0,.77,0,1.15,.02,1.38-.03,2.69-.08,3.99-.04,2.26-.01,4.53-.03,6.79-.06,1.95-.09,3.91-.1,5.92-.02,9.14,.09,18.3-.1,27.41,0,.83,0,1.66,.03,2.48,.11,3.58,.12,7.16,0,10.74-.03,.34-.05,.7-.05,1.08,.09,3.61-.17,7.13-.05,10.74,.07,1.22,.07,2.51,.08,3.8,0,1.44,.03,2.84,.27,3.4,.19,.13,.24,1,.23,2.16,.04,.56,.1,.96,.16,1.41,.07,.6,.08,1.39,.12,2.07,.02,.28,.05,.54,.08,.75,.08,.38,.17,.63,.25,.01,.15-1.38,.03-3.12,.13-4.56,0-.53,0-1.02-.04-1.49,0-.11,0-.22,0-.33,0,.05,0,.1,0,.14,.09,1.14,.08,2.41,.1,3.65,0,.31,.02,.61,.05,.88,.14,.92,.21,2.07,.24,3.35h-.19c-.3,1.38-.31,3.5-.31,5.66,.01,.33,.03,.65,.05,.95,.14,1.07,.11,2.32,.08,3.56,.21,2.18-.13,2.9-.23,4.26-.04,.81-.04,1.66-.04,2.5-.05,2.07,.13,3.68,.23,5.48l.02,.23s.01,.17-.01-.1c-.14-2.64-.28-1.25-.38,.1-.14,1.82,.03,5.55,.27,7.02,.25,1.49,.48,3.07,.25,5.61-.07,.38-.15,.72-.14,1.47,.02,.2,.05,.32,.07,.47-.04-.21-.08-.42-.11-.66-.04-.16-.09-.26-.13-.28-.39,.53-.52,1.87-.28,4.34,.08,.86,.13,1.85,.21,2.75,.05,.67,.13,1.23,.16,2,0,.39,.07,.69,.03,1.18,0-.49-.06-.87-.11-1.22-.04-.14-.08-.18-.13-.1-.04,.19-.06,.43-.08,.72-.04,.83,0,1.8-.12,2.47-.03,.24-.05,.5-.07,.79,.2,1.49,.16,3.58,.27,5.28,.08,1.08,.4,1.17,.32,2.7-.12,2.27-.02,4.06,.14,5.87,0,2.14-.13,4.36,.07,6.41,.12,.91,.28,1.62,.38,2.67,.16,1.28,0,2.83,.08,4.18,.03,2.37,.03,4.79,.21,6.92,.11,1.14,.06,2.35,.04,3.56,0,1.05,.09,1.72,.2,2.3,.08,.4,.17,.77,.12,1.62-.02,1.17-.2,.97-.29,1.65-.05,1.61-.32,2.35-.33,4.14,0,.66,.02,1.27,.07,1.86,.13,1.99-.05,3.69-.11,5.49-.03,.83-.04,1.67-.04,2.53,0,.51,0,1.01,.02,1.52,.02,1.24,.15,2.06,.26,3.01-.17,.24-.34,.2-.47,1.09-.09,1.95,.08,3.58,.16,5.22,.11,2.16-.01,2.72-.27,2.96-.06,1.22-.16,2.29-.22,3.5,0,.87,.04,1.61,.12,2.26,.21,1.16,.11,3.3,.25,4.41,.19,1.47-.07,1.5-.09,2.23-.02,.64,0,1.21,.06,1.73,.12,.93,0,1.94,.02,2.89,.04,1.48,.15,2.79,.24,4.17,.01,.32,.04,.79-.03,.82-.09,.04-.12-.71-.18-1.03-.04-.2-.08-.31-.13-.34-.11,.05-.18,.54-.22,1.23-.03,.68-.04,1.37-.03,2.07,0,.86,.04,1.67,.12,2.34,.07,.55,.19,.91,.15,1.88-.09,1.09-.18,2.2-.17,3.53,0,1.12,.06,2.1,.22,2.55,.23,.63,.21,1.95,.19,3.26,0,.5,.01,.99,.04,1.46,.06,1.41,.4,1.54,.34,3.41,0-1.47-.14-2.06-.35-2.03-.13,.18-.21,.71-.25,1.59,.02,1.3-.07,2.47-.09,3.72,0,.32,.03,.61,.05,.89,.07,.64,.11,1.43,.2,1.95,.1,.64,.24,.59,.41,1.04-.15,.42-.28,.63-.35,1.41-.03,.5-.02,.98,.02,1.44,.15,1.49,.49-.11,.61,1.82-.01,.29-.02,.59-.02,.9,.09,2.74-.27,2.9-.47,4.03-.03,.27-.04,.57-.05,.89-.01,1.79-.44,1.93-.34,4.15,0,.63,.09,1.4-.06,1.75-.19,.39-.38-.02-.58,.07-.04,.09-.08,.23-.12,.45-.05,1.98,.05,4.02-.05,5.98-.01,.84,.02,1.63,.05,2.43,.05,1.19,.13,2.14,.33,2.12,.04-.05,.08-.13,.12-.28,.06-.29,.13-.57,.15,.24,0,.72,.01,1.47-.05,2.15-.11,.75-.19,0-.28-.18-.05-.09-.09-.11-.14-.07-.24,.81-.11,1.85-.03,2.76,.08,.95,.23,1.6,.29,2.68,.07,1.34,.2,2.29,.4,2.73,.05,.09,.09,.16,.14,.18,.07,.03,.13,.02,.2-.07,.03-.06,.06-.12,.09-.21-.02,.54-.11,.77-.13,1.35-.02,.45-.03,.92-.03,1.39,.01,.79-.03,1.48-.1,2.07-.09,.91-.21,1.63-.29,2.6-.05,.95-.03,1.95-.03,2.93-.04,1.51-.05,3.05-.06,4.59,.01,4.76-.04,9.45-.32,13.88,.02,.31,.05,.54,.09,.7,.08,.3,.18-.32,.26,.21-.08,.45-.17,.75-.25,1.24-.09,.55-.17,1.16-.22,1.91-.07,1.25-.15,2.49,0,3.75,.08,.52,.19,.73,.23,1.51,.03,.88-.02,1.73-.02,2.61,.01,.78,.05,1.5,.1,2.18,.06,.69,.12,1.3,.22,1.76,.09,.37,.18,.88,.28,1.1,.25,.34,.14,2.33,.3,3.07,.11,1.12-.07,1.26-.13,1.85-.03,.21-.05,.43-.07,.69-.02,.28-.03,.6-.09,.7-.09-.78,.07-1.9-.07-2.64-.17-.64-.33-.38-.49,.2-.04,.19-.08,.41-.11,.68-.09,.94,.05,3.09-.29,2.71-.09,.34-.14,.87-.16,1.55,0,.65,.03,1.23,.06,1.81,.06,.78,0,1.39-.05,2.05,0,.87-.03,1.7-.07,2.49,.09,1.46,.46,.15,.47,2.33,.22,1.78,0,3.23-.07,4.81-.08,1.14-.21,.64-.33,.64-.1,.14-.18,.54-.22,1.23-.02,.55-.02,1.09,.02,1.61,.18,1.59,.42,1.26,.66,1.01,.05-.12,.09-.27,.14-.48,.13-.32,.16-2.69,.4-1,.08,.86,.15,1.88,.33,2.02,.3,.24,.26,1.37,.14,2.68-.07,.38-.13,.76-.2,1.18-.03,.21-.06,.43-.08,.66-.08,.7-.22,.94-.29,1.74-.11,1.07,.02,2.45-.09,3.56-.14,.66-.06-.24-.08-.47,0-.29,0-.59-.02-.87-.05-.76-.14-1.29-.24-1.67-.16-.48-.34-.9-.47,.19-.14,1.13,.05,1.92,.1,2.81,.1,1.6,.07,2.75-.19,3.37-.18,.59-.34-1-.52-.21-.11,.82-.16,1.72-.09,2.8,.05,.4,.11,.64,.18,.8,.09,.25,.22,.28,.15,1.39-.07,.78-.19,1.32-.22,2.26,.02,.9,.11,1.4,.21,1.87,.24,.58,.55,.6,.61,2.96,.04,.17,.08,.23,.13,.23-.07,.04-.13-.02-.19,.22-.1,1.02,.02,1.77,.07,2.61,.06,.77,.13,1.54,.16,2.41,.02,.58,0,1.19,.05,1.73,.03,.23,.06,.43,.1,.59,.23,2.59-.25,.89-.26,2.06-.11,.9-.15,1.84-.03,2.86,.06,.26,.11,.56,.17,.77,.64,2.3,1.17,5.2,1.26,10.61,.34,1.31,.68,2.51,1.05,.41,.08-.68,.12-1.47,.13-2.32,0-.79-.06-1.39-.11-2.05-.02-1.27,.1-.7,.19-.7,.23,.47,.4-.23,.51-1.57,.13-1.51,.29-2.93,.37-4.62,.03-1.83,.2-3.09,.37-4.34,.03-.26,.05-.54,.07-.83,.08-1.07,.11-2.2,.12-3.39-.07-1.95,.13-4.2-.04-5.84-.39-3.8-.52-8.44-.9-12.22-.07-.82-.17-1.55-.21-2.48-.02-.3-.04-.59-.06-.88-.07-1.44-.14-2.89-.22-4.32-.24-4.29-.2-8.77-.18-13.24,0-.99,.06-1.93,.21-2.19,.11-.2,.11,.68,.15,1.17,.13,2.92-.04,6.14,.19,8.96,.57,7.09,1.22,13.76,2,19.82,.45,1.78,.62-1.11,.87-2.54,.15-1.29,.17-2.76,.12-4.32-.03-.97-.11-1.86-.13-2.77,0,.24,.01,.48,.07,.67,.23-.66,.19-2.13,.21-3.41,0-.38,0-.77,0-1.15-.02-1.38,.03-2.69,.08-3.99,.04-2.26,0-4.53,.03-6.79,.06-1.95,.09-3.91,.1-5.92,.02-9.14-.09-18.3,.1-27.41,0-.83,0-1.66-.03-2.48-.11-3.58-.12-7.16,0-10.74,.03-.34,.05-.7,.05-1.08-.09-3.61,.17-7.13,.05-10.74-.07-1.22-.07-2.51-.08-3.8,0-1.44-.03-2.84-.27-3.4-.19-.13-.24-1-.23-2.16-.04-.56-.1-.96-.16-1.42-.07-.6-.08-1.39-.12-2.07-.02-.28-.05-.54-.08-.75-.08-.38-.17-.63-.25-.01-.15,1.38-.03,3.12-.13,4.56,0,.53,0,1.02,.04,1.49,0,.11,0,.22,0,.33,0-.05,0-.1,0-.14-.09-1.14-.08-2.41-.1-3.65,0-.31-.02-.61-.05-.88-.14-.92-.21-2.07-.24-3.35h.19c.3-1.38,.31-3.5,.31-5.66-.01-.33-.03-.65-.05-.95-.14-1.07-.11-2.32-.08-3.56-.21-2.18,.13-2.9,.23-4.26,.04-.81,.04-1.66,.04-2.5,.05-2.07-.13-3.68-.23-5.48,0-.09-.01-.16-.02-.23,0,0-.01-.17,.01,.1,.14,2.64,.28,1.25,.39-.1,.14-1.82-.03-5.55-.27-7.02-.25-1.49-.48-3.07-.25-5.61,.07-.38,.15-.72,.14-1.47-.02-.2-.05-.32-.07-.47,.04,.21,.08,.42,.11,.66,.04,.16,.09,.26,.13,.28,.39-.53,.52-1.87,.28-4.34-.08-.86-.13-1.85-.2-2.75-.05-.67-.13-1.23-.16-2,0-.39-.07-.69-.03-1.18,0,.49,.06,.87,.11,1.22,.04,.14,.08,.18,.13,.1,.04-.19,.06-.43,.08-.72,.04-.83,0-1.8,.12-2.47,.03-.24,.05-.5,.07-.79-.2-1.49-.16-3.59-.27-5.28-.08-1.08-.4-1.17-.32-2.7,.12-2.27,.02-4.06-.14-5.87,0-2.14,.13-4.36-.07-6.41-.12-.91-.28-1.62-.38-2.67-.16-1.28,0-2.83-.08-4.18-.03-2.37-.03-4.79-.21-6.92-.11-1.13-.06-2.35-.04-3.56,0-1.05-.09-1.72-.2-2.3-.08-.4-.17-.77-.12-1.62,.02-1.17,.2-.97,.29-1.65,.05-1.61,.33-2.35,.33-4.14,0-.66-.02-1.27-.07-1.86-.13-1.99,.05-3.69,.11-5.49,.03-.83,.04-1.67,.04-2.53,0-.51,0-1.01-.02-1.52-.02-1.24-.15-2.06-.26-3.01,.17-.24,.34-.2,.46-1.1,.09-1.95-.08-3.58-.16-5.22-.11-2.16,.01-2.72,.27-2.96,.06-1.22,.16-2.29,.22-3.5,0-.87-.04-1.61-.12-2.26-.21-1.16-.11-3.3-.25-4.41-.19-1.47,.07-1.5,.09-2.23,.02-.64,0-1.21-.06-1.73-.12-.93,0-1.94-.02-2.89-.04-1.48-.15-2.79-.24-4.17-.01-.32-.04-.79,.03-.82,.09-.04,.12,.71,.18,1.03,.04,.2,.08,.31,.13,.34,.11-.05,.18-.54,.22-1.23,.03-.67,.04-1.37,.03-2.07,0-.86-.04-1.67-.12-2.34-.07-.55-.19-.91-.15-1.88,.09-1.09,.18-2.2,.17-3.53,0-1.12-.06-2.1-.22-2.55-.23-.63-.21-1.95-.19-3.26,0-.5-.01-.99-.04-1.46-.06-1.41-.4-1.54-.34-3.41,0,1.47,.14,2.06,.35,2.03,.13-.18,.21-.71,.25-1.59-.02-1.3,.07-2.47,.09-3.72,0-.32-.02-.61-.05-.89-.07-.64-.11-1.43-.2-1.95-.1-.64-.24-.59-.41-1.04,.15-.42,.28-.63,.35-1.41,.03-.5,.02-.98-.02-1.44-.15-1.49-.49,.11-.61-1.82,.01-.29,.02-.59,.02-.89-.09-2.74,.27-2.9,.47-4.03,.03-.27,.04-.57,.05-.89,.01-1.79,.44-1.93,.34-4.15,0-.63-.09-1.4,.06-1.75,.19-.39,.38,.02,.58-.07,.04-.09,.08-.23,.12-.45,.04-1.98-.05-4.02,.05-5.98,.01-.84-.02-1.63-.05-2.43-.05-1.19-.13-2.14-.33-2.12-.04,.05-.08,.13-.12,.28-.06,.29-.13,.57-.15-.24,0-.72-.01-1.47,.05-2.15,.11-.75,.19,0,.28,.18,.05,.09,.09,.11,.14,.07,.24-.8,.11-1.85,.03-2.76-.08-.95-.23-1.6-.29-2.68-.07-1.34-.2-2.29-.4-2.73-.05-.09-.09-.16-.14-.18-.07-.03-.13-.02-.2,.07-.03,.06-.06,.12-.09,.21,.02-.54,.11-.77,.13-1.35,.02-.45,.03-.92,.03-1.39-.01-.79,.03-1.48,.1-2.08,.09-.91,.21-1.63,.29-2.6,.05-.95,.03-1.95,.03-2.93,.04-1.51,.05-3.05,.06-4.59-.01-4.76,.04-9.45,.32-13.88-.02-.31-.05-.54-.09-.7-.08-.3-.18,.32-.26-.21,.08-.45,.17-.75,.25-1.24,.09-.55,.17-1.16,.22-1.91,.07-1.25,.15-2.49,0-3.75-.08-.52-.19-.73-.23-1.51-.03-.88,.02-1.73,.02-2.61-.01-.78-.05-1.5-.1-2.18-.06-.69-.12-1.3-.22-1.76-.09-.37-.18-.88-.28-1.1-.25-.34-.14-2.32-.3-3.07-.11-1.12,.07-1.26,.13-1.85,.03-.21,.05-.43,.07-.69,.02-.28,.04-.6,.09-.7,.09,.78-.07,1.9,.07,2.64,.17,.64,.33,.38,.49-.2,.04-.19,.08-.41,.11-.68,.09-.94-.05-3.09,.29-2.71,.09-.34,.14-.87,.16-1.55,0-.65-.03-1.23-.06-1.81-.06-.78,0-1.39,.05-2.05,0-.87,.03-1.7,.07-2.49-.09-1.46-.46-.15-.47-2.33-.22-1.78,0-3.23,.07-4.81,.07-1.14,.21-.64,.33-.64,.1-.14,.18-.54,.22-1.23,.02-.55,.02-1.09-.02-1.61-.18-1.59-.42-1.26-.66-1.01-.05,.12-.09,.27-.14,.48-.13,.32-.16,2.69-.4,1-.08-.86-.15-1.88-.33-2.02-.3-.24-.26-1.37-.14-2.68,.07-.38,.14-.76,.2-1.18,.03-.21,.06-.43,.08-.66,.08-.7,.22-.94,.29-1.74,.11-1.07-.02-2.45,.09-3.56,.14-.66,.06,.24,.08,.47,0,.29,0,.59,.02,.87,.05,.75,.14,1.29,.24,1.67,.16,.48,.34,.9,.47-.19,.14-1.13-.05-1.92-.1-2.81-.1-1.6-.07-2.75,.19-3.37,.18-.59,.34,1,.52,.21,.11-.82,.16-1.72,.09-2.8-.05-.4-.11-.64-.18-.8-.09-.25-.22-.28-.15-1.39,.07-.78,.19-1.32,.22-2.26-.02-.9-.11-1.4-.21-1.87-.24-.58-.55-.6-.61-2.96-.04-.17-.08-.23-.13-.23,.06-.04,.13,.02,.19-.22,.1-1.02-.02-1.77-.07-2.61-.06-.77-.13-1.54-.16-2.41-.02-.58,0-1.19-.05-1.73-.03-.23-.06-.43-.1-.59-.23-2.59,.25-.89,.26-2.06,.11-.9,.15-1.84,.03-2.86-.06-.26-.11-.56-.17-.77-.64-2.3-1.17-5.2-1.27-10.61-.34-1.31-.68-2.51-1.05-.41Zm-2.94,434.34s0,.01-.01,.02c0-.03,.02-.05,.02-.08-.01-.46,.06,.02,0,.06Zm5.15-84.55c-.01,.59-.02,1.18,0,1.78-.02,.37,.09,.71,0,1.08,.01-.22,0-.43-.01-.59-.1-1.63-.02-3.28,0-4.93,.02,.89,.05,1.77,0,2.66Zm-.02-4.25v.04s0-.06,0-.09c0,.02,0,.04,0,.05Zm-.03-1.35c-.05-1.26-.04-2.51,.02-3.75,0-.37,0-.75,0-1.12,0,1.62-.05,3.26-.03,4.88ZM11.29,121.1c0,.37,0,.75,0,1.12,0-1.62,.05-3.26,.03-4.88,.05,1.26,.04,2.51-.02,3.75Zm-.01-5.04s0-.04,0-.05v-.04s0,.06,0,.09Zm0-6.58c.1,1.63,.02,3.28,0,4.93-.02-.89-.06-1.77,0-2.66,.02-.59,.02-1.18,0-1.78,.02-.37-.09-.71,0-1.08-.01,.22,0,.43,.01,.59ZM16.41,27.26c.01,.46-.06-.02,0-.06,0-.01,0-.01,.01-.02,0,.03-.02,.05-.02,.08Z"/><path class="b" d="M622.31,458.11c-.93-.1-1.99-.16-3.15-.18-1.07,0-1.88,.08-2.78,.15-1.72,.02-.95-.14-.95-.25,.64-.32-.32-.54-2.12-.69-2.04-.18-3.97-.39-6.26-.5-2.47-.04-4.18-.27-5.88-.5-.35-.04-.73-.07-1.12-.1-1.45-.1-2.98-.15-4.59-.16-2.64,.1-5.69-.17-7.9,.06-5.14,.53-11.42,.71-16.54,1.22-1.11,.1-2.1,.22-3.36,.28-.4,.02-.8,.05-1.18,.08-1.95,.1-3.91,.19-5.84,.3-5.8,.32-11.87,.27-17.91,.25-1.34,0-2.61-.08-2.96-.28-.27-.15,.92-.15,1.58-.2,3.94-.18,8.31,.05,12.12-.25,9.6-.77,18.62-1.65,26.82-2.7,2.42-.61-1.5-.84-3.44-1.18-1.74-.2-3.73-.23-5.84-.17-1.32,.04-2.52,.15-3.75,.18,.32,0,.65-.01,.9-.09-.89-.31-2.88-.25-4.61-.28-.52,0-1.04,0-1.55,0-1.86,.02-3.63-.04-5.4-.11-3.05-.05-6.13-.01-9.19-.04-2.64-.08-5.29-.13-8.01-.13-12.36-.03-24.76,.12-37.09-.13-1.13,0-2.25,0-3.36,.04-4.84,.15-9.69,.17-14.54,0-.46-.04-.95-.06-1.47-.07-4.88,.12-9.65-.23-14.53-.07-1.66,.09-3.4,.1-5.14,.1-1.95,0-3.85,.04-4.6,.37-.18,.26-1.36,.32-2.92,.31-.76,.05-1.3,.14-1.91,.21-.82,.1-1.89,.1-2.8,.17-.38,.03-.73,.07-1.02,.11-.51,.11-.85,.23-.02,.34,1.87,.2,4.23,.04,6.17,.17,.71,.01,1.38,0,2.02-.06,.15,0,.3,0,.44-.01-.06,0-.13,0-.19,0-1.54,.13-3.27,.11-4.94,.14-.42,.01-.82,.03-1.19,.06-1.25,.19-2.8,.29-4.53,.32v-.26c-1.86-.4-4.73-.42-7.66-.41-.45,.02-.88,.04-1.29,.07-1.45,.18-3.13,.15-4.81,.11-2.95,.28-3.92-.18-5.76-.32-1.1-.05-2.24-.05-3.38-.06-2.8-.07-4.99,.17-7.42,.31-.12,0-.21,.02-.31,.03,.01,0-.24,.01,.13-.02,3.58-.19,1.69-.38-.13-.52-2.46-.19-7.51,.04-9.5,.37-2.01,.34-4.16,.65-7.6,.34-.52-.09-.97-.2-1.99-.19-.27,.03-.43,.07-.64,.1,.29-.05,.57-.1,.9-.15,.21-.06,.35-.12,.38-.18-.72-.53-2.53-.7-5.87-.38-1.17,.11-2.5,.18-3.72,.28-.9,.07-1.66,.18-2.71,.22-.53,0-.93,.1-1.6,.04,.67-.01,1.18-.08,1.65-.15,.19-.06,.24-.11,.13-.17-.26-.05-.58-.08-.98-.11-1.12-.05-2.44-.01-3.34-.16-.32-.04-.67-.07-1.07-.09-2.01,.27-4.85,.21-7.15,.37-1.46,.11-1.59,.54-3.66,.43-3.07-.16-5.49-.03-7.94,.19-2.9,0-5.9-.18-8.67,.1-1.23,.17-2.19,.37-3.61,.51-1.73,.21-3.84,0-5.66,.1-3.21,.04-6.48,.03-9.37,.29-1.54,.15-3.18,.09-4.81,.06-1.43,0-2.33,.12-3.11,.27-.54,.11-1.04,.23-2.19,.17-1.58-.03-1.32-.28-2.23-.39-2.18-.07-3.18-.44-5.6-.44-.9,0-1.72,.03-2.52,.09-2.7,.17-4.99-.07-7.43-.15-1.12-.04-2.26-.05-3.42-.05-.69,0-1.37,0-2.05,.02-1.68,.03-2.79,.21-4.07,.35-.33-.23-.28-.46-1.48-.63-2.63-.13-4.85,.11-7.07,.22-2.92,.14-3.68-.02-4.01-.37-1.65-.08-3.1-.22-4.74-.3-1.18,0-2.17,.06-3.06,.16-1.57,.29-4.46,.15-5.97,.34-1.99,.25-2.02-.1-3.01-.12-.86-.03-1.63,0-2.34,.08-1.25,.16-2.62-.01-3.91,.03-2,.06-3.77,.21-5.65,.32-.44,.02-1.07,.05-1.11-.04-.05-.13,.96-.16,1.39-.24,.26-.05,.42-.11,.47-.17-.07-.15-.73-.24-1.66-.3-.91-.04-1.85-.05-2.81-.05-1.17,.01-2.26,.05-3.17,.17-.75,.09-1.23,.26-2.54,.21-1.48-.12-2.98-.24-4.78-.23-1.52,.01-2.84,.08-3.45,.3-.85,.31-2.64,.28-4.41,.26-.68,0-1.33,.01-1.97,.05-1.91,.08-2.08,.54-4.61,.45,1.99-.01,2.78-.19,2.75-.48-.25-.17-.97-.29-2.15-.34-1.76,.02-3.34-.1-5.03-.13-.43,.01-.83,.03-1.2,.07-.86,.09-1.94,.14-2.64,.27-.87,.14-.8,.33-1.41,.55-.57-.2-.85-.38-1.91-.48-.67-.04-1.32-.03-1.95,.02-2.01,.2,.15,.66-2.47,.83-.39-.02-.79-.03-1.21-.03-3.7,.12-3.93-.37-5.46-.64-.37-.04-.77-.06-1.21-.07-2.42-.02-2.61-.59-5.61-.46-.85,0-1.89,.12-2.37-.08-.53-.26,.02-.52-.09-.78-.12-.06-.31-.11-.61-.16-2.68-.06-5.44,.07-8.09-.07-1.13-.02-2.21,.03-3.29,.06-1.62,.06-2.89,.17-2.87,.45,.06,.06,.18,.11,.38,.17,.39,.09,.77,.17-.33,.2-.98,0-1.98,.02-2.91-.07-1.01-.14,0-.26,.24-.38,.12-.06,.15-.12,.1-.19-1.09-.32-2.5-.15-3.74-.04-1.29,.11-2.17,.31-3.63,.4-1.81,.1-3.1,.27-3.69,.54-.12,.06-.21,.13-.25,.19-.05,.09-.03,.18,.09,.27,.08,.04,.17,.08,.29,.12-.74-.03-1.05-.15-1.83-.17-.61-.03-1.24-.04-1.89-.04-1.08,.01-2-.03-2.81-.13-1.23-.12-2.2-.29-3.52-.39-1.29-.07-2.64-.04-3.97-.04-2.05-.05-4.13-.06-6.21-.08-6.44,.02-12.78-.06-18.79-.43-.42,.03-.73,.07-.95,.12-.41,.11,.44,.24-.29,.36-.61-.1-1.02-.24-1.68-.34-.75-.12-1.57-.23-2.58-.3-1.69-.09-3.37-.21-5.07,0-.71,.1-.98,.26-2.05,.32-1.19,.04-2.35-.03-3.53-.02-1.06,.01-2.03,.07-2.95,.14-.93,.08-1.76,.17-2.38,.3-.5,.13-1.19,.24-1.48,.38-.46,.33-3.15,.19-4.15,.41-1.51,.15-1.71-.1-2.51-.17-.29-.03-.59-.07-.94-.09-.38-.03-.81-.05-.94-.12,1.05-.12,2.57,.1,3.58-.09,.87-.23,.52-.45-.27-.67-.26-.06-.56-.11-.92-.15-1.27-.12-4.18,.07-3.66-.39-.46-.12-1.17-.19-2.1-.22-.88-.01-1.67,.04-2.45,.09-1.06,.09-1.88-.01-2.77-.07-1.18,0-2.3-.04-3.37-.1-1.97,.12-.2,.62-3.15,.64-2.4,.3-4.37,0-6.5-.1-1.54-.1-.86-.29-.86-.45-.19-.14-.73-.24-1.67-.3-.74-.03-1.47-.02-2.18,.02-2.15,.25-1.71,.57-1.37,.9,.16,.07,.37,.13,.65,.18,.44,.18,3.63,.22,1.36,.54-1.16,.11-2.54,.2-2.73,.44-.33,.41-1.85,.35-3.63,.19-.52-.09-1.03-.18-1.6-.27-.29-.04-.58-.08-.9-.11-.94-.11-1.27-.3-2.35-.4-1.45-.15-3.32,.03-4.81-.12-.9-.18,.33-.08,.63-.11,.39,0,.8,0,1.18-.02,1.02-.07,1.75-.19,2.26-.33,.65-.22,1.22-.46-.26-.64-1.53-.19-2.6,.07-3.8,.14-2.17,.14-3.72,.09-4.56-.25-.8-.24,1.35-.46,.28-.71-1.11-.14-2.33-.21-3.79-.12-.54,.06-.86,.15-1.08,.24-.34,.12-.39,.3-1.88,.2-1.06-.09-1.78-.25-3.05-.29-1.22,.02-1.89,.15-2.53,.28-.79,.33-.81,.74-4.01,.83-.23,.05-.31,.11-.31,.17-.05-.09,.03-.18-.3-.26-1.38-.13-2.39,.03-3.53,.1-1.04,.09-2.08,.17-3.26,.22-.78,.02-1.61,.01-2.34,.07-.31,.04-.58,.08-.81,.13-3.51,.32-1.21-.34-2.79-.35-1.22-.16-2.49-.21-3.87-.04-.35,.07-.75,.15-1.04,.23-3.11,.86-7.04,1.58-14.36,1.71-1.78,.46-3.39,.92-.56,1.42,.93,.1,1.99,.16,3.15,.18,1.07,0,1.88-.08,2.78-.15,1.72-.02,.95,.14,.95,.25-.64,.32,.32,.54,2.12,.69,2.04,.18,3.97,.39,6.26,.5,2.47,.04,4.18,.27,5.88,.5,.35,.04,.73,.07,1.12,.1,1.45,.1,2.98,.15,4.59,.16,2.64-.1,5.69,.17,7.9-.06,5.14-.53,11.42-.71,16.54-1.22,1.11-.1,2.09-.23,3.36-.28,.4-.02,.8-.05,1.18-.08,1.95-.1,3.91-.19,5.84-.3,5.8-.32,11.87-.27,17.91-.25,1.34,0,2.61,.08,2.96,.28,.27,.15-.92,.15-1.58,.2-3.95,.18-8.31-.05-12.12,.25-9.6,.77-18.61,1.65-26.82,2.7-2.42,.61,1.5,.84,3.44,1.18,1.74,.2,3.73,.23,5.84,.17,1.32-.04,2.52-.15,3.75-.18-.32,0-.65,.01-.9,.09,.89,.31,2.88,.25,4.61,.28,.52,0,1.04,0,1.55,0,1.86-.02,3.63,.04,5.4,.11,3.05,.05,6.13,.01,9.19,.04,2.64,.08,5.29,.13,8.01,.13,12.36,.03,24.76-.12,37.09,.13,1.13,0,2.25,0,3.36-.04,4.84-.15,9.69-.17,14.54,0,.46,.04,.95,.06,1.47,.07,4.88-.12,9.65,.23,14.53,.07,1.66-.09,3.4-.1,5.14-.1,1.95,0,3.85-.04,4.6-.37,.18-.26,1.36-.32,2.92-.31,.76-.05,1.3-.14,1.91-.21,.82-.1,1.89-.1,2.8-.17,.38-.03,.73-.07,1.02-.11,.51-.11,.85-.23,.01-.34-1.87-.2-4.23-.04-6.17-.17-.71-.01-1.38,0-2.02,.06-.15,0-.3,0-.44,.01,.06,0,.13,0,.19,0,1.54-.13,3.27-.11,4.95-.14,.42-.01,.82-.03,1.19-.06,1.25-.19,2.8-.29,4.53-.32v.26c1.86,.4,4.73,.42,7.66,.41,.45-.02,.88-.04,1.29-.07,1.45-.18,3.13-.15,4.81-.11,2.95-.28,3.92,.18,5.76,.32,1.1,.05,2.24,.05,3.38,.06,2.8,.07,4.99-.17,7.42-.31,.12,0,.21-.02,.31-.03-.01,0,.24-.01-.13,.02-3.58,.19-1.69,.38,.13,.52,2.46,.19,7.51-.04,9.5-.37,2.01-.34,4.16-.65,7.6-.34,.52,.09,.97,.2,1.99,.19,.27-.03,.43-.07,.64-.1-.29,.05-.57,.1-.9,.15-.21,.06-.35,.12-.38,.18,.72,.53,2.53,.7,5.87,.38,1.17-.11,2.5-.18,3.72-.28,.9-.07,1.66-.18,2.71-.22,.53,0,.93-.1,1.6-.04-.67,.01-1.18,.08-1.65,.15-.19,.06-.24,.11-.13,.17,.26,.05,.58,.08,.98,.11,1.13,.05,2.44,.01,3.34,.16,.32,.04,.67,.07,1.07,.09,2.02-.27,4.85-.21,7.15-.37,1.46-.11,1.59-.54,3.66-.43,3.07,.16,5.49,.03,7.95-.19,2.9,0,5.9,.18,8.67-.1,1.23-.17,2.19-.37,3.61-.51,1.73-.21,3.84,0,5.66-.1,3.21-.04,6.48-.04,9.37-.29,1.54-.15,3.18-.09,4.81-.06,1.43,0,2.33-.12,3.11-.27,.54-.11,1.04-.23,2.19-.17,1.58,.03,1.32,.28,2.23,.39,2.18,.07,3.18,.44,5.6,.44,.9,0,1.72-.03,2.52-.09,2.7-.17,4.99,.07,7.43,.15,1.12,.04,2.26,.05,3.42,.05,.69,0,1.37,0,2.05-.02,1.68-.03,2.79-.21,4.07-.35,.33,.23,.28,.46,1.48,.63,2.63,.13,4.85-.11,7.07-.22,2.92-.15,3.68,.02,4.01,.37,1.65,.08,3.1,.22,4.74,.3,1.18,0,2.17-.06,3.06-.16,1.57-.29,4.46-.15,5.97-.34,1.99-.25,2.02,.1,3.01,.12,.86,.03,1.63,0,2.34-.08,1.25-.16,2.62,.01,3.91-.03,2-.06,3.77-.21,5.65-.32,.44-.01,1.07-.05,1.11,.04,.05,.13-.96,.16-1.39,.24-.26,.05-.42,.11-.47,.17,.07,.15,.73,.24,1.66,.3,.91,.04,1.85,.05,2.81,.05,1.17-.01,2.26-.05,3.17-.17,.75-.09,1.23-.26,2.54-.21,1.48,.12,2.98,.24,4.78,.23,1.52-.01,2.84-.08,3.45-.3,.85-.31,2.64-.28,4.41-.26,.68,0,1.33-.01,1.97-.05,1.91-.08,2.09-.54,4.61-.45-1.99,.01-2.78,.19-2.75,.48,.25,.18,.97,.29,2.15,.34,1.77-.02,3.34,.1,5.03,.13,.43-.01,.83-.03,1.2-.07,.86-.09,1.94-.14,2.64-.27,.87-.14,.8-.33,1.41-.55,.57,.2,.85,.38,1.91,.48,.67,.04,1.32,.03,1.95-.02,2.01-.2-.15-.66,2.47-.83,.39,.02,.79,.03,1.21,.03,3.7-.12,3.93,.37,5.46,.64,.37,.04,.77,.06,1.21,.07,2.42,.02,2.61,.59,5.61,.46,.85,0,1.89-.12,2.37,.08,.53,.26-.02,.52,.09,.78,.12,.06,.31,.11,.61,.16,2.68,.06,5.44-.07,8.09,.07,1.13,.02,2.21-.03,3.29-.06,1.62-.06,2.89-.17,2.87-.45-.06-.06-.18-.11-.38-.17-.39-.09-.77-.17,.33-.2,.98,0,1.98-.01,2.91,.07,1.01,.14,0,.26-.24,.38-.12,.06-.15,.12-.1,.19,1.09,.32,2.5,.15,3.74,.04,1.29-.11,2.17-.31,3.63-.39,1.81-.1,3.1-.27,3.69-.54,.12-.06,.21-.13,.25-.19,.05-.09,.03-.18-.09-.27-.08-.04-.17-.08-.29-.12,.74,.03,1.05,.15,1.83,.17,.61,.03,1.24,.04,1.89,.04,1.08-.01,2,.03,2.81,.13,1.23,.12,2.2,.29,3.52,.39,1.29,.07,2.64,.04,3.97,.04,2.05,.05,4.13,.06,6.21,.08,6.44-.02,12.78,.06,18.79,.43,.42-.03,.73-.07,.95-.12,.41-.11-.44-.24,.29-.36,.61,.1,1.02,.24,1.68,.34,.75,.12,1.57,.23,2.58,.3,1.69,.09,3.37,.21,5.07,0,.71-.1,.98-.26,2.05-.32,1.19-.04,2.35,.03,3.53,.02,1.06-.01,2.03-.07,2.95-.14,.93-.08,1.76-.17,2.38-.3,.5-.13,1.19-.24,1.48-.38,.46-.33,3.15-.19,4.15-.41,1.51-.15,1.71,.1,2.51,.17,.29,.03,.59,.06,.94,.09,.38,.03,.81,.05,.94,.12-1.05,.12-2.57-.1-3.58,.09-.87,.23-.52,.45,.27,.67,.26,.06,.56,.11,.92,.15,1.27,.12,4.18-.07,3.66,.39,.46,.12,1.17,.19,2.1,.22,.88,.01,1.67-.03,2.45-.09,1.06-.09,1.88,.01,2.77,.07,1.18,0,2.3,.04,3.37,.1,1.97-.12,.2-.62,3.15-.64,2.4-.3,4.37,0,6.5,.1,1.54,.1,.86,.29,.86,.45,.19,.14,.73,.24,1.67,.3,.74,.03,1.47,.02,2.18-.02,2.15-.25,1.71-.57,1.37-.9-.16-.07-.37-.13-.65-.18-.44-.18-3.63-.22-1.36-.54,1.16-.11,2.54-.2,2.73-.44,.33-.41,1.85-.35,3.63-.19,.52,.09,1.03,.18,1.6,.27,.29,.04,.58,.08,.9,.11,.94,.11,1.27,.3,2.35,.4,1.45,.15,3.32-.03,4.81,.12,.9,.18-.33,.08-.63,.11-.39,0-.8,0-1.18,.02-1.02,.07-1.75,.19-2.26,.33-.65,.22-1.22,.46,.26,.64,1.53,.19,2.6-.07,3.8-.14,2.17-.14,3.72-.09,4.56,.25,.8,.24-1.35,.46-.28,.71,1.11,.14,2.33,.21,3.79,.12,.54-.06,.86-.15,1.08-.24,.34-.12,.39-.3,1.88-.2,1.06,.09,1.78,.25,3.05,.29,1.22-.02,1.89-.15,2.53-.28,.79-.33,.81-.74,4.01-.83,.23-.05,.31-.11,.31-.17,.05,.09-.03,.18,.3,.26,1.38,.13,2.39-.03,3.53-.1,1.04-.09,2.08-.17,3.26-.22,.78-.02,1.61-.01,2.34-.07,.31-.04,.58-.08,.81-.13,3.51-.32,1.21,.34,2.79,.35,1.22,.16,2.49,.21,3.87,.04,.35-.08,.75-.15,1.04-.23,3.11-.86,7.04-1.58,14.36-1.71,1.78-.46,3.39-.92,.56-1.42Zm-587.78-3.98s-.02,0-.03-.01c.04,.01,.07,.03,.11,.03,.62-.02-.03,.08-.08-.01Zm114.41,6.97c-.8-.02-1.6-.02-2.42,0-.5-.02-.96,.12-1.46,0,.3,.02,.58,.01,.8-.02,2.2-.14,4.44-.03,6.68,0-1.2,.03-2.39,.07-3.6,.01Zm5.76-.02h-.05s.08,0,.13,0c-.02,0-.05,0-.07,0Zm1.82-.04c1.7-.07,3.4-.05,5.08,.02,.5,.01,1.01,.01,1.52,.01-2.19,0-4.41-.06-6.6-.04Zm305.72-6.76c-.5-.01-1.01-.01-1.52-.01,2.19,0,4.41,.06,6.6,.04-1.7,.07-3.4,.05-5.08-.02Zm6.83-.02s.05,0,.07,0h.05s-.08,0-.13,0Zm8.91,0c-2.2,.14-4.44,.03-6.68,0,1.2-.03,2.39-.07,3.6-.01,.8,.02,1.6,.02,2.42,0,.5,.02,.96-.12,1.46,0-.3-.02-.58-.01-.8,.02Zm111.26,6.95c-.62,.02,.03-.08,.08,.01,.02,0,.02,0,.03,.01-.04-.01-.07-.03-.11-.03Z"/><path class="b" d="M616.82,1.14c-.08,.69-.12,1.47-.13,2.32,0,.79,.06,1.39,.11,2.05,.02,1.27-.1,.7-.19,.7-.23-.47-.4,.23-.51,1.57-.13,1.51-.29,2.93-.37,4.62-.03,1.83-.2,3.09-.37,4.34-.03,.26-.05,.54-.07,.83-.08,1.07-.11,2.2-.12,3.4,.07,1.95-.13,4.2,.04,5.84,.39,3.8,.52,8.44,.9,12.22,.07,.82,.17,1.55,.21,2.48,.02,.3,.04,.59,.06,.88,.07,1.44,.14,2.89,.22,4.32,.24,4.29,.2,8.77,.18,13.24,0,.99-.06,1.93-.21,2.19-.11,.2-.11-.68-.15-1.17-.13-2.91,.04-6.14-.19-8.96-.57-7.09-1.22-13.76-2-19.82-.45-1.79-.62,1.11-.87,2.54-.15,1.29-.17,2.76-.12,4.32,.03,.97,.11,1.86,.13,2.77,0-.24-.01-.48-.07-.67-.23,.66-.19,2.13-.21,3.41,0,.38,0,.77,0,1.15,.02,1.38-.03,2.69-.08,3.99-.04,2.26-.01,4.53-.03,6.79-.06,1.95-.09,3.91-.1,5.92-.02,9.14,.09,18.3-.1,27.41,0,.83,0,1.66,.03,2.48,.11,3.58,.12,7.16,0,10.74-.03,.34-.05,.7-.05,1.08,.09,3.61-.17,7.13-.05,10.74,.07,1.22,.07,2.51,.08,3.8,0,1.44,.03,2.84,.27,3.4,.19,.13,.24,1,.23,2.16,.04,.56,.1,.96,.16,1.41,.07,.6,.08,1.39,.12,2.07,.02,.28,.05,.54,.08,.75,.08,.38,.17,.63,.25,.01,.15-1.38,.03-3.12,.13-4.56,0-.53,0-1.02-.04-1.49,0-.11,0-.22,0-.33,0,.05,0,.1,0,.14,.09,1.14,.08,2.41,.1,3.65,0,.31,.02,.61,.05,.88,.14,.92,.21,2.07,.24,3.35h-.19c-.3,1.38-.31,3.5-.31,5.66,.01,.33,.03,.65,.05,.95,.14,1.07,.11,2.32,.08,3.56,.21,2.18-.13,2.9-.23,4.26-.04,.81-.04,1.66-.04,2.5-.05,2.07,.13,3.68,.23,5.48l.02,.23s.01,.17-.01-.1c-.14-2.64-.28-1.25-.38,.1-.14,1.82,.03,5.55,.27,7.02,.25,1.49,.48,3.07,.25,5.61-.07,.38-.15,.72-.14,1.47,.02,.2,.05,.32,.07,.47-.04-.21-.08-.42-.11-.66-.04-.16-.09-.26-.13-.28-.39,.53-.52,1.87-.28,4.34,.08,.86,.13,1.85,.21,2.75,.05,.67,.13,1.23,.16,2,0,.39,.07,.69,.03,1.18,0-.49-.06-.87-.11-1.22-.04-.14-.08-.18-.13-.1-.04,.19-.06,.43-.08,.72-.04,.83,0,1.8-.12,2.47-.03,.24-.05,.5-.07,.79,.2,1.49,.16,3.58,.27,5.28,.08,1.08,.4,1.17,.32,2.7-.12,2.27-.02,4.06,.14,5.87,0,2.14-.13,4.36,.07,6.41,.12,.91,.28,1.62,.38,2.67,.16,1.28,0,2.83,.08,4.18,.03,2.37,.03,4.79,.21,6.92,.11,1.14,.06,2.35,.04,3.56,0,1.05,.09,1.72,.2,2.3,.08,.4,.17,.77,.12,1.62-.02,1.17-.2,.97-.29,1.65-.05,1.61-.32,2.35-.33,4.14,0,.66,.02,1.27,.07,1.86,.13,1.99-.05,3.69-.11,5.49-.03,.83-.04,1.67-.04,2.53,0,.51,0,1.01,.02,1.52,.02,1.24,.15,2.06,.26,3.01-.17,.24-.34,.2-.47,1.09-.09,1.95,.08,3.58,.16,5.22,.11,2.16-.01,2.72-.27,2.96-.06,1.22-.16,2.29-.22,3.5,0,.87,.04,1.61,.12,2.26,.21,1.16,.11,3.3,.25,4.41,.19,1.47-.07,1.5-.09,2.23-.02,.64,0,1.21,.06,1.73,.12,.93,0,1.94,.02,2.89,.04,1.48,.15,2.79,.24,4.17,.01,.32,.04,.79-.03,.82-.09,.04-.12-.71-.18-1.03-.04-.2-.08-.31-.13-.34-.11,.05-.18,.54-.22,1.23-.03,.68-.04,1.37-.03,2.07,0,.86,.04,1.67,.12,2.34,.07,.55,.19,.91,.15,1.88-.09,1.09-.18,2.2-.17,3.53,0,1.12,.06,2.1,.22,2.55,.23,.63,.21,1.95,.19,3.26,0,.5,.01,.99,.04,1.46,.06,1.41,.4,1.54,.34,3.41,0-1.47-.14-2.06-.35-2.03-.13,.18-.21,.71-.25,1.59,.02,1.3-.07,2.47-.09,3.72,0,.32,.03,.61,.05,.89,.07,.64,.11,1.43,.2,1.95,.1,.64,.24,.59,.41,1.04-.15,.42-.28,.63-.35,1.41-.03,.5-.02,.98,.02,1.44,.15,1.49,.49-.11,.61,1.82-.01,.29-.02,.59-.02,.9,.09,2.74-.27,2.9-.47,4.03-.03,.27-.04,.57-.05,.89-.01,1.79-.44,1.93-.34,4.15,0,.63,.09,1.4-.06,1.75-.19,.39-.38-.02-.58,.07-.04,.09-.08,.23-.12,.45-.05,1.98,.05,4.02-.05,5.98-.01,.84,.02,1.63,.05,2.43,.05,1.19,.13,2.14,.33,2.12,.04-.05,.08-.13,.12-.28,.06-.29,.13-.57,.15,.24,0,.72,.01,1.47-.05,2.15-.11,.75-.19,0-.28-.18-.05-.09-.09-.11-.14-.07-.24,.81-.11,1.85-.03,2.76,.08,.95,.23,1.6,.29,2.68,.07,1.34,.2,2.29,.4,2.73,.05,.09,.09,.16,.14,.18,.07,.03,.13,.02,.2-.07,.03-.06,.06-.12,.09-.21-.02,.54-.11,.77-.13,1.35-.02,.45-.03,.92-.03,1.39,.01,.79-.03,1.48-.1,2.07-.09,.91-.21,1.63-.29,2.6-.05,.95-.03,1.95-.03,2.93-.04,1.51-.05,3.05-.06,4.59,.01,4.76-.04,9.45-.32,13.88,.02,.31,.05,.54,.09,.7,.08,.3,.18-.32,.26,.21-.08,.45-.17,.75-.25,1.24-.09,.55-.17,1.16-.22,1.91-.07,1.25-.15,2.49,0,3.75,.08,.52,.19,.73,.23,1.51,.03,.88-.02,1.73-.02,2.61,.01,.78,.05,1.5,.1,2.18,.06,.69,.12,1.3,.22,1.76,.09,.37,.18,.88,.28,1.1,.25,.34,.14,2.33,.3,3.07,.11,1.12-.07,1.26-.13,1.85-.03,.21-.05,.43-.07,.69-.02,.28-.03,.6-.09,.7-.09-.78,.07-1.9-.07-2.64-.17-.64-.33-.38-.49,.2-.04,.19-.08,.41-.11,.68-.09,.94,.05,3.09-.29,2.71-.09,.34-.14,.87-.16,1.55,0,.65,.03,1.23,.06,1.81,.06,.78,0,1.39-.05,2.05,0,.87-.03,1.7-.07,2.49,.09,1.46,.46,.15,.47,2.33,.22,1.78,0,3.23-.07,4.81-.08,1.14-.21,.64-.33,.64-.1,.14-.18,.54-.22,1.23-.02,.55-.02,1.09,.02,1.61,.18,1.59,.42,1.26,.66,1.01,.05-.12,.09-.27,.14-.48,.13-.32,.16-2.69,.4-1,.08,.86,.15,1.88,.33,2.02,.3,.24,.26,1.37,.14,2.68-.07,.38-.13,.76-.2,1.18-.03,.21-.06,.43-.08,.66-.08,.7-.22,.94-.29,1.74-.11,1.07,.02,2.45-.09,3.56-.14,.66-.06-.24-.08-.47,0-.29,0-.59-.02-.87-.05-.76-.14-1.29-.24-1.67-.16-.48-.34-.9-.47,.19-.14,1.13,.05,1.92,.1,2.81,.1,1.6,.07,2.75-.19,3.37-.18,.59-.34-1-.52-.21-.11,.82-.16,1.72-.09,2.8,.05,.4,.11,.64,.18,.8,.09,.25,.22,.28,.15,1.39-.07,.78-.19,1.32-.22,2.26,.02,.9,.11,1.4,.21,1.87,.24,.58,.55,.6,.61,2.96,.04,.17,.08,.23,.13,.23-.07,.04-.13-.02-.19,.22-.1,1.02,.02,1.77,.07,2.61,.06,.77,.13,1.54,.16,2.41,.02,.58,0,1.19,.05,1.73,.03,.23,.06,.43,.1,.59,.23,2.59-.25,.89-.26,2.06-.11,.9-.15,1.84-.03,2.86,.06,.26,.11,.56,.17,.77,.64,2.3,1.17,5.2,1.26,10.61,.34,1.31,.68,2.51,1.05,.41,.08-.68,.12-1.47,.13-2.32,0-.79-.06-1.39-.11-2.05-.02-1.27,.1-.7,.19-.7,.23,.47,.4-.23,.51-1.57,.13-1.51,.29-2.93,.37-4.62,.03-1.83,.2-3.09,.37-4.34,.03-.26,.05-.54,.07-.83,.08-1.07,.11-2.2,.12-3.39-.07-1.95,.13-4.2-.04-5.84-.39-3.8-.52-8.44-.9-12.22-.07-.82-.17-1.55-.21-2.48-.02-.3-.04-.59-.06-.88-.07-1.44-.14-2.89-.22-4.32-.24-4.29-.2-8.77-.18-13.24,0-.99,.06-1.93,.21-2.19,.11-.2,.11,.68,.15,1.17,.13,2.92-.04,6.14,.19,8.96,.57,7.09,1.22,13.76,2,19.82,.45,1.78,.62-1.11,.87-2.54,.15-1.29,.17-2.76,.12-4.32-.03-.97-.11-1.86-.13-2.77,0,.24,.01,.48,.07,.67,.23-.66,.19-2.13,.21-3.41,0-.38,0-.77,0-1.15-.02-1.38,.03-2.69,.08-3.99,.04-2.26,0-4.53,.03-6.79,.06-1.95,.09-3.91,.1-5.92,.02-9.14-.09-18.3,.1-27.41,0-.83,0-1.66-.03-2.48-.11-3.58-.12-7.16,0-10.74,.03-.34,.05-.7,.05-1.08-.09-3.61,.17-7.13,.05-10.74-.07-1.22-.07-2.51-.08-3.8,0-1.44-.03-2.84-.27-3.4-.19-.13-.24-1-.23-2.16-.04-.56-.1-.96-.16-1.42-.07-.6-.08-1.39-.12-2.07-.02-.28-.05-.54-.08-.75-.08-.38-.17-.63-.25-.01-.15,1.38-.03,3.12-.13,4.56,0,.53,0,1.02,.04,1.49,0,.11,0,.22,0,.33,0-.05,0-.1,0-.14-.09-1.14-.08-2.41-.1-3.65,0-.31-.02-.61-.05-.88-.14-.92-.21-2.07-.24-3.35h.19c.3-1.38,.31-3.5,.31-5.66-.01-.33-.03-.65-.05-.95-.14-1.07-.11-2.32-.08-3.56-.21-2.18,.13-2.9,.23-4.26,.04-.81,.04-1.66,.04-2.5,.05-2.07-.13-3.68-.23-5.48,0-.09-.01-.16-.02-.23,0,0-.01-.17,.01,.1,.14,2.64,.28,1.25,.39-.1,.14-1.82-.03-5.55-.27-7.02-.25-1.49-.48-3.07-.25-5.61,.07-.38,.15-.72,.14-1.47-.02-.2-.05-.32-.07-.47,.04,.21,.08,.42,.11,.66,.04,.16,.09,.26,.13,.28,.39-.53,.52-1.87,.28-4.34-.08-.86-.13-1.85-.2-2.75-.05-.67-.13-1.23-.16-2,0-.39-.07-.69-.03-1.18,0,.49,.06,.87,.11,1.22,.04,.14,.08,.18,.13,.1,.04-.19,.06-.43,.08-.72,.04-.83,0-1.8,.12-2.47,.03-.24,.05-.5,.07-.79-.2-1.49-.16-3.59-.27-5.28-.08-1.08-.4-1.17-.32-2.7,.12-2.27,.02-4.06-.14-5.87,0-2.14,.13-4.36-.07-6.41-.12-.91-.28-1.62-.38-2.67-.16-1.28,0-2.83-.08-4.18-.03-2.37-.03-4.79-.21-6.92-.11-1.13-.06-2.35-.04-3.56,0-1.05-.09-1.72-.2-2.3-.08-.4-.17-.77-.12-1.62,.02-1.17,.2-.97,.29-1.65,.05-1.61,.33-2.35,.33-4.14,0-.66-.02-1.27-.07-1.86-.13-1.99,.05-3.69,.11-5.49,.03-.83,.04-1.67,.04-2.53,0-.51,0-1.01-.02-1.52-.02-1.24-.15-2.06-.26-3.01,.17-.24,.34-.2,.46-1.1,.09-1.95-.08-3.58-.16-5.22-.11-2.16,.01-2.72,.27-2.96,.06-1.22,.16-2.29,.22-3.5,0-.87-.04-1.61-.12-2.26-.21-1.16-.11-3.3-.25-4.41-.19-1.47,.07-1.5,.09-2.23,.02-.64,0-1.21-.06-1.73-.12-.93,0-1.94-.02-2.89-.04-1.48-.15-2.79-.24-4.17-.01-.32-.04-.79,.03-.82,.09-.04,.12,.71,.18,1.03,.04,.2,.08,.31,.13,.34,.11-.05,.18-.54,.22-1.23,.03-.67,.04-1.37,.03-2.07,0-.86-.04-1.67-.12-2.34-.07-.55-.19-.91-.15-1.88,.09-1.09,.18-2.2,.17-3.53,0-1.12-.06-2.1-.22-2.55-.23-.63-.21-1.95-.19-3.26,0-.5-.01-.99-.04-1.46-.06-1.41-.4-1.54-.34-3.41,0,1.47,.14,2.06,.35,2.03,.13-.18,.21-.71,.25-1.59-.02-1.3,.07-2.47,.09-3.72,0-.32-.02-.61-.05-.89-.07-.64-.11-1.43-.2-1.95-.1-.64-.24-.59-.41-1.04,.15-.42,.28-.63,.35-1.41,.03-.5,.02-.98-.02-1.44-.15-1.49-.49,.11-.61-1.82,.01-.29,.02-.59,.02-.89-.09-2.74,.27-2.9,.47-4.03,.03-.27,.04-.57,.05-.89,.01-1.79,.44-1.93,.34-4.15,0-.63-.09-1.4,.06-1.75,.19-.39,.38,.02,.58-.07,.04-.09,.08-.23,.12-.45,.04-1.98-.05-4.02,.05-5.98,.01-.84-.02-1.63-.05-2.43-.05-1.19-.13-2.14-.33-2.12-.04,.05-.08,.13-.12,.28-.06,.29-.13,.57-.15-.24,0-.72-.01-1.47,.05-2.15,.11-.75,.19,0,.28,.18,.05,.09,.09,.11,.14,.07,.24-.8,.11-1.85,.03-2.76-.08-.95-.23-1.6-.29-2.68-.07-1.34-.2-2.29-.4-2.73-.05-.09-.09-.16-.14-.18-.07-.03-.13-.02-.2,.07-.03,.06-.06,.12-.09,.21,.02-.54,.11-.77,.13-1.35,.02-.45,.03-.92,.03-1.39-.01-.79,.03-1.48,.1-2.08,.09-.91,.21-1.63,.29-2.6,.05-.95,.03-1.95,.03-2.93,.04-1.51,.05-3.05,.06-4.59-.01-4.76,.04-9.45,.32-13.88-.02-.31-.05-.54-.09-.7-.08-.3-.18,.32-.26-.21,.08-.45,.17-.75,.25-1.24,.09-.55,.17-1.16,.22-1.91,.07-1.25,.15-2.49,0-3.75-.08-.52-.19-.73-.23-1.51-.03-.88,.02-1.73,.02-2.61-.01-.78-.05-1.5-.1-2.18-.06-.69-.12-1.3-.22-1.76-.09-.37-.18-.88-.28-1.1-.25-.34-.14-2.32-.3-3.07-.11-1.12,.07-1.26,.13-1.85,.03-.21,.05-.43,.07-.69,.02-.28,.04-.6,.09-.7,.09,.78-.07,1.9,.07,2.64,.17,.64,.33,.38,.49-.2,.04-.19,.08-.41,.11-.68,.09-.94-.05-3.09,.29-2.71,.09-.34,.14-.87,.16-1.55,0-.65-.03-1.23-.06-1.81-.06-.78,0-1.39,.05-2.05,0-.87,.03-1.7,.07-2.49-.09-1.46-.46-.15-.47-2.33-.22-1.78,0-3.23,.07-4.81,.07-1.14,.21-.64,.33-.64,.1-.14,.18-.54,.22-1.23,.02-.55,.02-1.09-.02-1.61-.18-1.59-.42-1.26-.66-1.01-.05,.12-.09,.27-.14,.48-.13,.32-.16,2.69-.4,1-.08-.86-.15-1.88-.33-2.02-.3-.24-.26-1.37-.14-2.68,.07-.38,.14-.76,.2-1.18,.03-.21,.06-.43,.08-.66,.08-.7,.22-.94,.29-1.74,.11-1.07-.02-2.45,.09-3.56,.14-.66,.06,.24,.08,.47,0,.29,0,.59,.02,.87,.05,.75,.14,1.29,.24,1.67,.16,.48,.34,.9,.47-.19,.14-1.13-.05-1.92-.1-2.81-.1-1.6-.07-2.75,.19-3.37,.18-.59,.34,1,.52,.21,.11-.82,.16-1.72,.09-2.8-.05-.4-.11-.64-.18-.8-.09-.25-.22-.28-.15-1.39,.07-.78,.19-1.32,.22-2.26-.02-.9-.11-1.4-.21-1.87-.24-.58-.55-.6-.61-2.96-.04-.17-.08-.23-.13-.23,.06-.04,.13,.02,.19-.22,.1-1.02-.02-1.77-.07-2.61-.06-.77-.13-1.54-.16-2.41-.02-.58,0-1.19-.05-1.73-.03-.23-.06-.43-.1-.59-.23-2.59,.25-.89,.26-2.06,.11-.9,.15-1.84,.03-2.86-.06-.26-.11-.56-.17-.77-.64-2.3-1.17-5.2-1.27-10.61-.34-1.31-.68-2.51-1.05-.41Zm-2.94,434.34s0,.01-.01,.02c0-.03,.02-.05,.02-.08-.01-.46,.06,.02,0,.06Zm5.15-84.55c-.01,.59-.02,1.18,0,1.78-.02,.37,.09,.71,0,1.08,.01-.22,0-.43-.01-.59-.1-1.63-.02-3.28,0-4.93,.02,.89,.05,1.77,0,2.66Zm-.02-4.25v.04s0-.06,0-.09c0,.02,0,.04,0,.05Zm-.03-1.35c-.05-1.26-.04-2.51,.02-3.75,0-.37,0-.75,0-1.12,0,1.62-.05,3.26-.03,4.88Zm-4.99-225.91c0,.37,0,.75,0,1.12,0-1.62,.05-3.26,.03-4.88,.05,1.26,.04,2.51-.02,3.75Zm-.01-5.04s0-.04,0-.05v-.04s0,.06,0,.09Zm0-6.58c.1,1.63,.02,3.28,0,4.93-.02-.89-.06-1.77,0-2.66,.02-.59,.02-1.18,0-1.78,.02-.37-.09-.71,0-1.08-.01,.22,0,.43,.01,.59Zm5.13-82.22c.01,.46-.06-.02,0-.06,0-.01,0-.01,.01-.02,0,.03-.02,.05-.02,.08Z"/></svg>