<?xml version="1.0" encoding="UTF-8"?><svg xmlns="http://www.w3.org/2000/svg" viewBox="0 0 7.58 461"><defs><style>.d{fill:#333;}</style></defs><g id="a"/><g id="b"><g id="c"><path class="d" d="M4.11,1.14c-.08,.69-.12,1.47-.13,2.32,0,.79,.06,1.39,.11,2.05,.02,1.27-.1,.7-.19,.7-.23-.47-.4,.23-.51,1.57-.13,1.51-.29,2.93-.37,4.62-.03,1.83-.2,3.09-.37,4.34-.03,.26-.05,.54-.07,.83-.08,1.07-.11,2.2-.12,3.4,.07,1.95-.13,4.2,.04,5.84,.39,3.8,.52,8.44,.9,12.22,.07,.82,.17,1.55,.21,2.48,.02,.3,.04,.59,.06,.88,.07,1.44,.14,2.89,.22,4.32,.24,4.29,.2,8.77,.18,13.24,0,.99-.06,1.93-.21,2.19-.11,.2-.11-.68-.15-1.17-.13-2.91,.04-6.14-.19-8.96-.57-7.09-1.22-13.76-2-19.82-.45-1.79-.62,1.11-.87,2.54-.15,1.29-.17,2.76-.12,4.32,.03,.97,.11,1.86,.13,2.77,0-.24-.01-.48-.07-.67-.23,.66-.19,2.13-.21,3.41,0,.38,0,.77,0,1.15,.02,1.38-.03,2.69-.08,3.99-.04,2.26-.01,4.53-.03,6.79-.06,1.95-.09,3.91-.1,5.92-.02,9.14,.09,18.3-.1,27.41,0,.83,0,1.66,.03,2.48,.11,3.58,.12,7.16,0,10.74-.03,.34-.05,.7-.05,1.08,.09,3.61-.17,7.13-.05,10.74,.07,1.22,.07,2.51,.08,3.8,0,1.44,.03,2.84,.27,3.4,.19,.13,.24,1,.23,2.16,.04,.56,.1,.96,.16,1.41,.07,.6,.08,1.39,.12,2.07,.02,.28,.05,.54,.08,.75,.08,.38,.17,.63,.25,.01,.15-1.38,.03-3.12,.13-4.56,0-.53,0-1.02-.04-1.49,0-.11,0-.22,0-.33,0,.05,0,.1,0,.14,.09,1.14,.08,2.41,.1,3.65,0,.31,.02,.61,.05,.88,.14,.92,.21,2.07,.24,3.35h-.19c-.3,1.38-.31,3.5-.31,5.66,.01,.33,.03,.65,.05,.95,.14,1.07,.11,2.32,.08,3.56,.21,2.18-.13,2.9-.23,4.26-.04,.81-.04,1.66-.04,2.5-.05,2.07,.13,3.68,.23,5.48l.02,.23s.01,.17-.01-.1c-.14-2.64-.28-1.25-.38,.1-.14,1.82,.03,5.55,.27,7.02,.25,1.49,.48,3.07,.25,5.61-.07,.38-.15,.72-.14,1.47,.02,.2,.05,.32,.07,.47-.04-.21-.08-.42-.11-.66-.04-.16-.09-.26-.13-.28-.39,.53-.52,1.87-.28,4.34,.08,.86,.13,1.85,.21,2.75,.05,.67,.13,1.23,.16,2,0,.39,.07,.69,.03,1.18,0-.49-.06-.87-.11-1.22-.04-.14-.08-.18-.13-.1-.04,.19-.06,.43-.08,.72-.04,.83,0,1.8-.12,2.47-.03,.24-.05,.5-.07,.79,.2,1.49,.16,3.58,.27,5.28,.08,1.08,.4,1.17,.32,2.7-.12,2.27-.02,4.06,.14,5.87,0,2.14-.13,4.36,.07,6.41,.12,.91,.28,1.62,.38,2.67,.16,1.28,0,2.83,.08,4.18,.03,2.37,.03,4.79,.21,6.92,.11,1.14,.06,2.35,.04,3.56,0,1.05,.09,1.72,.2,2.3,.08,.4,.17,.77,.12,1.62-.02,1.17-.2,.97-.29,1.65-.05,1.61-.32,2.35-.33,4.14,0,.66,.02,1.27,.07,1.86,.13,1.99-.05,3.69-.11,5.49-.03,.83-.04,1.67-.04,2.53,0,.51,0,1.01,.02,1.52,.02,1.24,.15,2.06,.26,3.01-.17,.24-.34,.2-.47,1.09-.09,1.95,.08,3.58,.16,5.22,.11,2.16-.01,2.72-.27,2.96-.06,1.22-.16,2.29-.22,3.5,0,.87,.04,1.61,.12,2.26,.21,1.16,.11,3.3,.25,4.41,.19,1.47-.07,1.5-.09,2.23-.02,.64,0,1.21,.06,1.73,.12,.93,0,1.94,.02,2.89,.04,1.48,.15,2.79,.24,4.17,.01,.32,.04,.79-.03,.82-.09,.04-.12-.71-.18-1.03-.04-.2-.08-.31-.13-.34-.11,.05-.18,.54-.22,1.23-.03,.68-.04,1.37-.03,2.07,0,.86,.04,1.67,.12,2.34,.07,.55,.19,.91,.15,1.88-.09,1.09-.18,2.2-.17,3.53,0,1.12,.06,2.1,.22,2.55,.23,.63,.21,1.95,.19,3.26,0,.5,.01,.99,.04,1.46,.06,1.41,.4,1.54,.34,3.41,0-1.47-.14-2.06-.35-2.03-.13,.18-.21,.71-.25,1.59,.02,1.3-.07,2.47-.09,3.72,0,.32,.03,.61,.05,.89,.07,.64,.11,1.43,.2,1.95,.1,.64,.24,.59,.41,1.04-.15,.42-.28,.63-.35,1.41-.03,.5-.02,.98,.02,1.44,.15,1.49,.49-.11,.61,1.82-.01,.29-.02,.59-.02,.9,.09,2.74-.27,2.9-.47,4.03-.03,.27-.04,.57-.05,.89-.01,1.79-.44,1.93-.34,4.15,0,.63,.09,1.4-.06,1.75-.19,.39-.38-.02-.58,.07-.04,.09-.08,.23-.12,.45-.05,1.98,.05,4.02-.05,5.98-.01,.84,.02,1.63,.05,2.43,.05,1.19,.13,2.14,.33,2.12,.04-.05,.08-.13,.12-.28,.06-.29,.13-.57,.15,.24,0,.72,.01,1.47-.05,2.15-.11,.75-.19,0-.28-.18-.05-.09-.09-.11-.14-.07-.24,.81-.11,1.85-.03,2.76,.08,.95,.23,1.6,.29,2.68,.07,1.34,.2,2.29,.4,2.73,.05,.09,.09,.16,.14,.18,.07,.03,.13,.02,.2-.07,.03-.06,.06-.12,.09-.21-.02,.54-.11,.77-.13,1.35-.02,.45-.03,.92-.03,1.39,.01,.79-.03,1.48-.1,2.07-.09,.91-.21,1.63-.29,2.6-.05,.95-.03,1.95-.03,2.93-.04,1.51-.05,3.05-.06,4.59,.01,4.76-.04,9.45-.32,13.88,.02,.31,.05,.54,.09,.7,.08,.3,.18-.32,.26,.21-.08,.45-.17,.75-.25,1.24-.09,.55-.17,1.16-.22,1.91-.07,1.25-.15,2.49,0,3.75,.08,.52,.19,.73,.23,1.51,.03,.88-.02,1.73-.02,2.61,.01,.78,.05,1.5,.1,2.18,.06,.69,.12,1.3,.22,1.76,.09,.37,.18,.88,.28,1.1,.25,.34,.14,2.33,.3,3.07,.11,1.12-.07,1.26-.13,1.85-.03,.21-.05,.43-.07,.69-.02,.28-.03,.6-.09,.7-.09-.78,.07-1.9-.07-2.64-.17-.64-.33-.38-.49,.2-.04,.19-.08,.41-.11,.68-.09,.94,.05,3.09-.29,2.71-.09,.34-.14,.87-.16,1.55,0,.65,.03,1.23,.06,1.81,.06,.78,0,1.39-.05,2.05,0,.87-.03,1.7-.07,2.49,.09,1.46,.46,.15,.47,2.33,.22,1.78,0,3.23-.07,4.81-.08,1.14-.21,.64-.33,.64-.1,.14-.18,.54-.22,1.23-.02,.55-.02,1.09,.02,1.61,.18,1.59,.42,1.26,.66,1.01,.05-.12,.09-.27,.14-.48,.13-.32,.16-2.69,.4-1,.08,.86,.15,1.88,.33,2.02,.3,.24,.26,1.37,.14,2.68-.07,.38-.13,.76-.2,1.18-.03,.21-.06,.43-.08,.66-.08,.7-.22,.94-.29,1.74-.11,1.07,.02,2.45-.09,3.56-.14,.66-.06-.24-.08-.47,0-.29,0-.59-.02-.87-.05-.76-.14-1.29-.24-1.67-.16-.48-.34-.9-.47,.19-.14,1.13,.05,1.92,.1,2.81,.1,1.6,.07,2.75-.19,3.37-.18,.59-.34-1-.52-.21-.11,.82-.16,1.72-.09,2.8,.05,.4,.11,.64,.18,.8,.09,.25,.22,.28,.15,1.39-.07,.78-.19,1.32-.22,2.26,.02,.9,.11,1.4,.21,1.87,.24,.58,.55,.6,.61,2.96,.04,.17,.08,.23,.13,.23-.07,.04-.13-.02-.19,.22-.1,1.02,.02,1.77,.07,2.61,.06,.77,.13,1.54,.16,2.41,.02,.58,0,1.19,.05,1.73,.03,.23,.06,.43,.1,.59,.23,2.59-.25,.89-.26,2.06-.11,.9-.15,1.84-.03,2.86,.06,.26,.11,.56,.17,.77,.64,2.3,1.17,5.2,1.26,10.61,.34,1.31,.68,2.51,1.05,.41,.08-.68,.12-1.47,.13-2.32,0-.79-.06-1.39-.11-2.05-.02-1.27,.1-.7,.19-.7,.23,.47,.4-.23,.51-1.57,.13-1.51,.29-2.93,.37-4.62,.03-1.83,.2-3.09,.37-4.34,.03-.26,.05-.54,.07-.83,.08-1.07,.11-2.2,.12-3.39-.07-1.95,.13-4.2-.04-5.84-.39-3.8-.52-8.44-.9-12.22-.07-.82-.17-1.55-.21-2.48-.02-.3-.04-.59-.06-.88-.07-1.44-.14-2.89-.22-4.32-.24-4.29-.2-8.77-.18-13.24,0-.99,.06-1.93,.21-2.19,.11-.2,.11,.68,.15,1.17,.13,2.92-.04,6.14,.19,8.96,.57,7.09,1.22,13.76,2,19.82,.45,1.78,.62-1.11,.87-2.54,.15-1.29,.17-2.76,.12-4.32-.03-.97-.11-1.86-.13-2.77,0,.24,.01,.48,.07,.67,.23-.66,.19-2.13,.21-3.41,0-.38,0-.77,0-1.15-.02-1.38,.03-2.69,.08-3.99,.04-2.26,0-4.53,.03-6.79,.06-1.95,.09-3.91,.1-5.92,.02-9.14-.09-18.3,.1-27.41,0-.83,0-1.66-.03-2.48-.11-3.58-.12-7.16,0-10.74,.03-.34,.05-.7,.05-1.08-.09-3.61,.17-7.13,.05-10.74-.07-1.22-.07-2.51-.08-3.8,0-1.44-.03-2.84-.27-3.4-.19-.13-.24-1-.23-2.16-.04-.56-.1-.96-.16-1.42-.07-.6-.08-1.39-.12-2.07-.02-.28-.05-.54-.08-.75-.08-.38-.17-.63-.25-.01-.15,1.38-.03,3.12-.13,4.56,0,.53,0,1.02,.04,1.49,0,.11,0,.22,0,.33,0-.05,0-.1,0-.14-.09-1.14-.08-2.41-.1-3.65,0-.31-.02-.61-.05-.88-.14-.92-.21-2.07-.24-3.35h.19c.3-1.38,.31-3.5,.31-5.66-.01-.33-.03-.65-.05-.95-.14-1.07-.11-2.32-.08-3.56-.21-2.18,.13-2.9,.23-4.26,.04-.81,.04-1.66,.04-2.5,.05-2.07-.13-3.68-.23-5.48,0-.09-.01-.16-.02-.23,0,0-.01-.17,.01,.1,.14,2.64,.28,1.25,.39-.1,.14-1.82-.03-5.55-.27-7.02-.25-1.49-.48-3.07-.25-5.61,.07-.38,.15-.72,.14-1.47-.02-.2-.05-.32-.07-.47,.04,.21,.08,.42,.11,.66,.04,.16,.09,.26,.13,.28,.39-.53,.52-1.87,.28-4.34-.08-.86-.13-1.85-.2-2.75-.05-.67-.13-1.23-.16-2,0-.39-.07-.69-.03-1.18,0,.49,.06,.87,.11,1.22,.04,.14,.08,.18,.13,.1,.04-.19,.06-.43,.08-.72,.04-.83,0-1.8,.12-2.47,.03-.24,.05-.5,.07-.79-.2-1.49-.16-3.59-.27-5.28-.08-1.08-.4-1.17-.32-2.7,.12-2.27,.02-4.06-.14-5.87,0-2.14,.13-4.36-.07-6.41-.12-.91-.28-1.62-.38-2.67-.16-1.28,0-2.83-.08-4.18-.03-2.37-.03-4.79-.21-6.92-.11-1.13-.06-2.35-.04-3.56,0-1.05-.09-1.72-.2-2.3-.08-.4-.17-.77-.12-1.62,.02-1.17,.2-.97,.29-1.65,.05-1.61,.33-2.35,.33-4.14,0-.66-.02-1.27-.07-1.86-.13-1.99,.05-3.69,.11-5.49,.03-.83,.04-1.67,.04-2.53,0-.51,0-1.01-.02-1.52-.02-1.24-.15-2.06-.26-3.01,.17-.24,.34-.2,.46-1.1,.09-1.95-.08-3.58-.16-5.22-.11-2.16,.01-2.72,.27-2.96,.06-1.22,.16-2.29,.22-3.5,0-.87-.04-1.61-.12-2.26-.21-1.16-.11-3.3-.25-4.41-.19-1.47,.07-1.5,.09-2.23,.02-.64,0-1.21-.06-1.73-.12-.93,0-1.94-.02-2.89-.04-1.48-.15-2.79-.24-4.17-.01-.32-.04-.79,.03-.82,.09-.04,.12,.71,.18,1.03,.04,.2,.08,.31,.13,.34,.11-.05,.18-.54,.22-1.23,.03-.67,.04-1.37,.03-2.07,0-.86-.04-1.67-.12-2.34-.07-.55-.19-.91-.15-1.88,.09-1.09,.18-2.2,.17-3.53,0-1.12-.06-2.1-.22-2.55-.23-.63-.21-1.95-.19-3.26,0-.5-.01-.99-.04-1.46-.06-1.41-.4-1.54-.34-3.41,0,1.47,.14,2.06,.35,2.03,.13-.18,.21-.71,.25-1.59-.02-1.3,.07-2.47,.09-3.72,0-.32-.02-.61-.05-.89-.07-.64-.11-1.43-.2-1.95-.1-.64-.24-.59-.41-1.04,.15-.42,.28-.63,.35-1.41,.03-.5,.02-.98-.02-1.44-.15-1.49-.49,.11-.61-1.82,.01-.29,.02-.59,.02-.89-.09-2.74,.27-2.9,.47-4.03,.03-.27,.04-.57,.05-.89,.01-1.79,.44-1.93,.34-4.15,0-.63-.09-1.4,.06-1.75,.19-.39,.38,.02,.58-.07,.04-.09,.08-.23,.12-.45,.04-1.98-.05-4.02,.05-5.98,.01-.84-.02-1.63-.05-2.43-.05-1.19-.13-2.14-.33-2.12-.04,.05-.08,.13-.12,.28-.06,.29-.13,.57-.15-.24,0-.72-.01-1.47,.05-2.15,.11-.75,.19,0,.28,.18,.05,.09,.09,.11,.14,.07,.24-.8,.11-1.85,.03-2.76-.08-.95-.23-1.6-.29-2.68-.07-1.34-.2-2.29-.4-2.73-.05-.09-.09-.16-.14-.18-.07-.03-.13-.02-.2,.07-.03,.06-.06,.12-.09,.21,.02-.54,.11-.77,.13-1.35,.02-.45,.03-.92,.03-1.39-.01-.79,.03-1.48,.1-2.08,.09-.91,.21-1.63,.29-2.6,.05-.95,.03-1.95,.03-2.93,.04-1.51,.05-3.05,.06-4.59-.01-4.76,.04-9.45,.32-13.88-.02-.31-.05-.54-.09-.7-.08-.3-.18,.32-.26-.21,.08-.45,.17-.75,.25-1.24,.09-.55,.17-1.16,.22-1.91,.07-1.25,.15-2.49,0-3.75-.08-.52-.19-.73-.23-1.51-.03-.88,.02-1.73,.02-2.61-.01-.78-.05-1.5-.1-2.18-.06-.69-.12-1.3-.22-1.76-.09-.37-.18-.88-.28-1.1-.25-.34-.14-2.32-.3-3.07-.11-1.12,.07-1.26,.13-1.85,.03-.21,.05-.43,.07-.69,.02-.28,.04-.6,.09-.7,.09,.78-.07,1.9,.07,2.64,.17,.64,.33,.38,.49-.2,.04-.19,.08-.41,.11-.68,.09-.94-.05-3.09,.29-2.71,.09-.34,.14-.87,.16-1.55,0-.65-.03-1.23-.06-1.81-.06-.78,0-1.39,.05-2.05,0-.87,.03-1.7,.07-2.49-.09-1.46-.46-.15-.47-2.33-.22-1.78,0-3.23,.07-4.81,.07-1.14,.21-.64,.33-.64,.1-.14,.18-.54,.22-1.23,.02-.55,.02-1.09-.02-1.61-.18-1.59-.42-1.26-.66-1.01-.05,.12-.09,.27-.14,.48-.13,.32-.16,2.69-.4,1-.08-.86-.15-1.88-.33-2.02-.3-.24-.26-1.37-.14-2.68,.07-.38,.14-.76,.2-1.18,.03-.21,.06-.43,.08-.66,.08-.7,.22-.94,.29-1.74,.11-1.07-.02-2.45,.09-3.56,.14-.66,.06,.24,.08,.47,0,.29,0,.59,.02,.87,.05,.75,.14,1.29,.24,1.67,.16,.48,.34,.9,.47-.19,.14-1.13-.05-1.92-.1-2.81-.1-1.6-.07-2.75,.19-3.37,.18-.59,.34,1,.52,.21,.11-.82,.16-1.72,.09-2.8-.05-.4-.11-.64-.18-.8-.09-.25-.22-.28-.15-1.39,.07-.78,.19-1.32,.22-2.26-.02-.9-.11-1.4-.21-1.87-.24-.58-.55-.6-.61-2.96-.04-.17-.08-.23-.13-.23,.06-.04,.13,.02,.19-.22,.1-1.02-.02-1.77-.07-2.61-.06-.77-.13-1.54-.16-2.41-.02-.58,0-1.19-.05-1.73-.03-.23-.06-.43-.1-.59-.23-2.59,.25-.89,.26-2.06,.11-.9,.15-1.84,.03-2.86-.06-.26-.11-.56-.17-.77-.64-2.3-1.17-5.2-1.27-10.61-.34-1.31-.68-2.51-1.05-.41ZM1.17,435.48s0,.01-.01,.02c0-.03,.02-.05,.02-.08-.01-.46,.06,.02,0,.06Zm5.15-84.55c-.01,.59-.02,1.18,0,1.78-.02,.37,.09,.71,0,1.08,.01-.22,0-.43-.01-.59-.1-1.63-.02-3.28,0-4.93,.02,.89,.05,1.77,0,2.66Zm-.02-4.25v.04s0-.06,0-.09c0,.02,0,.04,0,.05Zm-.03-1.35c-.05-1.26-.04-2.51,.02-3.75,0-.37,0-.75,0-1.12,0,1.62-.05,3.26-.03,4.88ZM1.29,119.42c0,.37,0,.75,0,1.12,0-1.62,.05-3.26,.03-4.88,.05,1.26,.04,2.51-.02,3.75Zm-.01-5.04s0-.04,0-.05v-.04s0,.06,0,.09Zm0-6.58c.1,1.63,.02,3.28,0,4.93-.02-.89-.06-1.77,0-2.66,.02-.59,.02-1.18,0-1.78,.02-.37-.09-.71,0-1.08-.01,.22,0,.43,.01,.59ZM6.4,25.58c.01,.46-.06-.02,0-.06,0-.01,0-.01,.01-.02,0,.03-.02,.05-.02,.08Z"/></g></g></svg>