<?xml version="1.0" encoding="UTF-8"?><svg id="a" xmlns="http://www.w3.org/2000/svg" viewBox="0 0 7.64 656.35"><defs><style>.b{fill:#333;}</style></defs><path class="b" d="M4.16,1.64c-.08,.98-.12,2.09-.13,3.3,0,1.12,.06,1.98,.11,2.92,.02,1.81-.1,1-.19,1-.23-.67-.4,.33-.51,2.24-.13,2.15-.29,4.17-.37,6.58-.03,2.61-.2,4.4-.37,6.18-.03,.37-.05,.77-.07,1.18-.08,1.52-.11,3.13-.12,4.84,.07,2.78-.13,5.98,.04,8.31,.39,5.41,.52,12.02,.9,17.4,.07,1.17,.17,2.21,.21,3.53,.02,.43,.04,.84,.06,1.25,.07,2.05,.14,4.11,.22,6.15,.24,6.11,.2,12.49,.18,18.85,0,1.41-.06,2.75-.21,3.12-.11,.28-.11-.97-.15-1.67-.13-4.14,.04-8.74-.19-12.76-.57-10.09-1.22-19.59-2-28.22-.45-2.55-.62,1.58-.87,3.62-.15,1.84-.17,3.93-.12,6.15,.03,1.38,.11,2.65,.13,3.94,0-.34-.01-.68-.07-.95-.23,.94-.19,3.03-.21,4.86v1.64c.02,1.96-.03,3.83-.08,5.68-.04,3.22-.01,6.45-.03,9.67-.06,2.78-.09,5.57-.1,8.43-.02,13.01,.09,26.06-.1,39.03,0,1.18,0,2.36,.03,3.53,.11,5.1,.12,10.19,0,15.29-.03,.48-.05,1-.05,1.54,.09,5.14-.17,10.15-.05,15.29,.07,1.74,.07,3.57,.08,5.41,0,2.05,.03,4.04,.27,4.84,.19,.19,.24,1.42,.23,3.08,.04,.8,.1,1.37,.16,2.01,.07,.85,.08,1.98,.12,2.95,.02,.4,.05,.77,.08,1.07,.08,.54,.17,.9,.25,.01,.15-1.96,.03-4.44,.13-6.49,0-.75,0-1.45-.04-2.12v-.27c.09,1.62,.08,3.43,.1,5.2,0,.44,.02,.87,.05,1.25,.14,1.31,.21,2.95,.24,4.77h-.19c-.3,1.96-.31,4.98-.31,8.06,.01,.47,.03,.93,.05,1.35,.14,1.52,.11,3.3,.08,5.07,.21,3.1-.13,4.13-.23,6.07-.04,1.15-.04,2.36-.04,3.56-.05,2.95,.13,5.24,.23,7.8l.02,.33s.01,.24-.01-.14c-.14-3.76-.28-1.78-.38,.14-.14,2.59,.03,7.9,.27,9.99,.25,2.12,.48,4.37,.25,7.99-.07,.54-.15,1.03-.14,2.09,.02,.28,.05,.46,.07,.67-.04-.3-.08-.6-.11-.94-.04-.23-.09-.37-.13-.4-.39,.75-.52,2.66-.28,6.18,.08,1.22,.13,2.63,.21,3.92,.05,.95,.13,1.75,.16,2.85,0,.56,.07,.98,.03,1.68,0-.7-.06-1.24-.11-1.74-.04-.2-.08-.26-.13-.14-.04,.27-.06,.61-.08,1.03-.04,1.18,0,2.56-.12,3.52-.03,.34-.05,.71-.07,1.12,.2,2.12,.16,5.1,.27,7.52,.08,1.54,.4,1.67,.32,3.84-.12,3.23-.02,5.78,.14,8.36,0,3.05-.13,6.21,.07,9.13,.12,1.3,.28,2.31,.38,3.8,.16,1.82,0,4.03,.08,5.95,.03,3.37,.03,6.82,.21,9.85,.11,1.62,.06,3.35,.04,5.07,0,1.49,.09,2.45,.2,3.27,.08,.57,.17,1.1,.12,2.31-.02,1.67-.2,1.38-.29,2.35-.05,2.29-.32,3.35-.33,5.89,0,.94,.02,1.81,.07,2.65,.13,2.83-.05,5.25-.11,7.82-.03,1.18-.04,2.38-.04,3.6,0,.73,0,1.44,.02,2.16,.02,1.77,.15,2.93,.26,4.29-.17,.34-.34,.28-.47,1.55-.09,2.78,.08,5.1,.16,7.43,.11,3.08-.01,3.87-.27,4.21-.06,1.74-.16,3.26-.22,4.98,0,1.24,.04,2.29,.12,3.22,.21,1.65,.11,4.7,.25,6.28,.19,2.09-.07,2.14-.09,3.18-.02,.91,0,1.72,.06,2.46,.12,1.32,0,2.76,.02,4.11,.04,2.11,.15,3.97,.24,5.94,.01,.46,.04,1.12-.03,1.17-.09,.06-.12-1.01-.18-1.47-.04-.28-.08-.44-.13-.48-.11,.07-.18,.77-.22,1.75-.03,.97-.04,1.95-.03,2.95,0,1.22,.04,2.38,.12,3.33,.07,.78,.19,1.3,.15,2.68-.09,1.55-.18,3.13-.17,5.03,0,1.59,.06,2.99,.22,3.63,.23,.9,.21,2.78,.19,4.64,0,.71,.01,1.41,.04,2.08,.06,2.01,.4,2.19,.34,4.86,0-2.09-.14-2.93-.35-2.89-.13,.26-.21,1.01-.25,2.26,.02,1.85-.07,3.52-.09,5.3,0,.46,.03,.87,.05,1.27,.07,.91,.11,2.04,.2,2.78,.1,.91,.24,.84,.41,1.48-.15,.6-.28,.9-.35,2.01-.03,.71-.02,1.4,.02,2.05,.15,2.12,.49-.16,.61,2.59-.01,.41-.02,.84-.02,1.28,.09,3.9-.27,4.13-.47,5.74-.03,.38-.04,.81-.05,1.27-.01,2.55-.44,2.75-.34,5.91,0,.9,.09,1.99-.06,2.49-.19,.56-.38-.03-.58,.1-.04,.13-.08,.33-.12,.64-.05,2.82,.05,5.72-.05,8.51-.01,1.2,.02,2.32,.05,3.46,.05,1.69,.13,3.05,.33,3.02,.04-.07,.08-.19,.12-.4,.06-.41,.13-.81,.15,.34,0,1.03,.01,2.09-.05,3.06-.11,1.07-.19,0-.28-.26-.05-.13-.09-.16-.14-.1-.24,1.15-.11,2.63-.03,3.93,.08,1.35,.23,2.28,.29,3.82,.07,1.91,.2,3.26,.4,3.89,.05,.13,.09,.23,.14,.26,.07,.04,.13,.03,.2-.1,.03-.09,.06-.17,.09-.3-.02,.77-.11,1.1-.13,1.92-.02,.64-.03,1.31-.03,1.98,.01,1.12-.03,2.11-.1,2.95-.09,1.3-.21,2.32-.29,3.7-.05,1.35-.03,2.78-.03,4.17-.04,2.15-.05,4.34-.06,6.54,.01,6.78-.04,13.45-.32,19.76,.02,.44,.05,.77,.09,1,.08,.43,.18-.46,.26,.3-.08,.64-.17,1.07-.25,1.77-.09,.78-.17,1.65-.22,2.72-.07,1.78-.15,3.55,0,5.34,.08,.74,.19,1.04,.23,2.15,.03,1.25-.02,2.46-.02,3.72,.01,1.11,.05,2.14,.1,3.1,.06,.98,.12,1.85,.22,2.51,.09,.53,.18,1.25,.28,1.57,.25,.48,.14,3.32,.3,4.37,.11,1.59-.07,1.79-.13,2.63-.03,.3-.05,.61-.07,.98-.02,.4-.03,.85-.09,1-.09-1.11,.07-2.71-.07-3.76-.17-.91-.33-.54-.49,.28-.04,.27-.08,.58-.11,.97-.09,1.34,.05,4.4-.29,3.86-.09,.48-.14,1.24-.16,2.21,0,.93,.03,1.75,.06,2.58,.06,1.11,0,1.98-.05,2.92,0,1.24-.03,2.42-.07,3.55,.09,2.08,.46,.21,.47,3.32,.22,2.53,0,4.6-.07,6.85-.08,1.62-.21,.91-.33,.91-.1,.2-.18,.77-.22,1.75-.02,.78-.02,1.55,.02,2.29,.18,2.26,.42,1.79,.66,1.44,.05-.17,.09-.38,.14-.68,.13-.46,.16-3.83,.4-1.42,.08,1.22,.15,2.68,.33,2.88,.3,.34,.26,1.95,.14,3.82-.07,.54-.13,1.08-.2,1.68-.03,.3-.06,.61-.08,.94-.08,1-.22,1.34-.29,2.48-.11,1.52,.02,3.49-.09,5.07-.14,.94-.06-.34-.08-.67,0-.41,0-.84-.02-1.24-.05-1.08-.14-1.84-.24-2.38-.16-.68-.34-1.28-.47,.27-.14,1.61,.05,2.73,.1,4,.1,2.28,.07,3.92-.19,4.8-.18,.84-.34-1.42-.52-.3-.11,1.17-.16,2.45-.09,3.99,.05,.57,.11,.91,.18,1.14,.09,.36,.22,.4,.15,1.98-.07,1.11-.19,1.88-.22,3.22,.02,1.28,.11,1.99,.21,2.66,.24,.83,.55,.85,.61,4.21,.04,.24,.08,.33,.13,.33-.07,.06-.13-.03-.19,.31-.1,1.45,.02,2.52,.07,3.72,.06,1.1,.13,2.19,.16,3.43,.02,.83,0,1.69,.05,2.46,.03,.33,.06,.61,.1,.84,.23,3.69-.25,1.27-.26,2.93-.11,1.28-.15,2.62-.03,4.07,.06,.37,.11,.8,.17,1.1,.64,3.27,1.17,7.4,1.26,15.11,.34,1.87,.68,3.57,1.05,.58,.08-.97,.12-2.09,.13-3.3,0-1.12-.06-1.98-.11-2.92-.02-1.81,.1-1,.19-1,.23,.67,.4-.33,.51-2.24,.13-2.15,.29-4.17,.37-6.58,.03-2.61,.2-4.4,.37-6.18,.03-.37,.05-.77,.07-1.18,.08-1.52,.11-3.13,.12-4.83-.07-2.78,.13-5.98-.04-8.31-.39-5.41-.52-12.02-.9-17.4-.07-1.17-.17-2.21-.21-3.53-.02-.43-.04-.84-.06-1.25-.07-2.05-.14-4.11-.22-6.15-.24-6.11-.2-12.49-.18-18.85,0-1.41,.06-2.75,.21-3.12,.11-.28,.11,.97,.15,1.67,.13,4.16-.04,8.74,.19,12.76,.57,10.09,1.22,19.59,2,28.22,.45,2.53,.62-1.58,.87-3.62,.15-1.84,.17-3.93,.12-6.15-.03-1.38-.11-2.65-.13-3.94,0,.34,.01,.68,.07,.95,.23-.94,.19-3.03,.21-4.86v-1.64c-.02-1.96,.03-3.83,.08-5.68,.04-3.22,0-6.45,.03-9.67,.06-2.78,.09-5.57,.1-8.43,.02-13.01-.09-26.06,.1-39.03,0-1.18,0-2.36-.03-3.53-.11-5.1-.12-10.19,0-15.29,.03-.48,.05-1,.05-1.54-.09-5.14,.17-10.15,.05-15.29-.07-1.74-.07-3.57-.08-5.41,0-2.05-.03-4.04-.27-4.84-.19-.19-.24-1.42-.23-3.08-.04-.8-.1-1.37-.16-2.02-.07-.85-.08-1.98-.12-2.95-.02-.4-.05-.77-.08-1.07-.08-.54-.17-.9-.25-.01-.15,1.96-.03,4.44-.13,6.49,0,.75,0,1.45,.04,2.12v.27c-.09-1.62-.08-3.43-.1-5.2,0-.44-.02-.87-.05-1.25-.14-1.31-.21-2.95-.24-4.77h.19c.3-1.96,.31-4.98,.31-8.06-.01-.47-.03-.93-.05-1.35-.14-1.52-.11-3.3-.08-5.07-.21-3.1,.13-4.13,.23-6.07,.04-1.15,.04-2.36,.04-3.56,.05-2.95-.13-5.24-.23-7.8,0-.13-.01-.23-.02-.33,0,0-.01-.24,.01,.14,.14,3.76,.28,1.78,.39-.14,.14-2.59-.03-7.9-.27-9.99-.25-2.12-.48-4.37-.25-7.99,.07-.54,.15-1.03,.14-2.09-.02-.28-.05-.46-.07-.67,.04,.3,.08,.6,.11,.94,.04,.23,.09,.37,.13,.4,.39-.75,.52-2.66,.28-6.18-.08-1.22-.13-2.63-.2-3.92-.05-.95-.13-1.75-.16-2.85,0-.56-.07-.98-.03-1.68,0,.7,.06,1.24,.11,1.74,.04,.2,.08,.26,.13,.14,.04-.27,.06-.61,.08-1.03,.04-1.18,0-2.56,.12-3.52,.03-.34,.05-.71,.07-1.12-.2-2.12-.16-5.11-.27-7.52-.08-1.54-.4-1.67-.32-3.84,.12-3.23,.02-5.78-.14-8.36,0-3.05,.13-6.21-.07-9.13-.12-1.3-.28-2.31-.38-3.8-.16-1.82,0-4.03-.08-5.95-.03-3.37-.03-6.82-.21-9.85-.11-1.61-.06-3.35-.04-5.07,0-1.49-.09-2.45-.2-3.27-.08-.57-.17-1.1-.12-2.31,.02-1.67,.2-1.38,.29-2.35,.05-2.29,.33-3.35,.33-5.89,0-.94-.02-1.81-.07-2.65-.13-2.83,.05-5.25,.11-7.82,.03-1.18,.04-2.38,.04-3.6,0-.73,0-1.44-.02-2.16-.02-1.77-.15-2.93-.26-4.29,.17-.34,.34-.28,.46-1.57,.09-2.78-.08-5.1-.16-7.43-.11-3.08,.01-3.87,.27-4.21,.06-1.74,.16-3.26,.22-4.98,0-1.24-.04-2.29-.12-3.22-.21-1.65-.11-4.7-.25-6.28-.19-2.09,.07-2.14,.09-3.18,.02-.91,0-1.72-.06-2.46-.12-1.32,0-2.76-.02-4.11-.04-2.11-.15-3.97-.24-5.94-.01-.46-.04-1.12,.03-1.17,.09-.06,.12,1.01,.18,1.47,.04,.28,.08,.44,.13,.48,.11-.07,.18-.77,.22-1.75,.03-.95,.04-1.95,.03-2.95,0-1.22-.04-2.38-.12-3.33-.07-.78-.19-1.3-.15-2.68,.09-1.55,.18-3.13,.17-5.03,0-1.59-.06-2.99-.22-3.63-.23-.9-.21-2.78-.19-4.64,0-.71-.01-1.41-.04-2.08-.06-2.01-.4-2.19-.34-4.86,0,2.09,.14,2.93,.35,2.89,.13-.26,.21-1.01,.25-2.26-.02-1.85,.07-3.52,.09-5.3,0-.46-.02-.87-.05-1.27-.07-.91-.11-2.04-.2-2.78-.1-.91-.24-.84-.41-1.48,.15-.6,.28-.9,.35-2.01,.03-.71,.02-1.4-.02-2.05-.15-2.12-.49,.16-.61-2.59,.01-.41,.02-.84,.02-1.27-.09-3.9,.27-4.13,.47-5.74,.03-.38,.04-.81,.05-1.27,.01-2.55,.44-2.75,.34-5.91,0-.9-.09-1.99,.06-2.49,.19-.56,.38,.03,.58-.1,.04-.13,.08-.33,.12-.64,.04-2.82-.05-5.72,.05-8.51,.01-1.2-.02-2.32-.05-3.46-.05-1.69-.13-3.05-.33-3.02-.04,.07-.08,.19-.12,.4-.06,.41-.13,.81-.15-.34,0-1.03-.01-2.09,.05-3.06,.11-1.07,.19,0,.28,.26,.05,.13,.09,.16,.14,.1,.24-1.14,.11-2.63,.03-3.93-.08-1.35-.23-2.28-.29-3.82-.07-1.91-.2-3.26-.4-3.89-.05-.13-.09-.23-.14-.26-.07-.04-.13-.03-.2,.1-.03,.09-.06,.17-.09,.3,.02-.77,.11-1.1,.13-1.92,.02-.64,.03-1.31,.03-1.98-.01-1.12,.03-2.11,.1-2.96,.09-1.3,.21-2.32,.29-3.7,.05-1.35,.03-2.78,.03-4.17,.04-2.15,.05-4.34,.06-6.54-.01-6.78,.04-13.45,.32-19.76-.02-.44-.05-.77-.09-1-.08-.43-.18,.46-.26-.3,.08-.64,.17-1.07,.25-1.77,.09-.78,.17-1.65,.22-2.72,.07-1.78,.15-3.55,0-5.34-.08-.74-.19-1.04-.23-2.15-.03-1.25,.02-2.46,.02-3.72-.01-1.11-.05-2.14-.1-3.1-.06-.98-.12-1.85-.22-2.51-.09-.53-.18-1.25-.28-1.57-.25-.48-.14-3.3-.3-4.37-.11-1.59,.07-1.79,.13-2.63,.03-.3,.05-.61,.07-.98,.02-.4,.04-.85,.09-1,.09,1.11-.07,2.71,.07,3.76,.17,.91,.33,.54,.49-.28,.04-.27,.08-.58,.11-.97,.09-1.34-.05-4.4,.29-3.86,.09-.48,.14-1.24,.16-2.21,0-.93-.03-1.75-.06-2.58-.06-1.11,0-1.98,.05-2.92,0-1.24,.03-2.42,.07-3.55-.09-2.08-.46-.21-.47-3.32-.22-2.53,0-4.6,.07-6.85,.07-1.62,.21-.91,.33-.91,.1-.2,.18-.77,.22-1.75,.02-.78,.02-1.55-.02-2.29-.18-2.26-.42-1.79-.66-1.44-.05,.17-.09,.38-.14,.68-.13,.46-.16,3.83-.4,1.42-.08-1.22-.15-2.68-.33-2.88-.3-.34-.26-1.95-.14-3.82,.07-.54,.14-1.08,.2-1.68,.03-.3,.06-.61,.08-.94,.08-1,.22-1.34,.29-2.48,.11-1.52-.02-3.49,.09-5.07,.14-.94,.06,.34,.08,.67,0,.41,0,.84,.02,1.24,.05,1.07,.14,1.84,.24,2.38,.16,.68,.34,1.28,.47-.27,.14-1.61-.05-2.73-.1-4-.1-2.28-.07-3.92,.19-4.8,.18-.84,.34,1.42,.52,.3,.11-1.17,.16-2.45,.09-3.99-.05-.57-.11-.91-.18-1.14-.09-.36-.22-.4-.15-1.98,.07-1.11,.19-1.88,.22-3.22-.02-1.28-.11-1.99-.21-2.66-.24-.83-.55-.85-.61-4.21-.04-.24-.08-.33-.13-.33,.06-.06,.13,.03,.19-.31,.1-1.45-.02-2.52-.07-3.72-.06-1.1-.13-2.19-.16-3.43-.02-.83,0-1.69-.05-2.46-.03-.33-.06-.61-.1-.84-.23-3.69,.25-1.27,.26-2.93,.11-1.28,.15-2.62,.03-4.07-.06-.37-.11-.8-.17-1.1-.64-3.27-1.17-7.4-1.27-15.11-.34-1.87-.68-3.57-1.05-.58h0ZM1.22,620.05s0,.01-.01,.03c0-.04,.02-.07,.02-.11-.01-.65,.06,.03,0,.09h-.01Zm5.15-120.38c-.01,.84-.02,1.68,0,2.53-.02,.53,.09,1.01,0,1.54,.01-.31,0-.61-.01-.84-.1-2.32-.02-4.67,0-7.02,.02,1.27,.05,2.52,0,3.79h.01Zm-.02-6.05v0Zm-.03-1.92c-.05-1.79-.04-3.57,.02-5.34v-1.59c0,2.31-.05,4.64-.03,6.95h.01ZM1.33,170.04v1.59c0-2.31,.05-4.64,.03-6.95,.05,1.79,.04,3.57-.02,5.34h-.01Zm-.01-7.16v0Zm0-9.37c.1,2.32,.02,4.67,0,7.02-.02-1.27-.06-2.52,0-3.79,.02-.84,.02-1.68,0-2.53,.02-.53-.09-1.01,0-1.54-.01,.31,0,.61,.01,.84h-.01ZM6.45,36.44c.01,.65-.06-.03,0-.09t.01-.03s-.02,.07-.02,.11h.01Z"/></svg>