<svg xmlns="http://www.w3.org/2000/svg" viewBox="0 0 118.55 1.95"><defs><style>.cls-1{fill:#333;}</style></defs><g id="Layer_2" data-name="Layer 2"><g id="Ñëîé_1" data-name="Ñëîé 1"><path class="cls-1" d="M118.26,1.06l-.6,0c-.21,0-.36,0-.53,0-.33,0-.18,0-.18-.05s-.06-.1-.4-.13-.76-.07-1.19-.09a7.86,7.86,0,0,1-1.12-.1l-.21,0c-.28,0-.57,0-.88,0-.5,0-1.08,0-1.5,0-1,.1-2.17.14-3.14.24l-.64.05-.22,0L106.54,1c-1.11.06-2.26.06-3.41.05a2.12,2.12,0,0,1-.56-.05s.17,0,.3,0c.75,0,1.58,0,2.3,0C107,.77,108.71.6,110.27.4c.46-.12-.29-.16-.65-.23a8,8,0,0,0-1.11,0c-.22,0-.42,0-.63,0H108a4,4,0,0,0-.87-.06h-.3c-.35,0-.69,0-1,0H104c-.5,0-1,0-1.52,0-2.35,0-4.71,0-7,0h-.64q-1.38,0-2.76,0h-.28C90.84,0,89.94,0,89,0c-.31,0-.65,0-1,0a2.79,2.79,0,0,0-.87.07s-.26.06-.56.06l-.36,0-.53,0-.19,0c-.1,0-.17,0,0,.06.35,0,.79,0,1.15,0H86a5.34,5.34,0,0,1-.86.06v0A7.79,7.79,0,0,0,83.63.31h-.24a6.91,6.91,0,0,1-.92,0A4.28,4.28,0,0,1,81.38.28h-.65c-.43,0-.78,0-1.14,0,.23,0,0-.06-.32-.08A11.71,11.71,0,0,0,77.46.3,5.14,5.14,0,0,1,76,.37a1.62,1.62,0,0,0-.38,0h0l.07,0A2,2,0,0,0,74.64.21c-.22,0-.47,0-.71.06l-.51,0h-.23l.24,0s0,0,0,0l-.19,0a4.16,4.16,0,0,1-.63,0h-.21c-.38,0-.92,0-1.36.07a3,3,0,0,1-.69.08,9.13,9.13,0,0,0-1.51,0c-.55,0-1.12,0-1.65,0a6,6,0,0,1-.69.1c-.32,0-.72,0-1.07,0-.61,0-1.23,0-1.78.06-.29,0-.61,0-.92,0a2.86,2.86,0,0,0-.59.05,1.4,1.4,0,0,1-.41,0,2.09,2.09,0,0,1-.43-.07c-.41,0-.6-.09-1.06-.09l-.48,0a13,13,0,0,1-1.41,0h-1c-.32,0-.53,0-.78.06-.06,0-.05-.09-.28-.12-.5,0-.92,0-1.34,0s-.7,0-.76-.07l-.9-.05a4.73,4.73,0,0,0-.58,0c-.3,0-.85,0-1.14.06a1.54,1.54,0,0,1-.57,0,3.17,3.17,0,0,0-.45,0c-.23,0-.49,0-.74,0s-.72,0-1.07.06a.66.66,0,0,1-.21,0s.18,0,.26,0l.09,0s-.14,0-.32-.06H48a5.34,5.34,0,0,0-.6,0,2,2,0,0,1-.48,0c-.29,0-.57,0-.91,0a2.18,2.18,0,0,0-.66.06,3.23,3.23,0,0,1-.83,0h-.38c-.28,0-.37.07-.64.07.21,0,.29,0,.29-.08A1.18,1.18,0,0,0,43.4.43c-.34,0-.64,0-1,0h-.23c-.16,0-.36,0-.5.06s-.15.06-.26.1a1.16,1.16,0,0,0-.37-.09,2.28,2.28,0,0,0-.37,0c-.38,0,0,.13-.47.16H40a2.76,2.76,0,0,1-1-.13h-.23c-.46,0-.5-.11-1.07-.09a1.61,1.61,0,0,1-.45,0c-.1-.05,0-.1,0-.15l-.12,0c-.51,0-1,0-1.53,0-.22,0-.42,0-.63,0s-.54,0-.54.08,0,0,.07,0,.15,0-.06,0a3.33,3.33,0,0,1-.55,0c-.2,0,0,0,0-.07s0,0,0,0a2.11,2.11,0,0,0-.71,0c-.25,0-.41.06-.69.07a2.54,2.54,0,0,0-.7.1l0,0s0,0,0,0l0,0c-.13,0-.19,0-.34,0h-.36a3,3,0,0,1-.54,0c-.23,0-.41-.06-.66-.08s-.51,0-.76,0L28,.37c-1.22,0-2.43,0-3.57-.08l-.18,0c-.08,0,.08,0,0,.07L23.87.32a3.12,3.12,0,0,0-.49-.06,5.24,5.24,0,0,0-1,0A2.31,2.31,0,0,1,22,.32h-.67l-.56,0a2.46,2.46,0,0,0-.45.06,1.26,1.26,0,0,0-.28.07c-.09.06-.6,0-.79.08a1.44,1.44,0,0,1-.48,0h-.18c-.07,0-.15,0-.17,0,.2,0,.48,0,.67,0s.1-.09-.05-.13l-.17,0c-.24,0-.8,0-.7-.07a1.63,1.63,0,0,0-.4-.05l-.46,0a3.07,3.07,0,0,1-.53,0l-.64,0c-.37,0,0,.12-.6.12a6.25,6.25,0,0,1-1.23,0c-.3,0-.17-.05-.17-.08a.62.62,0,0,0-.31-.06h-.42c-.4,0-.32.1-.26.17l.13,0c.08,0,.69,0,.25.1-.22,0-.48,0-.51.09s-.36.06-.69,0L12,.51l-.17,0c-.18,0-.24-.06-.45-.07s-.63,0-.91,0,.06,0,.12,0h.22a2.42,2.42,0,0,0,.43-.06c.13,0,.23-.09,0-.12a3.35,3.35,0,0,0-.72,0,2.14,2.14,0,0,1-.87,0C9.49.12,9.9.08,9.7,0A3.32,3.32,0,0,0,9,0a1.1,1.1,0,0,0-.21,0c-.06,0-.07.06-.36,0a4.65,4.65,0,0,0-.58,0,1.84,1.84,0,0,0-.48,0,1.26,1.26,0,0,1-.76.16s-.06,0-.06,0,0,0,0-.05a2.89,2.89,0,0,0-.67,0l-.62,0H4.74l-.15,0C3.92.39,4.36.26,4.06.26a3,3,0,0,0-.74,0L3.13.3A10.41,10.41,0,0,1,.4.62C.06.71-.25.8.29.89a5.47,5.47,0,0,0,.6,0,4.44,4.44,0,0,0,.53,0c.32,0,.18,0,.18,0s.06.11.4.14.76.07,1.19.09a7.86,7.86,0,0,1,1.12.1l.21,0,.87,0c.5,0,1.08,0,1.51,0,1-.1,2.17-.13,3.14-.23L10.68,1l.22,0L12,1c1.11-.07,2.26-.06,3.41,0A1.79,1.79,0,0,1,16,1c.05,0-.17,0-.3,0-.75,0-1.58,0-2.3.05-1.83.14-3.54.31-5.1.51-.46.12.28.16.65.23a9.8,9.8,0,0,0,1.11,0l.72,0-.18,0a3.7,3.7,0,0,0,.88.05h.29c.36,0,.7,0,1,0h1.75c.5,0,1,0,1.52,0,2.35,0,4.7,0,7.05,0h.63c.93,0,1.85,0,2.77,0l.28,0c.92,0,1.83,0,2.76,0,.31,0,.64,0,1,0a3.18,3.18,0,0,0,.88-.07c0-.05.26-.06.55-.06l.37,0c.15,0,.36,0,.53,0l.19,0c.1,0,.16,0,0-.07-.35,0-.79,0-1.15,0h.48l.23,0c.24,0,.53-.05.86-.06v.05a7.73,7.73,0,0,0,1.46.08h.24a5.55,5.55,0,0,1,.92,0,3.86,3.86,0,0,1,1.09.06h.64c.44,0,.79,0,1.15,0-.23,0,0,.06.32.08a11.71,11.71,0,0,0,1.81-.07,4.78,4.78,0,0,1,1.44-.07,1.62,1.62,0,0,0,.38,0h0l-.07,0a1.91,1.91,0,0,0,1.12.07l.7-.05.52,0h.23l-.24,0s0,0,0,0l.19,0c.21,0,.46,0,.63,0l.21,0c.38-.05.92,0,1.35-.07a3.14,3.14,0,0,1,.7-.08,9.17,9.17,0,0,0,1.51,0,15.08,15.08,0,0,0,1.65,0c.23,0,.41-.07.68-.09s.73,0,1.08,0c.61,0,1.23,0,1.78-.06.29,0,.6,0,.91,0a2.73,2.73,0,0,0,.59-.05,1.52,1.52,0,0,1,.42,0c.3,0,.25.05.42.07.42,0,.61.09,1.07.09l.48,0a13,13,0,0,1,1.41,0h1A7.56,7.56,0,0,0,62,1.4a.48.48,0,0,0,.29.12,11.31,11.31,0,0,0,1.34-.05c.55,0,.7,0,.76.07.31,0,.59.05.9.06a5,5,0,0,0,.58,0c.3-.05.85,0,1.14-.07a1.72,1.72,0,0,1,.57,0,3,3,0,0,0,.44,0,6.26,6.26,0,0,1,.75,0l1.07-.06a.69.69,0,0,1,.21,0s-.18,0-.26.05l-.09,0s.14.05.31.06h.54c.22,0,.43,0,.6,0a1.93,1.93,0,0,1,.48,0c.28,0,.57,0,.91,0a2.57,2.57,0,0,0,.66-.06A3.23,3.23,0,0,1,74,1.46h.38a4.46,4.46,0,0,0,.48-.06,1.43,1.43,0,0,1,.39,0l-.39,0c-.1,0-.14,0-.13.07a1.18,1.18,0,0,0,.41.06c.34,0,.64,0,1,0l.22,0a3.83,3.83,0,0,0,.51-.05c.16,0,.15-.06.26-.1a1.09,1.09,0,0,0,.37.09,2.29,2.29,0,0,0,.37,0c.38,0,0-.12.47-.15h.23a2.83,2.83,0,0,1,1,.12l.23,0a10,10,0,0,0,1.07.08,1.56,1.56,0,0,1,.45,0c.1.05,0,.1,0,.15l.11,0c.51,0,1,0,1.54,0,.22,0,.42,0,.63,0s.54,0,.54-.09l-.07,0c-.08,0-.15,0,.06,0a4.87,4.87,0,0,1,.55,0c.2,0,0,0,0,.07s0,0,0,0a1.87,1.87,0,0,0,.71,0c.24,0,.41-.06.69-.07a2.12,2.12,0,0,0,.7-.11l.05,0a0,0,0,0,0,0-.05l-.06,0,.35,0h.36a4.11,4.11,0,0,1,.53,0l.67.07c.25,0,.5,0,.76,0l1.18,0c1.22,0,2.42,0,3.57.08l.18,0c.07,0-.09,0,0-.07l.32.06a3.12,3.12,0,0,0,.49.06,5.24,5.24,0,0,0,1,0,2.34,2.34,0,0,1,.38-.06c.23,0,.45,0,.68,0l.56,0a4.14,4.14,0,0,0,.45-.06,1.63,1.63,0,0,0,.28-.07,7,7,0,0,1,.79-.08,1.55,1.55,0,0,1,.48,0l.17,0,.18,0c-.2,0-.48,0-.68,0s-.09.09,0,.13l.18,0c.24,0,.79,0,.7.07a1.28,1.28,0,0,0,.39,0,3.61,3.61,0,0,0,.47,0,3.07,3.07,0,0,1,.53,0l.64,0c.37,0,0-.12.6-.12a6.27,6.27,0,0,1,1.23,0c.29,0,.17.05.16.08a.71.71,0,0,0,.32.06h.41c.41,0,.33-.11.26-.17l-.12,0c-.08,0-.69,0-.26-.11.22,0,.49,0,.52-.08s.36-.07.69,0l.31.06.17,0c.18,0,.24.05.44.07s.63,0,.92,0-.06,0-.12,0h-.23a1.72,1.72,0,0,0-.42.06c-.13,0-.24.09,0,.12a3.35,3.35,0,0,0,.72,0,2.34,2.34,0,0,1,.86,0c.16.05-.25.09-.05.14a3.32,3.32,0,0,0,.72,0l.21,0c.06,0,.07-.06.35,0s.34,0,.58,0a1.79,1.79,0,0,0,.48,0A1.31,1.31,0,0,1,112,1.7l.06,0s0,0,0,0a4.75,4.75,0,0,0,.67,0l.62,0h.45l.15,0c.66-.06.23.07.53.07a2.55,2.55,0,0,0,.73,0,1,1,0,0,0,.2,0,10.41,10.41,0,0,1,2.73-.32C118.49,1.24,118.79,1.15,118.26,1.06Zm-90,.57h-.45a2.61,2.61,0,0,1-.28,0h.15c.42,0,.84,0,1.27,0C28.76,1.63,28.53,1.64,28.3,1.63ZM87.07.34h-.38l.43,0Zm3.67,0a1.22,1.22,0,0,1-.27,0c-.3,0-.6,0-.91,0,.23,0,.45,0,.68,0h.5a1,1,0,0,1,.24,0Z"/></g></g></svg>