<?xml version="1.0" encoding="UTF-8"?><svg id="a" xmlns="http://www.w3.org/2000/svg" viewBox="0 0 7.64 561.04"><defs><style>.b{fill:#333;}</style></defs><path class="b" d="M4.16,1.4c-.08,.84-.12,1.79-.13,2.82,0,.96,.06,1.69,.11,2.49,.02,1.55-.1,.85-.19,.85-.23-.57-.4,.28-.51,1.91-.13,1.84-.29,3.57-.37,5.62-.03,2.23-.2,3.76-.37,5.28-.03,.32-.05,.66-.07,1.01-.08,1.3-.11,2.68-.12,4.14,.07,2.37-.13,5.11,.04,7.11,.39,4.62,.52,10.27,.9,14.87,.07,1,.17,1.89,.21,3.02,.02,.37,.04,.72,.06,1.07,.07,1.75,.14,3.52,.22,5.26,.24,5.22,.2,10.67,.18,16.11,0,1.2-.06,2.35-.21,2.67-.11,.24-.11-.83-.15-1.42-.13-3.54,.04-7.47-.19-10.9-.57-8.63-1.22-16.75-2-24.12-.45-2.18-.62,1.35-.87,3.09-.15,1.57-.17,3.36-.12,5.26,.03,1.18,.11,2.26,.13,3.37,0-.29-.01-.58-.07-.82-.23,.8-.19,2.59-.21,4.15v1.4c.02,1.68-.03,3.27-.08,4.86-.04,2.75-.01,5.51-.03,8.26-.06,2.37-.09,4.76-.1,7.2-.02,11.12,.09,22.27-.1,33.36,0,1.01,0,2.02,.03,3.02,.11,4.36,.12,8.71,0,13.07-.03,.41-.05,.85-.05,1.31,.09,4.39-.17,8.68-.05,13.07,.07,1.48,.07,3.05,.08,4.62,0,1.75,.03,3.46,.27,4.14,.19,.16,.24,1.22,.23,2.63,.04,.68,.1,1.17,.16,1.72,.07,.73,.08,1.69,.12,2.52,.02,.34,.05,.66,.08,.91,.08,.46,.17,.77,.25,.01,.15-1.68,.03-3.8,.13-5.55,0-.65,0-1.24-.04-1.81v-.23c.09,1.39,.08,2.93,.1,4.44,0,.38,.02,.74,.05,1.07,.14,1.12,.21,2.52,.24,4.08h-.19c-.3,1.68-.31,4.26-.31,6.89,.01,.4,.03,.79,.05,1.16,.14,1.3,.11,2.82,.08,4.33,.21,2.65-.13,3.53-.23,5.18-.04,.99-.04,2.02-.04,3.04-.05,2.52,.13,4.48,.23,6.67l.02,.28s.01,.21-.01-.12c-.14-3.21-.28-1.52-.38,.12-.14,2.21,.03,6.75,.27,8.54,.25,1.81,.48,3.74,.25,6.83-.07,.46-.15,.88-.14,1.79,.02,.24,.05,.39,.07,.57-.04-.26-.08-.51-.11-.8-.04-.19-.09-.32-.13-.34-.39,.65-.52,2.28-.28,5.28,.08,1.05,.13,2.25,.21,3.35,.05,.82,.13,1.5,.16,2.43,0,.47,.07,.84,.03,1.44,0-.6-.06-1.06-.11-1.48-.04-.17-.08-.22-.13-.12-.04,.23-.06,.52-.08,.88-.04,1.01,0,2.19-.12,3.01-.03,.29-.05,.61-.07,.96,.2,1.81,.16,4.36,.27,6.43,.08,1.31,.4,1.42,.32,3.29-.12,2.76-.02,4.94,.14,7.14,0,2.6-.13,5.31,.07,7.8,.12,1.11,.28,1.97,.38,3.25,.16,1.56,0,3.44,.08,5.09,.03,2.88,.03,5.83,.21,8.42,.11,1.39,.06,2.86,.04,4.33,0,1.28,.09,2.09,.2,2.8,.08,.49,.17,.94,.12,1.97-.02,1.42-.2,1.18-.29,2.01-.05,1.96-.32,2.86-.33,5.04,0,.8,.02,1.55,.07,2.26,.13,2.42-.05,4.49-.11,6.68-.03,1.01-.04,2.03-.04,3.08,0,.62,0,1.23,.02,1.85,.02,1.51,.15,2.51,.26,3.66-.17,.29-.34,.24-.47,1.33-.09,2.37,.08,4.36,.16,6.35,.11,2.63-.01,3.31-.27,3.6-.06,1.48-.16,2.79-.22,4.26,0,1.06,.04,1.96,.12,2.75,.21,1.41,.11,4.02,.25,5.37,.19,1.79-.07,1.83-.09,2.71-.02,.78,0,1.47,.06,2.11,.12,1.13,0,2.36,.02,3.52,.04,1.8,.15,3.4,.24,5.07,.01,.39,.04,.96-.03,1-.09,.05-.12-.86-.18-1.25-.04-.24-.08-.38-.13-.41-.11,.06-.18,.66-.22,1.5-.03,.83-.04,1.67-.03,2.52,0,1.05,.04,2.03,.12,2.85,.07,.67,.19,1.11,.15,2.29-.09,1.33-.18,2.68-.17,4.3,0,1.36,.06,2.56,.22,3.1,.23,.77,.21,2.37,.19,3.97,0,.61,.01,1.2,.04,1.78,.06,1.72,.4,1.87,.34,4.15,0-1.79-.14-2.51-.35-2.47-.13,.22-.21,.86-.25,1.94,.02,1.58-.07,3.01-.09,4.53,0,.39,.03,.74,.05,1.08,.07,.78,.11,1.74,.2,2.37,.1,.78,.24,.72,.41,1.27-.15,.51-.28,.77-.35,1.72-.03,.61-.02,1.19,.02,1.75,.15,1.81,.49-.13,.61,2.21-.01,.35-.02,.72-.02,1.1,.09,3.33-.27,3.53-.47,4.9-.03,.33-.04,.69-.05,1.08-.01,2.18-.44,2.35-.34,5.05,0,.77,.09,1.7-.06,2.13-.19,.47-.38-.02-.58,.09-.04,.11-.08,.28-.12,.55-.05,2.41,.05,4.89-.05,7.28-.01,1.02,.02,1.98,.05,2.96,.05,1.45,.13,2.6,.33,2.58,.04-.06,.08-.16,.12-.34,.06-.35,.13-.69,.15,.29,0,.88,.01,1.79-.05,2.62-.11,.91-.19,0-.28-.22-.05-.11-.09-.13-.14-.09-.24,.99-.11,2.25-.03,3.36,.08,1.16,.23,1.95,.29,3.26,.07,1.63,.2,2.79,.4,3.32,.05,.11,.09,.19,.14,.22,.07,.04,.13,.02,.2-.09,.03-.07,.06-.15,.09-.26-.02,.66-.11,.94-.13,1.64-.02,.55-.03,1.12-.03,1.69,.01,.96-.03,1.8-.1,2.52-.09,1.11-.21,1.98-.29,3.16-.05,1.16-.03,2.37-.03,3.57-.04,1.84-.05,3.71-.06,5.59,.01,5.79-.04,11.5-.32,16.89,.02,.38,.05,.66,.09,.85,.08,.37,.18-.39,.26,.26-.08,.55-.17,.91-.25,1.51-.09,.67-.17,1.41-.22,2.32-.07,1.52-.15,3.03,0,4.56,.08,.63,.19,.89,.23,1.84,.03,1.07-.02,2.11-.02,3.18,.01,.95,.05,1.83,.1,2.65,.06,.84,.12,1.58,.22,2.14,.09,.45,.18,1.07,.28,1.34,.25,.41,.14,2.84,.3,3.74,.11,1.36-.07,1.53-.13,2.25-.03,.26-.05,.52-.07,.84-.02,.34-.03,.73-.09,.85-.09-.95,.07-2.31-.07-3.21-.17-.78-.33-.46-.49,.24-.04,.23-.08,.5-.11,.83-.09,1.14,.05,3.76-.29,3.3-.09,.41-.14,1.06-.16,1.89,0,.79,.03,1.5,.06,2.2,.06,.95,0,1.69-.05,2.49,0,1.06-.03,2.07-.07,3.03,.09,1.78,.46,.18,.47,2.84,.22,2.17,0,3.93-.07,5.85-.08,1.39-.21,.78-.33,.78-.1,.17-.18,.66-.22,1.5-.02,.67-.02,1.33,.02,1.96,.18,1.94,.42,1.53,.66,1.23,.05-.15,.09-.33,.14-.58,.13-.39,.16-3.27,.4-1.22,.08,1.05,.15,2.29,.33,2.46,.3,.29,.26,1.67,.14,3.26-.07,.46-.13,.92-.2,1.44-.03,.26-.06,.52-.08,.8-.08,.85-.22,1.14-.29,2.12-.11,1.3,.02,2.98-.09,4.33-.14,.8-.06-.29-.08-.57,0-.35,0-.72-.02-1.06-.05-.92-.14-1.57-.24-2.03-.16-.58-.34-1.1-.47,.23-.14,1.38,.05,2.34,.1,3.42,.1,1.95,.07,3.35-.19,4.1-.18,.72-.34-1.22-.52-.26-.11,1-.16,2.09-.09,3.41,.05,.49,.11,.78,.18,.97,.09,.3,.22,.34,.15,1.69-.07,.95-.19,1.61-.22,2.75,.02,1.1,.11,1.7,.21,2.28,.24,.71,.55,.73,.61,3.6,.04,.21,.08,.28,.13,.28-.07,.05-.13-.02-.19,.27-.1,1.24,.02,2.15,.07,3.18,.06,.94,.13,1.87,.16,2.93,.02,.71,0,1.45,.05,2.11,.03,.28,.06,.52,.1,.72,.23,3.15-.25,1.08-.26,2.51-.11,1.1-.15,2.24-.03,3.48,.06,.32,.11,.68,.17,.94,.64,2.8,1.17,6.33,1.26,12.91,.34,1.59,.68,3.05,1.05,.5,.08-.83,.12-1.79,.13-2.82,0-.96-.06-1.69-.11-2.49-.02-1.55,.1-.85,.19-.85,.23,.57,.4-.28,.51-1.91,.13-1.84,.29-3.57,.37-5.62,.03-2.23,.2-3.76,.37-5.28,.03-.32,.05-.66,.07-1.01,.08-1.3,.11-2.68,.12-4.13-.07-2.37,.13-5.11-.04-7.11-.39-4.62-.52-10.27-.9-14.87-.07-1-.17-1.89-.21-3.02-.02-.37-.04-.72-.06-1.07-.07-1.75-.14-3.52-.22-5.26-.24-5.22-.2-10.67-.18-16.11,0-1.2,.06-2.35,.21-2.67,.11-.24,.11,.83,.15,1.42,.13,3.55-.04,7.47,.19,10.9,.57,8.63,1.22,16.75,2,24.12,.45,2.17,.62-1.35,.87-3.09,.15-1.57,.17-3.36,.12-5.26-.03-1.18-.11-2.26-.13-3.37,0,.29,.01,.58,.07,.82,.23-.8,.19-2.59,.21-4.15v-1.4c-.02-1.68,.03-3.27,.08-4.86,.04-2.75,0-5.51,.03-8.26,.06-2.37,.09-4.76,.1-7.2,.02-11.12-.09-22.27,.1-33.36,0-1.01,0-2.02-.03-3.02-.11-4.36-.12-8.71,0-13.07,.03-.41,.05-.85,.05-1.31-.09-4.39,.17-8.68,.05-13.07-.07-1.48-.07-3.05-.08-4.62,0-1.75-.03-3.46-.27-4.14-.19-.16-.24-1.22-.23-2.63-.04-.68-.1-1.17-.16-1.73-.07-.73-.08-1.69-.12-2.52-.02-.34-.05-.66-.08-.91-.08-.46-.17-.77-.25-.01-.15,1.68-.03,3.8-.13,5.55,0,.65,0,1.24,.04,1.81v.23c-.09-1.39-.08-2.93-.1-4.44,0-.38-.02-.74-.05-1.07-.14-1.12-.21-2.52-.24-4.08h.19c.3-1.68,.31-4.26,.31-6.89-.01-.4-.03-.79-.05-1.16-.14-1.3-.11-2.82-.08-4.33-.21-2.65,.13-3.53,.23-5.18,.04-.99,.04-2.02,.04-3.04,.05-2.52-.13-4.48-.23-6.67,0-.11-.01-.19-.02-.28,0,0-.01-.21,.01,.12,.14,3.21,.28,1.52,.39-.12,.14-2.21-.03-6.75-.27-8.54-.25-1.81-.48-3.74-.25-6.83,.07-.46,.15-.88,.14-1.79-.02-.24-.05-.39-.07-.57,.04,.26,.08,.51,.11,.8,.04,.19,.09,.32,.13,.34,.39-.65,.52-2.28,.28-5.28-.08-1.05-.13-2.25-.2-3.35-.05-.82-.13-1.5-.16-2.43,0-.47-.07-.84-.03-1.44,0,.6,.06,1.06,.11,1.48,.04,.17,.08,.22,.13,.12,.04-.23,.06-.52,.08-.88,.04-1.01,0-2.19,.12-3.01,.03-.29,.05-.61,.07-.96-.2-1.81-.16-4.37-.27-6.43-.08-1.31-.4-1.42-.32-3.29,.12-2.76,.02-4.94-.14-7.14,0-2.6,.13-5.31-.07-7.8-.12-1.11-.28-1.97-.38-3.25-.16-1.56,0-3.44-.08-5.09-.03-2.88-.03-5.83-.21-8.42-.11-1.38-.06-2.86-.04-4.33,0-1.28-.09-2.09-.2-2.8-.08-.49-.17-.94-.12-1.97,.02-1.42,.2-1.18,.29-2.01,.05-1.96,.33-2.86,.33-5.04,0-.8-.02-1.55-.07-2.26-.13-2.42,.05-4.49,.11-6.68,.03-1.01,.04-2.03,.04-3.08,0-.62,0-1.23-.02-1.85-.02-1.51-.15-2.51-.26-3.66,.17-.29,.34-.24,.46-1.34,.09-2.37-.08-4.36-.16-6.35-.11-2.63,.01-3.31,.27-3.6,.06-1.48,.16-2.79,.22-4.26,0-1.06-.04-1.96-.12-2.75-.21-1.41-.11-4.02-.25-5.37-.19-1.79,.07-1.83,.09-2.71,.02-.78,0-1.47-.06-2.11-.12-1.13,0-2.36-.02-3.52-.04-1.8-.15-3.4-.24-5.07-.01-.39-.04-.96,.03-1,.09-.05,.12,.86,.18,1.25,.04,.24,.08,.38,.13,.41,.11-.06,.18-.66,.22-1.5,.03-.82,.04-1.67,.03-2.52,0-1.05-.04-2.03-.12-2.85-.07-.67-.19-1.11-.15-2.29,.09-1.33,.18-2.68,.17-4.3,0-1.36-.06-2.56-.22-3.1-.23-.77-.21-2.37-.19-3.97,0-.61-.01-1.2-.04-1.78-.06-1.72-.4-1.87-.34-4.15,0,1.79,.14,2.51,.35,2.47,.13-.22,.21-.86,.25-1.94-.02-1.58,.07-3.01,.09-4.53,0-.39-.02-.74-.05-1.08-.07-.78-.11-1.74-.2-2.37-.1-.78-.24-.72-.41-1.27,.15-.51,.28-.77,.35-1.72,.03-.61,.02-1.19-.02-1.75-.15-1.81-.49,.13-.61-2.21,.01-.35,.02-.72,.02-1.08-.09-3.33,.27-3.53,.47-4.9,.03-.33,.04-.69,.05-1.08,.01-2.18,.44-2.35,.34-5.05,0-.77-.09-1.7,.06-2.13,.19-.47,.38,.02,.58-.09,.04-.11,.08-.28,.12-.55,.04-2.41-.05-4.89,.05-7.28,.01-1.02-.02-1.98-.05-2.96-.05-1.45-.13-2.6-.33-2.58-.04,.06-.08,.16-.12,.34-.06,.35-.13,.69-.15-.29,0-.88-.01-1.79,.05-2.62,.11-.91,.19,0,.28,.22,.05,.11,.09,.13,.14,.09,.24-.97,.11-2.25,.03-3.36-.08-1.16-.23-1.95-.29-3.26-.07-1.63-.2-2.79-.4-3.32-.05-.11-.09-.19-.14-.22-.07-.04-.13-.02-.2,.09-.03,.07-.06,.15-.09,.26,.02-.66,.11-.94,.13-1.64,.02-.55,.03-1.12,.03-1.69-.01-.96,.03-1.8,.1-2.53,.09-1.11,.21-1.98,.29-3.16,.05-1.16,.03-2.37,.03-3.57,.04-1.84,.05-3.71,.06-5.59-.01-5.79,.04-11.5,.32-16.89-.02-.38-.05-.66-.09-.85-.08-.37-.18,.39-.26-.26,.08-.55,.17-.91,.25-1.51,.09-.67,.17-1.41,.22-2.32,.07-1.52,.15-3.03,0-4.56-.08-.63-.19-.89-.23-1.84-.03-1.07,.02-2.11,.02-3.18-.01-.95-.05-1.83-.1-2.65-.06-.84-.12-1.58-.22-2.14-.09-.45-.18-1.07-.28-1.34-.25-.41-.14-2.82-.3-3.74-.11-1.36,.07-1.53,.13-2.25,.03-.26,.05-.52,.07-.84,.02-.34,.04-.73,.09-.85,.09,.95-.07,2.31,.07,3.21,.17,.78,.33,.46,.49-.24,.04-.23,.08-.5,.11-.83,.09-1.14-.05-3.76,.29-3.3,.09-.41,.14-1.06,.16-1.89,0-.79-.03-1.5-.06-2.2-.06-.95,0-1.69,.05-2.49,0-1.06,.03-2.07,.07-3.03-.09-1.78-.46-.18-.47-2.84-.22-2.17,0-3.93,.07-5.85,.07-1.39,.21-.78,.33-.78,.1-.17,.18-.66,.22-1.5,.02-.67,.02-1.33-.02-1.96-.18-1.94-.42-1.53-.66-1.23-.05,.15-.09,.33-.14,.58-.13,.39-.16,3.27-.4,1.22-.08-1.05-.15-2.29-.33-2.46-.3-.29-.26-1.67-.14-3.26,.07-.46,.14-.92,.2-1.44,.03-.26,.06-.52,.08-.8,.08-.85,.22-1.14,.29-2.12,.11-1.3-.02-2.98,.09-4.33,.14-.8,.06,.29,.08,.57,0,.35,0,.72,.02,1.06,.05,.91,.14,1.57,.24,2.03,.16,.58,.34,1.1,.47-.23,.14-1.38-.05-2.34-.1-3.42-.1-1.95-.07-3.35,.19-4.1,.18-.72,.34,1.22,.52,.26,.11-1,.16-2.09,.09-3.41-.05-.49-.11-.78-.18-.97-.09-.3-.22-.34-.15-1.69,.07-.95,.19-1.61,.22-2.75-.02-1.1-.11-1.7-.21-2.28-.24-.71-.55-.73-.61-3.6-.04-.21-.08-.28-.13-.28,.06-.05,.13,.02,.19-.27,.1-1.24-.02-2.15-.07-3.18-.06-.94-.13-1.87-.16-2.93-.02-.71,0-1.45-.05-2.11-.03-.28-.06-.52-.1-.72-.23-3.15,.25-1.08,.26-2.51,.11-1.1,.15-2.24,.03-3.48-.06-.32-.11-.68-.17-.94-.64-2.8-1.17-6.33-1.27-12.91-.34-1.59-.68-3.05-1.05-.5h0ZM1.22,530s0,.01-.01,.02c0-.04,.02-.06,.02-.1-.01-.56,.06,.02,0,.07h-.01Zm5.15-102.9c-.01,.72-.02,1.44,0,2.17-.02,.45,.09,.86,0,1.31,.01-.27,0-.52-.01-.72-.1-1.98-.02-3.99,0-6,.02,1.08,.05,2.15,0,3.24h.01Zm-.02-5.17v0Zm-.03-1.64c-.05-1.53-.04-3.05,.02-4.56v-1.36c0,1.97-.05,3.97-.03,5.94h.01ZM1.33,145.35v1.36c0-1.97,.05-3.97,.03-5.94,.05,1.53,.04,3.05-.02,4.56h-.01Zm-.01-6.12v0Zm0-8.01c.1,1.98,.02,3.99,0,6-.02-1.08-.06-2.15,0-3.24,.02-.72,.02-1.44,0-2.17,.02-.45-.09-.86,0-1.31-.01,.27,0,.52,.01,.72h-.01ZM6.45,31.14c.01,.56-.06-.02,0-.07t.01-.02s-.02,.06-.02,.1h.01Z"/></svg>